<mxfile host="app.diagrams.net" modified="2021-03-01T11:05:42.068Z" agent="5.0 (Macintosh; Intel Mac OS X 10_15_6) AppleWebKit/537.36 (KHTML, like Gecko) Chrome/88.0.4324.192 Safari/537.36" etag="Evtb3Hwv_RJN_GN6IolV" version="14.4.3" type="github" pages="11">
  <diagram id="IwGoDYMSzOG72_LcMlLt" name="[0] bridge">
    <mxGraphModel dx="2052" dy="1149" grid="1" gridSize="1" guides="1" tooltips="1" connect="1" arrows="1" fold="1" page="1" pageScale="1" pageWidth="827" pageHeight="1169" background="#4D5766" math="0" shadow="0">
      <root>
        <mxCell id="0" />
        <mxCell id="1" parent="0" />
      </root>
    </mxGraphModel>
  </diagram>
  <diagram name="[1] vrnetlab" id="ERHm4omkb7seleAT47LG">
    <mxGraphModel dx="2052" dy="1149" grid="1" gridSize="1" guides="1" tooltips="1" connect="1" arrows="1" fold="1" page="1" pageScale="1" pageWidth="827" pageHeight="1169" background="#4D5766" math="0" shadow="0">
      <root>
        <mxCell id="TkcjntRwO2dvcu2u7_sm-0" />
        <mxCell id="TkcjntRwO2dvcu2u7_sm-1" parent="TkcjntRwO2dvcu2u7_sm-0" />
      </root>
    </mxGraphModel>
  </diagram>
  <diagram name="[2] docker ux" id="VEvRKLfo7zoAhyE10KFq">
    <mxGraphModel dx="2052" dy="1149" grid="0" gridSize="1" guides="1" tooltips="1" connect="1" arrows="1" fold="1" page="1" pageScale="1" pageWidth="827" pageHeight="1169" background="#4D5766" math="0" shadow="0">
      <root>
        <mxCell id="dT_LzbfVHICbEvJNRPNC-0" />
        <mxCell id="dT_LzbfVHICbEvJNRPNC-1" parent="dT_LzbfVHICbEvJNRPNC-0" />
      </root>
    </mxGraphModel>
  </diagram>
  <diagram name="[3] linux bridges" id="aZDXElb99kwaLvt0qlm3">
    <mxGraphModel dx="2052" dy="1149" grid="0" gridSize="1" guides="1" tooltips="1" connect="1" arrows="1" fold="1" page="1" pageScale="1" pageWidth="827" pageHeight="1169" background="#4D5766" math="0" shadow="0">
      <root>
        <mxCell id="OPXD7bo58CVVLlxDLEV2-0" />
        <mxCell id="OPXD7bo58CVVLlxDLEV2-1" parent="OPXD7bo58CVVLlxDLEV2-0" />
      </root>
    </mxGraphModel>
  </diagram>
  <diagram name="[4] ovs" id="YVQiOGavwVzEzcaRsIyW">
    <mxGraphModel dx="2052" dy="1149" grid="0" gridSize="1" guides="1" tooltips="1" connect="1" arrows="1" fold="1" page="1" pageScale="1" pageWidth="827" pageHeight="1169" background="#4D5766" math="0" shadow="0">
      <root>
        <mxCell id="sbhyixBxPudID7Q4Y4ZD-0" />
        <mxCell id="sbhyixBxPudID7Q4Y4ZD-1" parent="sbhyixBxPudID7Q4Y4ZD-0" />
      </root>
    </mxGraphModel>
  </diagram>
  <diagram name="[5] ovs grarp" id="yE-uWpr-NEvPoyRgdReE">
    <mxGraphModel dx="2052" dy="1149" grid="0" gridSize="1" guides="1" tooltips="1" connect="1" arrows="1" fold="1" page="1" pageScale="1" pageWidth="827" pageHeight="1169" background="#4D5766" math="0" shadow="0">
      <root>
        <mxCell id="FKc4MsMhVzeDsgC0i0Gs-0" />
        <mxCell id="FKc4MsMhVzeDsgC0i0Gs-1" parent="FKc4MsMhVzeDsgC0i0Gs-0" />
      </root>
    </mxGraphModel>
  </diagram>
  <diagram name="[6] tc" id="yXcL9j9bDFZbN5RbVE8g">
    <mxGraphModel dx="2052" dy="1149" grid="0" gridSize="1" guides="1" tooltips="1" connect="1" arrows="1" fold="1" page="1" pageScale="1" pageWidth="827" pageHeight="1169" background="#4D5766" math="0" shadow="0">
      <root>
        <mxCell id="qp_cOpPLF5dleS2alahI-0" />
        <mxCell id="qp_cOpPLF5dleS2alahI-1" parent="qp_cOpPLF5dleS2alahI-0" />
      </root>
    </mxGraphModel>
  </diagram>
  <diagram name="[7] multi-node" id="sgxWJq1CnF7nWx0Ha794">
    <mxGraphModel dx="2052" dy="1149" grid="0" gridSize="1" guides="1" tooltips="1" connect="1" arrows="1" fold="1" page="0" pageScale="1" pageWidth="827" pageHeight="1169" background="#4D5766" math="0" shadow="0">
      <root>
        <mxCell id="_sDvT8Y5_O4Zr96Q4G8A-0" />
        <mxCell id="_sDvT8Y5_O4Zr96Q4G8A-1" parent="_sDvT8Y5_O4Zr96Q4G8A-0" />
        <mxCell id="Mu0YCxdXhIBRMeRv9ucu-4" value="" style="rounded=0;whiteSpace=wrap;html=1;fontSize=12;align=center;strokeColor=none;fontFamily=Manrope;fontSource=https%3A%2F%2Ffonts.googleapis.com%2Fcss%3Ffamily%3DManrope;fontColor=#DDE9F5;allowArrows=0;editable=0;connectable=0;fillColor=#BEC8D2;" parent="_sDvT8Y5_O4Zr96Q4G8A-1" vertex="1">
          <mxGeometry x="416" y="392" width="130" height="23" as="geometry" />
        </mxCell>
        <mxCell id="Mu0YCxdXhIBRMeRv9ucu-5" value="" style="rounded=0;whiteSpace=wrap;html=1;fontSize=12;align=center;strokeColor=none;fontFamily=Manrope;fontSource=https%3A%2F%2Ffonts.googleapis.com%2Fcss%3Ffamily%3DManrope;fontColor=#DDE9F5;allowArrows=0;editable=0;connectable=0;fillColor=#FFFFFF;" parent="_sDvT8Y5_O4Zr96Q4G8A-1" vertex="1">
          <mxGeometry x="416" y="415" width="130" height="103" as="geometry" />
        </mxCell>
        <mxCell id="Mu0YCxdXhIBRMeRv9ucu-6" value="&lt;font style=&quot;font-size: 10px&quot;&gt;VM2&lt;/font&gt;" style="text;html=1;align=center;verticalAlign=middle;resizable=0;points=[];autosize=1;fontSize=10;fontFamily=Manrope;fontStyle=1;" parent="_sDvT8Y5_O4Zr96Q4G8A-1" vertex="1">
          <mxGeometry x="471.5" y="396" width="30" height="16" as="geometry" />
        </mxCell>
        <mxCell id="Mu0YCxdXhIBRMeRv9ucu-2" value="" style="rounded=0;whiteSpace=wrap;html=1;fontSize=12;align=center;strokeColor=none;fontFamily=Manrope;fontSource=https%3A%2F%2Ffonts.googleapis.com%2Fcss%3Ffamily%3DManrope;fontColor=#DDE9F5;allowArrows=0;editable=0;connectable=0;fillColor=#BEC8D2;" parent="_sDvT8Y5_O4Zr96Q4G8A-1" vertex="1">
          <mxGeometry x="164" y="392" width="137" height="23" as="geometry" />
        </mxCell>
        <mxCell id="Mu0YCxdXhIBRMeRv9ucu-0" value="" style="rounded=0;whiteSpace=wrap;html=1;fontSize=12;align=center;strokeColor=none;fontFamily=Manrope;fontSource=https%3A%2F%2Ffonts.googleapis.com%2Fcss%3Ffamily%3DManrope;fontColor=#DDE9F5;allowArrows=0;editable=0;connectable=0;fillColor=#FFFFFF;" parent="_sDvT8Y5_O4Zr96Q4G8A-1" vertex="1">
          <mxGeometry x="164" y="415" width="137" height="103" as="geometry" />
        </mxCell>
        <mxCell id="_sDvT8Y5_O4Zr96Q4G8A-6" value="" style="group" parent="_sDvT8Y5_O4Zr96Q4G8A-1" vertex="1" connectable="0">
          <mxGeometry x="194" y="435" width="55" height="55.88" as="geometry" />
        </mxCell>
        <mxCell id="_sDvT8Y5_O4Zr96Q4G8A-7" value="" style="group" parent="_sDvT8Y5_O4Zr96Q4G8A-6" vertex="1" connectable="0">
          <mxGeometry width="55.00000000000001" height="55.88" as="geometry" />
        </mxCell>
        <mxCell id="_sDvT8Y5_O4Zr96Q4G8A-8" value="" style="whiteSpace=wrap;html=1;aspect=fixed;fillColor=#001135;strokeColor=none;connectable=1;allowArrows=1;fontFamily=Manrope;fontSource=https%3A%2F%2Ffonts.googleapis.com%2Fcss%3Ffamily%3DManrope;" parent="_sDvT8Y5_O4Zr96Q4G8A-7" vertex="1">
          <mxGeometry width="53.70526815377313" height="53.70526815377313" as="geometry" />
        </mxCell>
        <mxCell id="_sDvT8Y5_O4Zr96Q4G8A-9" value="" style="endArrow=open;html=1;edgeStyle=orthogonalEdgeStyle;rounded=0;endFill=0;startSize=6;endSize=2;strokeColor=#FFFFFF;fontFamily=Manrope;fontSource=https%3A%2F%2Ffonts.googleapis.com%2Fcss%3Ffamily%3DManrope;" parent="_sDvT8Y5_O4Zr96Q4G8A-7" edge="1">
          <mxGeometry width="91.66666666666669" height="93.13333333333333" as="geometry">
            <mxPoint x="5.500000000000002" y="22.352" as="sourcePoint" />
            <mxPoint x="20.16666666666667" y="5.588" as="targetPoint" />
            <Array as="points">
              <mxPoint x="20.16666666666667" y="22.352" />
            </Array>
          </mxGeometry>
        </mxCell>
        <mxCell id="_sDvT8Y5_O4Zr96Q4G8A-10" value="" style="endArrow=open;html=1;edgeStyle=orthogonalEdgeStyle;rounded=0;endFill=0;startSize=6;endSize=2;strokeColor=#FFFFFF;fontFamily=Manrope;fontSource=https%3A%2F%2Ffonts.googleapis.com%2Fcss%3Ffamily%3DManrope;" parent="_sDvT8Y5_O4Zr96Q4G8A-7" edge="1">
          <mxGeometry width="91.66666666666669" height="93.13333333333333" as="geometry">
            <mxPoint x="20.16666666666667" y="50.292" as="sourcePoint" />
            <mxPoint x="5.500000000000002" y="35.39066666666667" as="targetPoint" />
            <Array as="points">
              <mxPoint x="20.16666666666667" y="35.39066666666667" />
            </Array>
          </mxGeometry>
        </mxCell>
        <mxCell id="_sDvT8Y5_O4Zr96Q4G8A-11" value="" style="endArrow=open;html=1;edgeStyle=orthogonalEdgeStyle;rounded=0;endFill=0;startSize=6;endSize=2;strokeColor=#FFFFFF;fontFamily=Manrope;fontSource=https%3A%2F%2Ffonts.googleapis.com%2Fcss%3Ffamily%3DManrope;" parent="_sDvT8Y5_O4Zr96Q4G8A-7" edge="1">
          <mxGeometry width="91.66666666666669" height="93.13333333333333" as="geometry">
            <mxPoint x="33.00000000000001" y="5.588" as="sourcePoint" />
            <mxPoint x="49.500000000000014" y="22.352" as="targetPoint" />
            <Array as="points">
              <mxPoint x="33.00000000000001" y="22.352" />
            </Array>
          </mxGeometry>
        </mxCell>
        <mxCell id="_sDvT8Y5_O4Zr96Q4G8A-12" value="" style="endArrow=open;html=1;edgeStyle=orthogonalEdgeStyle;rounded=0;endFill=0;startSize=6;endSize=2;strokeColor=#FFFFFF;fontFamily=Manrope;fontSource=https%3A%2F%2Ffonts.googleapis.com%2Fcss%3Ffamily%3DManrope;" parent="_sDvT8Y5_O4Zr96Q4G8A-7" edge="1">
          <mxGeometry width="91.66666666666669" height="93.13333333333333" as="geometry">
            <mxPoint x="49.500000000000014" y="35.39066666666667" as="sourcePoint" />
            <mxPoint x="33.00000000000001" y="50.292" as="targetPoint" />
            <Array as="points">
              <mxPoint x="33.00000000000001" y="35.39066666666667" />
            </Array>
          </mxGeometry>
        </mxCell>
        <mxCell id="_sDvT8Y5_O4Zr96Q4G8A-14" value="&lt;font style=&quot;font-size: 10px&quot;&gt;SR OS&lt;/font&gt;" style="text;html=1;align=center;verticalAlign=middle;resizable=0;points=[];autosize=1;fontSize=10;fontFamily=Manrope;fontStyle=0;fontColor=#001135;" parent="_sDvT8Y5_O4Zr96Q4G8A-1" vertex="1">
          <mxGeometry x="202" y="490.88" width="39" height="17" as="geometry" />
        </mxCell>
        <mxCell id="_sDvT8Y5_O4Zr96Q4G8A-90" value="" style="rounded=0;whiteSpace=wrap;html=1;fontFamily=Manrope;fontSize=12;fontColor=#FFFFFF;align=center;strokeColor=none;rotation=0;horizontal=1;fillColor=#BEC8D2;" parent="_sDvT8Y5_O4Zr96Q4G8A-1" vertex="1">
          <mxGeometry x="247.5" y="448.94" width="30" height="30" as="geometry" />
        </mxCell>
        <mxCell id="_sDvT8Y5_O4Zr96Q4G8A-15" value="1/1/1" style="rounded=0;whiteSpace=wrap;html=1;fontFamily=Manrope;fontSize=8;fontColor=#FFFFFF;align=center;strokeColor=none;rotation=0;horizontal=1;fillColor=#4D5766;" parent="_sDvT8Y5_O4Zr96Q4G8A-1" vertex="1">
          <mxGeometry x="251" y="452.19" width="23" height="10.5" as="geometry" />
        </mxCell>
        <mxCell id="_sDvT8Y5_O4Zr96Q4G8A-92" value="1/1/1" style="rounded=0;whiteSpace=wrap;html=1;fontFamily=Manrope;fontSize=8;fontColor=#FFFFFF;align=center;strokeColor=none;rotation=0;horizontal=1;fillColor=#4D5766;" parent="_sDvT8Y5_O4Zr96Q4G8A-1" vertex="1">
          <mxGeometry x="251" y="465.57" width="23" height="10.5" as="geometry" />
        </mxCell>
        <mxCell id="_sDvT8Y5_O4Zr96Q4G8A-93" value="&lt;font style=&quot;font-size: 10px&quot;&gt;lag-aggr&lt;br&gt;&lt;/font&gt;" style="text;html=1;align=center;verticalAlign=middle;resizable=0;points=[];autosize=1;fontSize=10;fontFamily=Manrope;fontStyle=0;fontColor=#4D5766;" parent="_sDvT8Y5_O4Zr96Q4G8A-1" vertex="1">
          <mxGeometry x="244" y="432.94" width="49" height="16" as="geometry" />
        </mxCell>
        <mxCell id="_sDvT8Y5_O4Zr96Q4G8A-94" value="" style="group" parent="_sDvT8Y5_O4Zr96Q4G8A-1" vertex="1" connectable="0">
          <mxGeometry x="463" y="435" width="55" height="55.88" as="geometry" />
        </mxCell>
        <mxCell id="_sDvT8Y5_O4Zr96Q4G8A-95" value="" style="group" parent="_sDvT8Y5_O4Zr96Q4G8A-94" vertex="1" connectable="0">
          <mxGeometry width="55.00000000000001" height="55.88" as="geometry" />
        </mxCell>
        <mxCell id="_sDvT8Y5_O4Zr96Q4G8A-96" value="" style="whiteSpace=wrap;html=1;aspect=fixed;fillColor=#001135;strokeColor=none;connectable=1;allowArrows=1;fontFamily=Manrope;fontSource=https%3A%2F%2Ffonts.googleapis.com%2Fcss%3Ffamily%3DManrope;" parent="_sDvT8Y5_O4Zr96Q4G8A-95" vertex="1">
          <mxGeometry width="53.70526815377313" height="53.70526815377313" as="geometry" />
        </mxCell>
        <mxCell id="_sDvT8Y5_O4Zr96Q4G8A-97" value="" style="endArrow=open;html=1;edgeStyle=orthogonalEdgeStyle;rounded=0;endFill=0;startSize=6;endSize=2;strokeColor=#FFFFFF;fontFamily=Manrope;fontSource=https%3A%2F%2Ffonts.googleapis.com%2Fcss%3Ffamily%3DManrope;" parent="_sDvT8Y5_O4Zr96Q4G8A-95" edge="1">
          <mxGeometry width="91.66666666666669" height="93.13333333333333" as="geometry">
            <mxPoint x="5.500000000000002" y="22.352" as="sourcePoint" />
            <mxPoint x="20.16666666666667" y="5.588" as="targetPoint" />
            <Array as="points">
              <mxPoint x="20.16666666666667" y="22.352" />
            </Array>
          </mxGeometry>
        </mxCell>
        <mxCell id="_sDvT8Y5_O4Zr96Q4G8A-98" value="" style="endArrow=open;html=1;edgeStyle=orthogonalEdgeStyle;rounded=0;endFill=0;startSize=6;endSize=2;strokeColor=#FFFFFF;fontFamily=Manrope;fontSource=https%3A%2F%2Ffonts.googleapis.com%2Fcss%3Ffamily%3DManrope;" parent="_sDvT8Y5_O4Zr96Q4G8A-95" edge="1">
          <mxGeometry width="91.66666666666669" height="93.13333333333333" as="geometry">
            <mxPoint x="20.16666666666667" y="50.292" as="sourcePoint" />
            <mxPoint x="5.500000000000002" y="35.39066666666667" as="targetPoint" />
            <Array as="points">
              <mxPoint x="20.16666666666667" y="35.39066666666667" />
            </Array>
          </mxGeometry>
        </mxCell>
        <mxCell id="_sDvT8Y5_O4Zr96Q4G8A-99" value="" style="endArrow=open;html=1;edgeStyle=orthogonalEdgeStyle;rounded=0;endFill=0;startSize=6;endSize=2;strokeColor=#FFFFFF;fontFamily=Manrope;fontSource=https%3A%2F%2Ffonts.googleapis.com%2Fcss%3Ffamily%3DManrope;" parent="_sDvT8Y5_O4Zr96Q4G8A-95" edge="1">
          <mxGeometry width="91.66666666666669" height="93.13333333333333" as="geometry">
            <mxPoint x="33.00000000000001" y="5.588" as="sourcePoint" />
            <mxPoint x="49.500000000000014" y="22.352" as="targetPoint" />
            <Array as="points">
              <mxPoint x="33.00000000000001" y="22.352" />
            </Array>
          </mxGeometry>
        </mxCell>
        <mxCell id="_sDvT8Y5_O4Zr96Q4G8A-100" value="" style="endArrow=open;html=1;edgeStyle=orthogonalEdgeStyle;rounded=0;endFill=0;startSize=6;endSize=2;strokeColor=#FFFFFF;fontFamily=Manrope;fontSource=https%3A%2F%2Ffonts.googleapis.com%2Fcss%3Ffamily%3DManrope;" parent="_sDvT8Y5_O4Zr96Q4G8A-95" edge="1">
          <mxGeometry width="91.66666666666669" height="93.13333333333333" as="geometry">
            <mxPoint x="49.500000000000014" y="35.39066666666667" as="sourcePoint" />
            <mxPoint x="33.00000000000001" y="50.292" as="targetPoint" />
            <Array as="points">
              <mxPoint x="33.00000000000001" y="35.39066666666667" />
            </Array>
          </mxGeometry>
        </mxCell>
        <mxCell id="_sDvT8Y5_O4Zr96Q4G8A-101" value="&lt;font style=&quot;font-size: 10px&quot;&gt;vMX&lt;/font&gt;" style="text;html=1;align=center;verticalAlign=middle;resizable=0;points=[];autosize=1;fontSize=10;fontFamily=Manrope;fontStyle=0;fontColor=#001135;" parent="_sDvT8Y5_O4Zr96Q4G8A-1" vertex="1">
          <mxGeometry x="476" y="491.88" width="30" height="16" as="geometry" />
        </mxCell>
        <mxCell id="_sDvT8Y5_O4Zr96Q4G8A-102" value="" style="rounded=0;whiteSpace=wrap;html=1;fontFamily=Manrope;fontSize=12;fontColor=#FFFFFF;align=center;strokeColor=none;rotation=0;horizontal=1;fillColor=#BEC8D2;" parent="_sDvT8Y5_O4Zr96Q4G8A-1" vertex="1">
          <mxGeometry x="433" y="448.94" width="30" height="30" as="geometry" />
        </mxCell>
        <mxCell id="_sDvT8Y5_O4Zr96Q4G8A-103" value="0/0/0" style="rounded=0;whiteSpace=wrap;html=1;fontFamily=Manrope;fontSize=8;fontColor=#FFFFFF;align=center;strokeColor=none;rotation=0;horizontal=1;fillColor=#4D5766;" parent="_sDvT8Y5_O4Zr96Q4G8A-1" vertex="1">
          <mxGeometry x="436.5" y="452.19" width="23" height="10.5" as="geometry" />
        </mxCell>
        <mxCell id="_sDvT8Y5_O4Zr96Q4G8A-104" value="0/0/1" style="rounded=0;whiteSpace=wrap;html=1;fontFamily=Manrope;fontSize=8;fontColor=#FFFFFF;align=center;strokeColor=none;rotation=0;horizontal=1;fillColor=#4D5766;" parent="_sDvT8Y5_O4Zr96Q4G8A-1" vertex="1">
          <mxGeometry x="436.5" y="465.57" width="23" height="10.5" as="geometry" />
        </mxCell>
        <mxCell id="_sDvT8Y5_O4Zr96Q4G8A-105" value="&lt;font style=&quot;font-size: 10px&quot;&gt;ae0&lt;/font&gt;" style="text;html=1;align=center;verticalAlign=middle;resizable=0;points=[];autosize=1;fontSize=10;fontFamily=Manrope;fontStyle=0;fontColor=#4D5766;" parent="_sDvT8Y5_O4Zr96Q4G8A-1" vertex="1">
          <mxGeometry x="434" y="432.94" width="28" height="16" as="geometry" />
        </mxCell>
        <mxCell id="_sDvT8Y5_O4Zr96Q4G8A-61" style="edgeStyle=orthogonalEdgeStyle;rounded=0;orthogonalLoop=1;jettySize=auto;html=1;fontFamily=Manrope;fontSize=12;fontColor=#FFFFFF;endArrow=oval;endFill=1;startArrow=oval;startFill=1;strokeColor=#001135;startSize=5;endSize=5;exitX=1;exitY=0.5;exitDx=0;exitDy=0;entryX=0;entryY=0.5;entryDx=0;entryDy=0;" parent="_sDvT8Y5_O4Zr96Q4G8A-1" source="_sDvT8Y5_O4Zr96Q4G8A-90" target="_sDvT8Y5_O4Zr96Q4G8A-102" edge="1">
          <mxGeometry relative="1" as="geometry">
            <mxPoint x="519" y="536.25" as="sourcePoint" />
            <mxPoint x="525" y="529" as="targetPoint" />
          </mxGeometry>
        </mxCell>
        <mxCell id="Mu0YCxdXhIBRMeRv9ucu-3" value="&lt;font style=&quot;font-size: 10px&quot;&gt;VM1&lt;/font&gt;" style="text;html=1;align=center;verticalAlign=middle;resizable=0;points=[];autosize=1;fontSize=10;fontFamily=Manrope;fontStyle=1;" parent="_sDvT8Y5_O4Zr96Q4G8A-1" vertex="1">
          <mxGeometry x="210.5" y="396" width="28" height="16" as="geometry" />
        </mxCell>
        <mxCell id="mDI1504Q5gqHZEvbcrSn-0" value="&lt;font style=&quot;font-size: 10px&quot;&gt;&lt;font face=&quot;Fira Code&quot; data-font-src=&quot;https://fonts.googleapis.com/css?family=Fira+Code&quot;&gt;.1&lt;/font&gt;&lt;br&gt;&lt;/font&gt;" style="text;html=1;align=center;verticalAlign=middle;resizable=0;points=[];autosize=1;fontSize=10;fontFamily=Manrope;fontStyle=0;fontColor=#4D5766;" parent="_sDvT8Y5_O4Zr96Q4G8A-1" vertex="1">
          <mxGeometry x="274" y="448.57" width="22" height="17" as="geometry" />
        </mxCell>
        <mxCell id="mDI1504Q5gqHZEvbcrSn-1" value="&lt;font style=&quot;font-size: 10px&quot;&gt;&lt;font face=&quot;Fira Code&quot; data-font-src=&quot;https://fonts.googleapis.com/css?family=Fira+Code&quot;&gt;192.168.1.0/24&lt;/font&gt;&lt;br&gt;&lt;/font&gt;" style="text;html=1;align=center;verticalAlign=middle;resizable=0;points=[];autosize=1;fontSize=10;fontFamily=Manrope;fontStyle=0;fontColor=#BEC8D2;fillColor=#4D5766;opacity=80;" parent="_sDvT8Y5_O4Zr96Q4G8A-1" vertex="1">
          <mxGeometry x="311" y="454.44" width="94" height="17" as="geometry" />
        </mxCell>
        <mxCell id="mDI1504Q5gqHZEvbcrSn-3" value="&lt;font style=&quot;font-size: 10px&quot;&gt;&lt;font face=&quot;Fira Code&quot; data-font-src=&quot;https://fonts.googleapis.com/css?family=Fira+Code&quot;&gt;.2&lt;/font&gt;&lt;br&gt;&lt;/font&gt;" style="text;html=1;align=center;verticalAlign=middle;resizable=0;points=[];autosize=1;fontSize=10;fontFamily=Manrope;fontStyle=0;fontColor=#4D5766;" parent="_sDvT8Y5_O4Zr96Q4G8A-1" vertex="1">
          <mxGeometry x="412" y="448.57" width="22" height="17" as="geometry" />
        </mxCell>
      </root>
    </mxGraphModel>
  </diagram>
  <diagram name="[8] multi-node" id="QKDRAuZcgL1i-9i-Boub">
    <mxGraphModel dx="1573" dy="257" grid="0" gridSize="1" guides="1" tooltips="1" connect="1" arrows="1" fold="1" page="0" pageScale="1" pageWidth="827" pageHeight="1169" background="#4D5766" math="0" shadow="0">
      <root>
        <mxCell id="4Fv5IL8blUMdfgEIT8pg-0" />
        <mxCell id="4Fv5IL8blUMdfgEIT8pg-1" parent="4Fv5IL8blUMdfgEIT8pg-0" />
        <mxCell id="4Fv5IL8blUMdfgEIT8pg-3" value="" style="rounded=0;whiteSpace=wrap;html=1;fontSize=12;align=center;strokeColor=none;fontFamily=Manrope;fontSource=https%3A%2F%2Ffonts.googleapis.com%2Fcss%3Ffamily%3DManrope;fontColor=#DDE9F5;allowArrows=0;editable=0;connectable=0;fillColor=#FFFFFF;" vertex="1" parent="4Fv5IL8blUMdfgEIT8pg-1">
          <mxGeometry x="-89" y="631" width="336" height="178" as="geometry" />
        </mxCell>
        <mxCell id="4Fv5IL8blUMdfgEIT8pg-13" value="" style="rounded=0;whiteSpace=wrap;html=1;fontSize=12;align=center;strokeColor=none;fontFamily=Manrope;fontSource=https%3A%2F%2Ffonts.googleapis.com%2Fcss%3Ffamily%3DManrope;fontColor=#DDE9F5;fillColor=#BEC8D2;allowArrows=0;editable=0;connectable=0;" vertex="1" parent="4Fv5IL8blUMdfgEIT8pg-1">
          <mxGeometry x="-53.5" y="660" width="213.5" height="138" as="geometry" />
        </mxCell>
        <mxCell id="4Fv5IL8blUMdfgEIT8pg-14" value="&lt;font color=&quot;#dde9f5&quot;&gt;netns:&lt;/font&gt;&amp;nbsp;container" style="rounded=0;whiteSpace=wrap;html=1;fontSize=12;align=center;fontFamily=Manrope;fontSource=https%3A%2F%2Ffonts.googleapis.com%2Fcss%3Ffamily%3DManrope;fontColor=#FFFFFF;fillColor=#98A2AE;rotation=0;strokeColor=none;horizontal=0;verticalAlign=middle;allowArrows=0;editable=0;" vertex="1" parent="4Fv5IL8blUMdfgEIT8pg-1">
          <mxGeometry x="-80" y="660" width="26.5" height="138" as="geometry" />
        </mxCell>
        <mxCell id="4Fv5IL8blUMdfgEIT8pg-15" value="" style="rounded=0;whiteSpace=wrap;html=1;fontSize=12;align=center;strokeColor=none;fontFamily=Manrope;fontSource=https%3A%2F%2Ffonts.googleapis.com%2Fcss%3Ffamily%3DManrope;fontColor=#DDE9F5;fillColor=#BEC8D2;" vertex="1" parent="4Fv5IL8blUMdfgEIT8pg-1">
          <mxGeometry x="-39.49000000000001" y="668" width="117.51" height="115" as="geometry" />
        </mxCell>
        <mxCell id="4Fv5IL8blUMdfgEIT8pg-16" value="" style="rounded=0;whiteSpace=wrap;html=1;fontSize=12;align=center;strokeColor=none;fontFamily=Manrope;fontSource=https%3A%2F%2Ffonts.googleapis.com%2Fcss%3Ffamily%3DManrope;fontColor=#FFFFFF;fillColor=#FFFFFF;" vertex="1" parent="4Fv5IL8blUMdfgEIT8pg-1">
          <mxGeometry x="-25.49000000000001" y="698" width="87.5" height="74" as="geometry" />
        </mxCell>
        <mxCell id="4Fv5IL8blUMdfgEIT8pg-17" value="mgmt" style="rounded=0;whiteSpace=wrap;html=1;fontFamily=Manrope;fontSize=12;fontColor=#FFFFFF;align=center;fillColor=#4BDD33;strokeColor=none;" vertex="1" parent="4Fv5IL8blUMdfgEIT8pg-1">
          <mxGeometry x="-4.490000000000009" y="678" width="43.5" height="20" as="geometry" />
        </mxCell>
        <mxCell id="4Fv5IL8blUMdfgEIT8pg-18" value="" style="shape=image;verticalLabelPosition=bottom;labelBackgroundColor=#ffffff;verticalAlign=top;aspect=fixed;imageAspect=0;image=data:image/svg+xml,PHN2ZyB4bWxucz0iaHR0cDovL3d3dy53My5vcmcvMjAwMC9zdmciIHhtbG5zOnhsaW5rPSJodHRwOi8vd3d3LnczLm9yZy8xOTk5L3hsaW5rIiB2aWV3Qm94PSIwLjUgMC41IDg0Ljc5Njg3NSAzNC4wMTU2MjUiIGZpbGw9IiNmZmYiIGZpbGwtcnVsZT0iZXZlbm9kZCIgc3Ryb2tlPSIjMDAwIiBzdHJva2UtbGluZWNhcD0icm91bmQiIHN0cm9rZS1saW5lam9pbj0icm91bmQiIGZvbnQtZmFtaWx5PSJSb2JvdG8iIGZvbnQtc2l6ZT0iMTQiIHRleHQtYW5jaG9yPSJtaWRkbGUiIHdpZHRoPSI4NC43OTY4NzUiIGhlaWdodD0iMzQuMDE1NjI1Ij48dXNlIHhsaW5rOmhyZWY9IiNDIiB4PSIuNSIgeT0iLjUiLz48ZGVmcz48c3R5bGU+QGZvbnQtZmFjZXtmb250LWZhbWlseToiUm9ib3RvIjtzcmM6dXJsKGRhdGE6YXBwbGljYXRpb24vZm9udC13b2ZmO2NoYXJzZXQ9dXRmLTg7YmFzZTY0LGQwOUdSZ0FCQUFBQUFBZ2dBQThBQUFBQUM0UUFBaU1TQUFBQUFBQUFBQUFBQUFBQUFBQUFBQUFBQUFCSFVFOVRBQUFCV0FBQUFHTUFBQUNFQmUzdHNrOVRMeklBQUFHOEFBQUFUd0FBQUdCMW14SFFZMjFoY0FBQUFnd0FBQUJUQUFBQldnRGlBeXBqZG5RZ0FBQUNZQUFBQUVnQUFBQklLMzRFdFdad1oyMEFBQUtvQUFBQk9nQUFBYnhmOGhxcloyRnpjQUFBQStRQUFBQU1BQUFBREFBSUFCTm5iSGxtQUFBRDhBQUFBVG9BQUFIRXdkc3BzV2hsWVdRQUFBVXNBQUFBTmdBQUFEWUFFdEd3YUdobFlRQUFCV1FBQUFBYUFBQUFKQWR1QlJSb2JYUjRBQUFGZ0FBQUFCUUFBQUFVRmxBQjNHeHZZMkVBQUFXVUFBQUFEQUFBQUF3QXJnRTZiV0Y0Y0FBQUJhQUFBQUFlQUFBQUlBSVZBYzV1WVcxbEFBQUZ3QUFBQVhRQUFBS0xrSTVOQW5CdmMzUUFBQWMwQUFBQUZBQUFBQ0QvYlFCcGNISmxjQUFBQjBnQUFBRFlBQUFCS1NwMk5qQjRuR05nWkdCZzRHSXdZTEJqWUhGeDh3bGhrRXF1TE1waGtFb3ZTczFta01wSkxNbGprR0pnQWFwaCtQK2ZBYVNXTVR1MUtJK0JBOFFDWXhZR0pqRE5BYVJsd0NyVkdJd1ltTUdpQ01BSUZtRUd5ak9DYVpCZUpyQnVSZ1pHQUd1ekM0c0FlSnhqWUdFcFk5ckR3TXJBd0RxTDFaaUJnVkVlUWpOZlpFaGpZbUJnQUdFSWFHQmdVQmVBTUJWQWhMdS92enVRcGNBUXlzYndqNEVoalgwV0U1RERPQjhreDJMRnVnRXN4d3dBQ0kwSzZRQjRuR05nWUdCbWdHQVpCa1lHRUFnQjhoakJmQllHQ3lETnhjREJ3QVNFQ2d5dURMNE1vZi8vQThYZzdQOFAvKy85diszL2VxaGVLR0JrWXlBSUdBa3JZUURhQ2dITVVKcUZHRTJEQXdBQXNPTU9CUUFBS2dEcEFLUUEvZ0JPQUdBQk1RQ3NBTVVBMUFCOEFDMEFBQUFVL21BQUZBS2JBQ0FESVFBTEJEb0FGQVNOQUJBRnNBQVVCaGdBRlFHbUFCRUd3QUFPQnQ4QUFnQUFBQUI0bkYyUXkwb0RNUmlGRTJlc3JSZHdLUVFoYWFoQ1NYRHZhaGFaZ25Rek9sMGtMcnhnQzdZclgwQ1lqVEJrNGJPYzJjM3Mramg5Q2RGMHFrWGQ1T1NjbjN5Y1B5QnFqRjVtSzByZlhVMC8zMkJPcTE1MGY2ZEJGZWZwM0lBK2FPd28wS0hRaUJRZklScU1icXgwM0hOL05mVjh4SjhmcDRnSHJZYkJ6THNMRHBMYmVUZ25WaUJ4Ykh1ZE9YZXBFYTh4Y1l2eExnQVczNEJGQ3dqdlB6UjIxWmdqT3N2c3RVVmhHQkxqbUJBOHhUS3pXQm9tbk5Qb2JEc0dmWjJmYk5ydUtYU0dHdDBOSWJkSUdJanpmdU9rUU9FOTgyR0RINy84NjJ0Sy9nZko3eUQ4UUZyVEltc25oUlJzSFVnaFJXam9qRVpQalhPYmhvb2lWTnhYNktjYUJ3b3l5S0dxem1uSmZXNmJoTVRrcWU2U2NtSWIwbzlXTDQ1QkJqZ3Y2Mk95emRaYkhpa2taYzNKcmEwa01hd2hNbG9acDc4QVV5eUl0UUFBQUFFQUFnQUlBQUwvL3dBUGVKeGpZTUFCR0JtYUdCaFlnbGczTUhBelJEQnNZSENOMk1DbUw3MlJUY0l1RXN4aEFYSlllT3dpTjNHenNBa0tXVzdnMXQ5aXhlM0Z6UlM3a1lGeEE1ZDJoT0lONlMrUkcxZ0VOakloY2RrRU5uSWd1QWFHaklxQ2lxSlF6UHp1N3dHbUpYOE1tTS85aldOeVlDci9WL1dSZGNQbmYwdGhibUdyQTdxRmp5RVM0aFlHb1BVTU1MY3dBVGxNNkE0RGN6aUFIQTRZaHdmSTRRRTVtWkdCQmVqa1Rld1FpZ3RNR1JoeU1nRmRJU2pNcU13b0RLU1p1QmpMR0VzWXUvNWRsdnRYZnU1ZmhkeS9LNndiZmo5Z1VmZ1Z3TmpIdFA3M1lSYWJ2MEgvaW9CdUFybXY1UDhibGd0QXRnQ0Q3U2FnYVVEenNEZ1Q3QmgwWjI3a1JRa1FRUkVHUlNVR2RhQURSTVNNallRRldTNzh1L3J2Ny85L1Y1Z1pkVG9yLzdLd2J2amorUDdmSzBhK044eW4vdGozTnpOeU1aOEVBRlJIZ1JnQUFBQUJBQUFBQWlNU2N3RHh3VjhQUFBVQUdRZ0FBQUFBQU1Ud0VTNEFBQUFBMVFGUzFnQjAvK3dHZmdXd0FBRUFDUUFDQUFBQUFBQUFlSnhqWUdSZ1lNLzV4d01rbVJnZ2dKRUJGYkFDQUM1WkFZNEFBQU9NQUdRQi9nQUFCSUFBZ2djQ0FJSUZSQUIwQUFBQUJnQU1BRklBb2dEaWVKeGpZR1JnWUdCbEVHUUEwUXhRa28rQmdZbUJjUStJQ1FBRzh3RG5BQUI0bklXU3kwckRRQlNHLzdFWExFb1JCTGZPeW9XUVNTK1VZcnRxYXltRlVpR1ZiZ1NobDZFSnhFNU5Ra3VmeERmeWpkejdKeG1LdWpIRHpIem5QM051RUFCWCtJUkEvcm5jT1F1VWFlVjhoaUphbGd1NHdJUGxJdm5SY2duWGVMSmNwcjYwWE1VOTNoZ2xpaFZhci9pd0xIQ0pMOHRuT0JmQ2NnRTNvbUs1U0w2MVhNS2RhRmt1VTMreFhNV3plQitZM1RFS05uNGlHN1Y2WFk2TTJZUmFqcmNySlh0aEtMM1VGVXRQeHpyYTY3WHl6TklrcG0vQ2RVN3lEODUxRkFkbUt4dXEzbXgzMDV6dDNPdWtYajlKZGgzWFBSd09hckZickh5dFRMUnh3MkNsdDdHTzNjbDRNSnpPaGs1RDFUQ0F3UTVIUkFpd2dZOEVFZzNVVU9lU0dORnJxSWZRdE1iWVlnVkY2bEVKZVh1bnFEaXpORy9OWEh1ZWE3NzBHTDNrVHJqNzNDSFZuNXI4UjUxbjJXSldNYXlkZHFiWVZ4TnRkRTk5dG4vRk9xZll0S3VFczNYNGs3ZzRaRXRoUVdYQktYeG1Wbndac1grWDd3TnFtalhpYkFZWEUwNDd3QkJUekhnNldlWGFOMDVMYnlWNG5HTmdaZ0NELzFrTUtReVlnQlVBS2lRQjFuaWNQYzFQRHNGQUhJYmhHZitwVU5MSWtOQ0dTRVNibEUwWDNUUVJWaGJzU2RoYUVaU1ZjQU54QXpmUXpNWXB4RkVjd0lMZmg5ZzhlVHVkTHhPa3pZQ1pUSElsWkxJcmJ6ZjBRb1lsekd1bzYxcEdIaFgrbjBWTzI3RmJRMFUzMDc1VFJzWHF1c2dwcUhqSGFWWStpNFJyVjBVV2xYU3NYNlZHZmJkWlJDblAyM25abzJJeXJjVHBkYU8zbTRtdWJHWDRTZ1lxTVZUNVdoN0FRdVcrOURRNm00QTlzRFg2TVFCemNBUVg4QUs2OWwzNFdQaFkrRElyYURZWCtFUTlnQzdvOGdRY3dSMjhnSWQ3ZGdrTFlCdUVSN3dCNERKUnlBPT0pIGZvcm1hdCgid29mZiIpOyBmb250LXdlaWdodDpib2xkO2ZvbnQtc3R5bGU6bm9ybWFsO308L3N0eWxlPjxyYWRpYWxHcmFkaWVudCBpZD0iQSIgY3g9IjQ0JSIgY3k9IjM4JSIgZng9IjQ0JSIgZnk9IjM4JSIgcj0iODIlIj48c3RvcCBvZmZzZXQ9IjAlIi8+PHN0b3Agb2Zmc2V0PSIxMDAlIiBzdG9wLW9wYWNpdHk9Ii44OTciLz48L3JhZGlhbEdyYWRpZW50PjxsaW5lYXJHcmFkaWVudCBpZD0iQiIgeDE9IjUwLjQ1JSIgeTE9Ii0wLjI1JSIgeDI9IjUwLjQ1JSIgeTI9Ijk1Ljg5JSI+PHN0b3Agb2Zmc2V0PSIwJSIgc3RvcC1jb2xvcj0iI2ZmZiIvPjxzdG9wIG9mZnNldD0iMTAwJSIgc3RvcC1jb2xvcj0iI2ZmZiIgc3RvcC1vcGFjaXR5PSIwIi8+PC9saW5lYXJHcmFkaWVudD48L2RlZnM+PHN5bWJvbCBpZD0iQyIgb3ZlcmZsb3c9InZpc2libGUiPjxnIHN0cm9rZT0ibm9uZSIgZmlsbC1ydWxlPSJub256ZXJvIj48cGF0aCBkPSJNMTQuMTU5IDBDNi4zNDEgMCAwIDYuMzAyIDAgMTQuMDhzNi4zNDEgMTQuMDggMTQuMTU5IDE0LjA4YTE0LjEzIDE0LjEzIDAgMCAwIDcuMDI0LTEuODUzbC43MzYgMS44NTNoNS43MDlsLTIuMjMzLTUuNTE5YTEzLjk3IDEzLjk3IDAgMCAwIDIuOTE0LTguNTZjMC03Ljc3Ny02LjMzMy0xNC4wOC0xNC4xNTEtMTQuMDh6IiBmaWxsPSJ1cmwoI0EpIi8+PHBhdGggZD0iTTQuNTk4IDguNTI2YzAtNC40NyA0LjE4Mi04LjA2OCA5LjM3Ni04LjA2OHM5LjM3NiAzLjU5OCA5LjM3NiA4LjA2OC00LjE4MiA4LjA2OC05LjM3NiA4LjA2OC05LjM3Ni0zLjU5OC05LjM3Ni04LjA2OHoiIGZpbGw9InVybCgjQikiLz48ZyBmaWxsPSIjMDAwIj48cGF0aCBkPSJNMTMuNzkyIDUuODFhMS42NiAxLjY2IDAgMSAxIDMuMzI4IDAgMS42NiAxLjY2IDAgMSAxLTMuMzI4IDB6Ii8+PHBhdGggZD0iTTEyLjQyIDYuNjA1bDkuNDQxIDEuMzYyLS4yNjUgMS4zNjgtOS40NDEtMS4zNjJ6Ii8+PHBhdGggZD0iTTIwLjkyNyA4LjQwMmgxLjY2NHYuNzM2aC0xLjY2NHoiLz48L2c+PHBhdGggZD0iTTEwLjQwMiAyLjMxNmMtLjAxNC41NTQtLjk4LjA3Mi0xLjAyMS43MDQtMS4wNy0uNDc2LjA4NC43MjgtLjAyNC44NGgtLjAwOGwtLjA3OS0uMDA4Yy0uMDUyLS4wMTgtLjEyNy0uMDUxLS4yMzctLjExOS0uNzQ4LjU5NS0uNzY2IDEuODMzLTEuNTM2IDIuNTE4LS41MDYgMS4wOTEtLjYyOCAyLjI3Ni0uOTk4IDMuNDEzLS4xODIgMS4wOS0uMzQyIDIuMTc5LS4wNzEgMy4yNy4wODEuODg3LS4xNzcgMi4wOTMuNjMzIDIuNzE3IDEuMTk4Ljk4NCAyLjE5MyAyLjIyOSAzLjE5OSAzLjQxM2E0NS4wMyA0NS4wMyAwIDAgMSA0LjIwNSA2LjE5M2MuMDgyLS41MzcuMjc5IDEuMDgxLjY0MSAxLjE4OGwtLjM2NC0zLjA4OGMtLjQtMi42MS0xLjY4Ni00Ljk3OS0yLjE3LTcuNTYzbC0uMDQ3LS4zMzN2LS4zMjRoLS4wNGMtLjE1OS0xLjI3OC0uMjE1LTIuNjUyLjcxMy0zLjY1MS45NDgtLjk1NiAyLjM1OC0xLjE5NyAzLjUtMS44NjEuMjU0LS4xNTIuNTE5LS4yNzIuNzkyLS4zNTYuNzk3LS4yNDQgMS42NDItLjIzNiAyLjQ2My0uMTAzbC4wNC4wMDguMjI5LjA0Yy42MDEuMDUxIDEuODExLjI4OCAyLjAyNy0uMTI3LS44MjktLjcwNi0yLjAyMy0uNjU3LTMuMDMzLS45MzRsLS41NTQtLjA3OS0uOTktLjIyMi0uMjQ2LS4wNjN2LjAwOGwtMy41NC0uNjg5Yy0uMDU1LS4wNTEtLjExMy0uMDk5LS4xNzQtLjE0MmwzLjQ1My40Mjh2LS4wMTZsLjM2NC4wNjN2LjAwN2wyLjQzOS40NTFjLjQyMS4xNTcuODcuMjc1IDEuMjkxLjMwMS42OTUuMTAxIDEuNTc3IDEuMTQgMS44MDYgMS4xODgtLjExMS0xLjA5MS0xLjIwMi0xLjU4LTIuMTA2LTEuOTAxLTEuMDU3LS41MTQtMi42MzYtLjQ5NS0yLjgwMy0xLjkxNmwtLjE0Mi0uMjkzLS40MTItLjU0Ni4wMTYtLjAwOGMtLjU2Mi0uNjYzLTEuMzUzLTEuMTQ2LTIuMTkzLTEuMzMtLjgzNi0uMjg4LTEuNzcxLS41NzQtMi42NTMtLjY4OS0uMjk5Ljg4MS0uNjM0LS42OTgtMS4zNTQtLjIzLS42MzMuMDc1LS41NDQuMjQxLTEuMDE0LS4xNTh6bTQuNTM4IDIuNTc0Yy4yMjktLjAwNi40OS4wMzYuNzUzLjEyNy43LjI0MiAxLjE1Ni43NTEgMS4wMjEgMS4xNHMtLjgxMi41MDMtMS41MTMuMjYxLTEuMTU1LS43NDQtMS4wMjEtMS4xMzNjLjA4NC0uMjQzLjM3OS0uMzg2Ljc2LS4zOTZ6IiBmaWxsPSIjZjYwIi8+PC9nPjx0ZXh0IGZpbGw9IiMwMDAiIGZvbnQtc2l6ZT0iMjQuMjEiIGZvbnQtd2VpZ2h0PSJib2xkIiBzdHJva2U9Im5vbmUiPjx0c3BhbiB4PSI1Ni41NTUiIHk9IjI4LjAwNSI+RU1VPC90c3Bhbj48L3RleHQ+PC9zeW1ib2w+PC9zdmc+;rotation=-90;" vertex="1" parent="4Fv5IL8blUMdfgEIT8pg-1">
          <mxGeometry x="-33.49000000000001" y="724.5" width="42.5" height="17" as="geometry" />
        </mxCell>
        <mxCell id="4Fv5IL8blUMdfgEIT8pg-19" value="" style="group" vertex="1" connectable="0" parent="4Fv5IL8blUMdfgEIT8pg-1">
          <mxGeometry x="2.019999999999982" y="709" width="43" height="42" as="geometry" />
        </mxCell>
        <mxCell id="4Fv5IL8blUMdfgEIT8pg-20" value="" style="group" vertex="1" connectable="0" parent="4Fv5IL8blUMdfgEIT8pg-19">
          <mxGeometry width="43" height="42" as="geometry" />
        </mxCell>
        <mxCell id="4Fv5IL8blUMdfgEIT8pg-21" value="" style="whiteSpace=wrap;html=1;aspect=fixed;fillColor=#001135;strokeColor=none;connectable=1;allowArrows=1;fontFamily=Manrope;fontSource=https%3A%2F%2Ffonts.googleapis.com%2Fcss%3Ffamily%3DManrope;" vertex="1" parent="4Fv5IL8blUMdfgEIT8pg-20">
          <mxGeometry width="42" height="42" as="geometry" />
        </mxCell>
        <mxCell id="4Fv5IL8blUMdfgEIT8pg-22" value="" style="endArrow=open;html=1;edgeStyle=orthogonalEdgeStyle;rounded=0;endFill=0;startSize=6;endSize=2;strokeColor=#FFFFFF;fontFamily=Manrope;fontSource=https%3A%2F%2Ffonts.googleapis.com%2Fcss%3Ffamily%3DManrope;" edge="1" parent="4Fv5IL8blUMdfgEIT8pg-20">
          <mxGeometry width="71.66666666666667" height="70" as="geometry">
            <mxPoint x="4.3" y="16.8" as="sourcePoint" />
            <mxPoint x="15.76666666666667" y="4.2" as="targetPoint" />
            <Array as="points">
              <mxPoint x="15.76666666666667" y="16.8" />
            </Array>
          </mxGeometry>
        </mxCell>
        <mxCell id="4Fv5IL8blUMdfgEIT8pg-23" value="" style="endArrow=open;html=1;edgeStyle=orthogonalEdgeStyle;rounded=0;endFill=0;startSize=6;endSize=2;strokeColor=#FFFFFF;fontFamily=Manrope;fontSource=https%3A%2F%2Ffonts.googleapis.com%2Fcss%3Ffamily%3DManrope;" edge="1" parent="4Fv5IL8blUMdfgEIT8pg-20">
          <mxGeometry width="71.66666666666667" height="70" as="geometry">
            <mxPoint x="15.76666666666667" y="37.8" as="sourcePoint" />
            <mxPoint x="4.3" y="26.6" as="targetPoint" />
            <Array as="points">
              <mxPoint x="15.76666666666667" y="26.6" />
            </Array>
          </mxGeometry>
        </mxCell>
        <mxCell id="4Fv5IL8blUMdfgEIT8pg-24" value="" style="endArrow=open;html=1;edgeStyle=orthogonalEdgeStyle;rounded=0;endFill=0;startSize=6;endSize=2;strokeColor=#FFFFFF;fontFamily=Manrope;fontSource=https%3A%2F%2Ffonts.googleapis.com%2Fcss%3Ffamily%3DManrope;" edge="1" parent="4Fv5IL8blUMdfgEIT8pg-20">
          <mxGeometry width="71.66666666666667" height="70" as="geometry">
            <mxPoint x="25.8" y="4.2" as="sourcePoint" />
            <mxPoint x="38.7" y="16.8" as="targetPoint" />
            <Array as="points">
              <mxPoint x="25.8" y="16.8" />
            </Array>
          </mxGeometry>
        </mxCell>
        <mxCell id="4Fv5IL8blUMdfgEIT8pg-25" value="" style="endArrow=open;html=1;edgeStyle=orthogonalEdgeStyle;rounded=0;endFill=0;startSize=6;endSize=2;strokeColor=#FFFFFF;fontFamily=Manrope;fontSource=https%3A%2F%2Ffonts.googleapis.com%2Fcss%3Ffamily%3DManrope;" edge="1" parent="4Fv5IL8blUMdfgEIT8pg-20">
          <mxGeometry width="71.66666666666667" height="70" as="geometry">
            <mxPoint x="38.7" y="26.6" as="sourcePoint" />
            <mxPoint x="25.8" y="37.8" as="targetPoint" />
            <Array as="points">
              <mxPoint x="25.8" y="26.6" />
            </Array>
          </mxGeometry>
        </mxCell>
        <mxCell id="4Fv5IL8blUMdfgEIT8pg-26" value="&lt;font style=&quot;font-size: 10px&quot;&gt;SR OS&lt;/font&gt;" style="text;html=1;align=center;verticalAlign=middle;resizable=0;points=[];autosize=1;fontSize=10;fontFamily=Manrope;fontStyle=0;fontColor=#BEC8D2;" vertex="1" parent="4Fv5IL8blUMdfgEIT8pg-1">
          <mxGeometry x="3.009999999999991" y="749" width="39" height="17" as="geometry" />
        </mxCell>
        <mxCell id="4Fv5IL8blUMdfgEIT8pg-27" value="1/1/1" style="rounded=0;whiteSpace=wrap;html=1;fontFamily=Manrope;fontSize=12;fontColor=#FFFFFF;align=center;strokeColor=none;rotation=0;horizontal=1;fillColor=#001135;" vertex="1" parent="4Fv5IL8blUMdfgEIT8pg-1">
          <mxGeometry x="62.00999999999999" y="710.25" width="30" height="16.25" as="geometry" />
        </mxCell>
        <mxCell id="4Fv5IL8blUMdfgEIT8pg-28" value="" style="shape=image;verticalLabelPosition=bottom;labelBackgroundColor=#ffffff;verticalAlign=top;aspect=fixed;imageAspect=0;image=data:image/svg+xml,PHN2ZyB4bWxucz0iaHR0cDovL3d3dy53My5vcmcvMjAwMC9zdmciIHhtbG5zOnhsaW5rPSJodHRwOi8vd3d3LnczLm9yZy8xOTk5L3hsaW5rIiB2aWV3Qm94PSIwLjUgMC41IDQ3LjA5NzAwMDEyMjA3MDMxIDI2Ljc0Mzk5OTQ4MTIwMTE3MiIgZmlsbD0iI2ZmZiIgZmlsbC1ydWxlPSJldmVub2RkIiBzdHJva2U9IiMwMDAiIHN0cm9rZS1saW5lY2FwPSJyb3VuZCIgc3Ryb2tlLWxpbmVqb2luPSJyb3VuZCIgd2lkdGg9IjQ3LjA5NzAwMDEyMjA3MDMxIiBoZWlnaHQ9IjI2Ljc0Mzk5OTQ4MTIwMTE3MiI+PHN0eWxlPi5Ce2ZpbGwtcnVsZTpub256ZXJvfS5De2ZpbGw6IzAwMH0uRHtzdHJva2U6bm9uZX0uRXtzdHJva2U6IzM5NGQ1NH0uRntzdHJva2UtbGluZWpvaW46bWl0ZXJ9Lkd7c3Ryb2tlLWxpbmVjYXA6YnV0dH0uSHtzdHJva2Utd2lkdGg6LjI4OH0uSXtmaWxsOiMwMGFjZDN9Lkp7ZmlsbDojMjBjMmVmfTwvc3R5bGU+PHVzZSB4bGluazpocmVmPSIjQSIgeD0iLjUiIHk9Ii41Ii8+PHN5bWJvbCBpZD0iQSIgb3ZlcmZsb3c9InZpc2libGUiPjxnIGNsYXNzPSJEIj48cGF0aCBkPSJNMjcuMjM1IDguNDQ1aDQuMjIydjQuMzE2aDIuMTM1Yy45ODYgMCAyLS4xNzUgMi45MzQtLjQ5Mi40NTktLjE1NS45NzQtLjM3MiAxLjQyNi0uNjQ2LS41OTYtLjc3OC0uOS0xLjc2MS0uOTktMi43MjktLjEyMi0xLjMxNy4xNDQtMy4wMzIgMS4wMzQtNC4wNjNsLjQ0NC0uNTEzLjUyOS40MjVjMS4zMyAxLjA3IDIuNDUyIDIuNTY3IDIuNjQ5IDQuMjY5IDEuNjAzLS40NzIgMy40ODYtLjM2IDQuODk5LjQ1NmwuNTguMzM1LS4zMDUuNTk2Yy0xLjE5NCAyLjMzNS0zLjY5MyAzLjA1Ny02LjEzNiAyLjkyOS0zLjY1NiA5LjEwNC0xMS42MTQgMTMuNDE2LTIxLjI2NSAxMy40MTYtNC45ODYgMC05LjU2LTEuODY0LTEyLjE2NS02LjI4Ny0uMTUzLS4yNzUtLjI4My0uNTYyLS40MjItLjg0NC0uODgtMS45NDctMS4xNzMtNC4wOC0uOTc1LTYuMjExbC4wNTktLjYzOGgzLjYxMVY4LjQ0NWg0LjIyMlY0LjIyMmg4LjQ0NVYwaDUuMDY3djguNDQ1IiBmaWxsPSIjMzk0ZDU0IiBjbGFzcz0iQiIvPjxwYXRoIGZpbGw9IiMxN2I1ZWIiIGQ9Ik00Ni4xNjcgMTAuMDY5Yy0xLjA5MiAyLjEzMy0zLjQ4MyAyLjc3Mi01Ljk3NSAyLjUxNy0zLjUxMyA5LjMwOC0xMS40NSAxMy40NTEtMjAuODAzIDEzLjQ1MS00LjIyMyAwLTcuODgxLTEuMzMtMTAuMzM1LTQuMDg1LS4xNDUtLjIwNC0uMjI4LS4zNzQtLjQ1Ni0uNjgxLS4yMTgtLjI5My0uNDI5LS41OTItLjYwOC0uOTFsLS4zMzktLjYwOGMtLjkyOC0xLjgyNS0xLjMzMi0zLjk1OS0xLjExOC02LjI4OGgyNy4wNThjMi4yMjMgMCA0LjM5NC0uODI5IDUuNDI1LTEuNzQ1LTEuODQ2LTEuNTAxLTEuNjYzLTUuMDY3LS40ODctNi40MjcgMS4wMjEuODIgMi42NjggMi41NDkgMi4zODMgNC43NSAxLjI4Ni0uNjQ4IDMuNTE2LS45NjkgNS4yNTQuMDI2eiIvPjxwYXRoIGQ9Ik0yMi44NzIuNzA0aDMuNjZ2My42NmgtMy42NnoiIGNsYXNzPSJCIEoiLz48L2c+PHVzZSB4bGluazpocmVmPSIjQyIgY2xhc3M9IkIgQyBFIEYgRyBIIi8+PHBhdGggZD0iTTEwLjIwNSAxMi44MWgzLjY2VjkuMTUxaC0zLjY2eiIgY2xhc3M9IkIgRCBJIi8+PHVzZSB4bGluazpocmVmPSIjRCIgY2xhc3M9IkIgQyBFIEYgRyBIIi8+PGcgY2xhc3M9IkQiPjxwYXRoIGQ9Ik0xNC40MjcgNC45MjRoMy42NnYzLjY1OWgtMy42NnoiIGNsYXNzPSJCIEkiLz48cGF0aCBkPSJNMTQuNDI3IDkuMTQ4aDMuNjZ2My42NmgtMy42NnoiIGNsYXNzPSJCIEoiLz48L2c+PGcgY2xhc3M9IkMgRSBGIEcgSCI+PHVzZSB4bGluazpocmVmPSIjQyIgeD0iLTguNDQ1IiB5PSI0LjIyMyIgY2xhc3M9IkIiLz48dXNlIHhsaW5rOmhyZWY9IiNDIiB4PSItOC40NDUiIHk9IjguNDQ1IiBjbGFzcz0iQiIvPjwvZz48ZyBjbGFzcz0iRCI+PHBhdGggZD0iTTE4LjY0OSAxMi44MWgzLjY2VjkuMTUxaC0zLjY2eiIgY2xhc3M9IkIgSSIvPjxwYXRoIGQ9Ik0xOC42NDkgOC41ODZoMy42NnYtMy42NmgtMy42NnoiIGNsYXNzPSJCIEoiLz48L2c+PGcgY2xhc3M9IkMgRSBGIEcgSCI+PHVzZSB4bGluazpocmVmPSIjRCIgeD0iOC40NDUiIGNsYXNzPSJCIi8+PHVzZSB4bGluazpocmVmPSIjRCIgeD0iOC40NDUiIHk9Ii00LjIyMiIgY2xhc3M9IkIiLz48L2c+PGcgY2xhc3M9IkQiPjxwYXRoIGQ9Ik0yMi44NzIgNC45MjRoMy42NnYzLjY1OWgtMy42NnoiIGNsYXNzPSJCIEkiLz48cGF0aCBkPSJNMjIuODcyIDkuMTQ4aDMuNjZ2My42NmgtMy42NnoiIGNsYXNzPSJCIEoiLz48L2c+PGcgY2xhc3M9IkMgRSBGIEcgSCI+PHVzZSB4bGluazpocmVmPSIjQyIgeT0iNC4yMjMiIGNsYXNzPSJCIi8+PHVzZSB4bGluazpocmVmPSIjQyIgeT0iOC40NDUiIGNsYXNzPSJCIi8+PC9nPjxwYXRoIGQ9Ik0yNy4wOTQgMTIuODFoMy42NlY5LjE1MWgtMy42NnoiIGNsYXNzPSJCIEQgSSIvPjx1c2UgeGxpbms6aHJlZj0iI0QiIHg9IjE2Ljg4OSIgY2xhc3M9IkIgQyBFIEYgRyBIIi8+PGcgY2xhc3M9IkQiPjxwYXRoIGQ9Ik0xOC44NjYgMTkuNzUxYTEuMDEgMS4wMSAwIDAgMS0xLjAxIDEuMDEgMS4wMSAxLjAxIDAgMCAxLTEuMDEtMS4wMSAxLjAxIDEuMDEgMCAwIDEgMS4wMS0xLjAxIDEuMDEgMS4wMSAwIDAgMSAxLjAxIDEuMDF6IiBmaWxsPSIjZDRlZGYxIiBjbGFzcz0iQiIvPjxwYXRoIGQ9Ik0xOC4xMTkgMTkuMDc3Yy0uMTE1LjA2Ny0uMTcxLjIwMy0uMTM2LjMzMXMuMTUxLjIxOC4yODQuMjE5Yy4xMTIgMCAuMjA5LS4wNjIuMjU5LS4xNTRhLjcyLjcyIDAgMCAxIC4wNTUuMjc3YzAgLjM5OS0uMzI0LjcyMy0uNzIzLjcyM3MtLjcyMy0uMzI0LS43MjMtLjcyMy4zMjQtLjcyMy43MjMtLjcyM2EuNzIuNzIgMCAwIDEgLjI2Mi4wNDl6TTAgMTYuNjQ5aDQ2Ljk2NGMtMS4wMjMtLjI1OS0zLjIzNS0uNjEtMi44NzEtMS45NS0xLjg2IDIuMTUyLTYuMzQ0IDEuNTA5LTcuNDc1LjQ0OS0xLjI2IDEuODI4LTguNTk3IDEuMTMzLTkuMTA4LS4yOTEtMS41OCAxLjg1NC02LjQ3NSAxLjg1NC04LjA1NSAwLS41MTIgMS40MjItNy44NDggMi4xMTktOS4xMDkuMjkxLTEuMTMyIDEuMDYxLTUuNjE0IDEuNzAzLTcuNDc1LS40NDkuMzY1IDEuMzQtMS44NDggMS42OTEtMi44NzEgMS45NSIgZmlsbD0iIzM5NGQ1NCIgY2xhc3M9IkIiLz48cGF0aCBkPSJNNy45OSAyMC4zNjFsLS4zMzktLjYwOGMtLjUxOC0xLjAxNy0uODcyLTIuMTMxLTEuMDQ4LTMuMzE4aDMxLjcxNWMtNC4wNTcgNi42MS0xMC45ODMgOS42MDItMTguOTMgOS42MDItNC4yMjMgMC03Ljg4MS0xLjMzLTEwLjMzNS00LjA4NS0uMTQ1LS4yMDQtLjIyOC0uMzc0LS40NTYtLjY4MS0uMjE4LS4yOTMtLjQyOS0uNTkyLS42MDgtLjkxeiIgZmlsbC1vcGFjaXR5PSIuMTciIGNsYXNzPSJDIi8+PHBhdGggZmlsbD0iI2Q0ZWRmMSIgZD0iTTIwLjU0MSAyNi4wMThjLTIuNS0xLjE4Ny0zLjg3My0yLjgtNC42MzYtNC41NmwtNi45NzYuMzA0LjEyNS4xODljMi40NTQgMi43NTYgNi4xMTIgNC4wODUgMTAuMzM1IDQuMDg1YTMwLjkyIDMwLjkyIDAgMCAwIDEuMTQ2LS4wMjFsLjA0My0uMDAyIi8+PHBhdGggZD0iTTQxLjA4NyA5Ljk1OWMxLjMwNS0uNTg5IDMuNDE4LS44NDEgNS4wNzguMTE3LTEuMDg5IDIuMTI3LTMuNDggMi43NjYtNS45NzMgMi41MS0zLjUxMyA5LjMwOC0xMS40NSAxMy40NTEtMjAuODAzIDEzLjQ1MS00LjIyMyAwLTcuODgxLTEuMzMtMTAuMzM1LTQuMDg1LS4xNDUtLjIwNC0uMjI4LS4zNzQtLjQ1Ni0uNjgxLS4yMTgtLjI5My0uNDI5LS41OTItLjYwOC0uOTFsLS4zMzktLjYwOGMtLjkyOC0xLjgyNS0xLjMzMi0zLjk1OS0xLjExOC02LjI5aDEuNjAzYy0uMTEgMy41NTQgMS4yMDQgNi4yNTIgMy41MzcgNy44ODNsMS4wMTYuNjEyYzMuMTgzIDEuNjMyIDcuNzk2IDEuNjIzIDEzLjA4OC0uNDEgNS45MzItMi4yNzkgMTEuNDU3LTYuNjE0IDE1LjMxNi0xMS41OTJsLS4wMDcuMDEiIGZpbGwtb3BhY2l0eT0iLjE0IiBjbGFzcz0iQyIvPjwvZz48cGF0aCBkPSJNOC40MjUgMjEuNjExYzIuNjE2LjE0MyA1LjQwNy4xNjkgNy44NDItLjU5NSIgZmlsbD0ibm9uZSIgc3Ryb2tlLXdpZHRoPSIuNjI4IiBjbGFzcz0iRSBGIi8+PC9zeW1ib2w+PGRlZnM+PHBhdGggaWQ9IkMiIGQ9Ik0yMy4zMjEgNC4wNTh2LTMuMDVtLjU0OSAzLjA1di0zLjA1bS41NTQgMy4wNXYtMy4wNW0uNTU1IDMuMDV2LTMuMDVtLjU1NSAzLjA1di0zLjA1bS41NDggMy4wNXYtMy4wNSIvPjxwYXRoIGlkPSJEIiBkPSJNMTAuNjU0IDkuNDUzdjMuMDVtLjU0OS0zLjA1djMuMDVtLjU1NC0zLjA1djMuMDVtLjU1NS0zLjA1djMuMDVtLjU1NS0zLjA1djMuMDVtLjU0OC0zLjA1djMuMDUiLz48L2RlZnM+PC9zdmc+;" vertex="1" parent="4Fv5IL8blUMdfgEIT8pg-1">
          <mxGeometry x="-51.00000000000003" y="663" width="29.59" height="17" as="geometry" />
        </mxCell>
        <mxCell id="4Fv5IL8blUMdfgEIT8pg-29" value="1/1/2" style="rounded=0;whiteSpace=wrap;html=1;fontFamily=Manrope;fontSize=12;fontColor=#FFFFFF;align=center;strokeColor=none;rotation=0;horizontal=1;fillColor=#001135;" vertex="1" parent="4Fv5IL8blUMdfgEIT8pg-1">
          <mxGeometry x="63.00999999999999" y="742" width="30" height="16.25" as="geometry" />
        </mxCell>
        <mxCell id="4Fv5IL8blUMdfgEIT8pg-30" value="eth1" style="rounded=0;whiteSpace=wrap;html=1;fontFamily=Manrope;fontSize=12;fontColor=#FFFFFF;align=center;strokeColor=none;rotation=0;horizontal=1;fillColor=#00C9FF;" vertex="1" parent="4Fv5IL8blUMdfgEIT8pg-1">
          <mxGeometry x="129" y="695" width="30" height="16.25" as="geometry" />
        </mxCell>
        <mxCell id="4Fv5IL8blUMdfgEIT8pg-31" value="eth2" style="rounded=0;whiteSpace=wrap;html=1;fontFamily=Manrope;fontSize=12;fontColor=#FFFFFF;align=center;strokeColor=none;rotation=0;horizontal=1;fillColor=#00C9FF;" vertex="1" parent="4Fv5IL8blUMdfgEIT8pg-1">
          <mxGeometry x="129" y="753" width="30" height="16.25" as="geometry" />
        </mxCell>
        <mxCell id="4Fv5IL8blUMdfgEIT8pg-32" style="rounded=0;orthogonalLoop=1;jettySize=auto;html=1;fontFamily=Manrope;fontSize=12;fontColor=#FFFFFF;endArrow=oval;endFill=1;startArrow=oval;startFill=1;strokeColor=#00C9FF;endSize=4;startSize=4;exitX=1;exitY=0.5;exitDx=0;exitDy=0;entryX=0;entryY=0.5;entryDx=0;entryDy=0;dashed=1;dashPattern=1 1;" edge="1" parent="4Fv5IL8blUMdfgEIT8pg-1" source="4Fv5IL8blUMdfgEIT8pg-27" target="4Fv5IL8blUMdfgEIT8pg-30">
          <mxGeometry relative="1" as="geometry">
            <mxPoint x="128.49999999999977" y="703" as="sourcePoint" />
            <mxPoint x="203" y="685" as="targetPoint" />
          </mxGeometry>
        </mxCell>
        <mxCell id="4Fv5IL8blUMdfgEIT8pg-53" style="rounded=0;orthogonalLoop=1;jettySize=auto;html=1;fontFamily=Manrope;fontSize=12;fontColor=#FFFFFF;endArrow=oval;endFill=1;startArrow=oval;startFill=1;endSize=4;startSize=4;exitX=1;exitY=0.5;exitDx=0;exitDy=0;entryX=0;entryY=0.5;entryDx=0;entryDy=0;dashed=1;dashPattern=1 1;strokeColor=#00C9FF;" edge="1" parent="4Fv5IL8blUMdfgEIT8pg-1" source="4Fv5IL8blUMdfgEIT8pg-29" target="4Fv5IL8blUMdfgEIT8pg-31">
          <mxGeometry relative="1" as="geometry">
            <mxPoint x="93.00999999999999" y="714.125" as="sourcePoint" />
            <mxPoint x="252.5" y="704.125" as="targetPoint" />
          </mxGeometry>
        </mxCell>
        <mxCell id="4Fv5IL8blUMdfgEIT8pg-71" value="sr-eth1" style="rounded=0;whiteSpace=wrap;html=1;fontFamily=Manrope;fontSize=12;fontColor=#FFFFFF;align=center;strokeColor=none;rotation=0;horizontal=1;fillColor=#001135;" vertex="1" parent="4Fv5IL8blUMdfgEIT8pg-1">
          <mxGeometry x="187" y="694" width="44" height="16.25" as="geometry" />
        </mxCell>
        <mxCell id="4Fv5IL8blUMdfgEIT8pg-72" value="sr-eth2" style="rounded=0;whiteSpace=wrap;html=1;fontFamily=Manrope;fontSize=12;fontColor=#FFFFFF;align=center;strokeColor=none;rotation=0;horizontal=1;fillColor=#001135;" vertex="1" parent="4Fv5IL8blUMdfgEIT8pg-1">
          <mxGeometry x="188" y="753" width="44" height="16.25" as="geometry" />
        </mxCell>
        <mxCell id="4Fv5IL8blUMdfgEIT8pg-73" value="&lt;font style=&quot;font-size: 14px;&quot;&gt;VM1&lt;/font&gt;" style="text;html=1;align=center;verticalAlign=middle;resizable=0;points=[];autosize=1;fontSize=14;fontFamily=Manrope;fontStyle=1;" vertex="1" parent="4Fv5IL8blUMdfgEIT8pg-1">
          <mxGeometry x="-86" y="633" width="36" height="21" as="geometry" />
        </mxCell>
        <mxCell id="4Fv5IL8blUMdfgEIT8pg-79" style="edgeStyle=orthogonalEdgeStyle;rounded=0;orthogonalLoop=1;jettySize=auto;html=1;fontFamily=Manrope;fontSize=12;fontColor=#FFFFFF;endArrow=oval;endFill=1;startArrow=oval;startFill=1;dashed=1;dashPattern=1 1;strokeColor=#BEC8D2;endSize=4;startSize=4;exitX=1;exitY=0.5;exitDx=0;exitDy=0;entryX=0;entryY=0.5;entryDx=0;entryDy=0;" edge="1" parent="4Fv5IL8blUMdfgEIT8pg-1" source="4Fv5IL8blUMdfgEIT8pg-30" target="4Fv5IL8blUMdfgEIT8pg-71">
          <mxGeometry relative="1" as="geometry">
            <mxPoint x="162" y="701.97" as="sourcePoint" />
            <mxPoint x="183" y="703" as="targetPoint" />
          </mxGeometry>
        </mxCell>
        <mxCell id="4Fv5IL8blUMdfgEIT8pg-80" style="edgeStyle=orthogonalEdgeStyle;rounded=0;orthogonalLoop=1;jettySize=auto;html=1;fontFamily=Manrope;fontSize=12;fontColor=#FFFFFF;endArrow=oval;endFill=1;startArrow=oval;startFill=1;dashed=1;dashPattern=1 1;strokeColor=#BEC8D2;endSize=4;startSize=4;exitX=1;exitY=0.5;exitDx=0;exitDy=0;entryX=0;entryY=0.5;entryDx=0;entryDy=0;" edge="1" parent="4Fv5IL8blUMdfgEIT8pg-1" target="4Fv5IL8blUMdfgEIT8pg-72">
          <mxGeometry relative="1" as="geometry">
            <mxPoint x="159" y="761.125" as="sourcePoint" />
            <mxPoint x="183" y="761" as="targetPoint" />
          </mxGeometry>
        </mxCell>
        <mxCell id="fP0A4-pi_LU94ZOQAqtj-0" style="rounded=0;orthogonalLoop=1;jettySize=auto;html=1;fontFamily=Manrope;fontSize=12;fontColor=#FFFFFF;endArrow=oval;endFill=1;startArrow=oval;startFill=1;strokeColor=#00C9FF;endSize=4;startSize=4;exitX=1;exitY=0.5;exitDx=0;exitDy=0;dashed=1;dashPattern=1 1;" edge="1" parent="4Fv5IL8blUMdfgEIT8pg-1">
          <mxGeometry relative="1" as="geometry">
            <mxPoint x="-41.48000000000002" y="846.255" as="sourcePoint" />
            <mxPoint x="-4" y="846" as="targetPoint" />
          </mxGeometry>
        </mxCell>
        <mxCell id="fP0A4-pi_LU94ZOQAqtj-1" style="rounded=0;orthogonalLoop=1;jettySize=auto;html=1;fontFamily=Manrope;fontSize=12;fontColor=#FFFFFF;endArrow=oval;endFill=1;startArrow=oval;startFill=1;endSize=4;startSize=4;dashed=1;dashPattern=1 1;strokeColor=#BEC8D2;" edge="1" parent="4Fv5IL8blUMdfgEIT8pg-1">
          <mxGeometry relative="1" as="geometry">
            <mxPoint x="-42" y="863" as="sourcePoint" />
            <mxPoint x="-4.49" y="863" as="targetPoint" />
          </mxGeometry>
        </mxCell>
        <mxCell id="fP0A4-pi_LU94ZOQAqtj-2" value="&lt;font style=&quot;font-size: 10px&quot;&gt;tc-based redirection&lt;/font&gt;" style="text;html=1;align=left;verticalAlign=middle;resizable=0;points=[];autosize=1;fontSize=10;fontFamily=Manrope;fontStyle=0;fontColor=#BEC8D2;" vertex="1" parent="4Fv5IL8blUMdfgEIT8pg-1">
          <mxGeometry x="4.999999999999986" y="837" width="105" height="16" as="geometry" />
        </mxCell>
        <mxCell id="fP0A4-pi_LU94ZOQAqtj-3" value="&lt;font style=&quot;font-size: 10px&quot;&gt;veth link&lt;/font&gt;" style="text;html=1;align=left;verticalAlign=middle;resizable=0;points=[];autosize=1;fontSize=10;fontFamily=Manrope;fontStyle=0;fontColor=#BEC8D2;" vertex="1" parent="4Fv5IL8blUMdfgEIT8pg-1">
          <mxGeometry x="3.0099999999999856" y="853" width="48" height="16" as="geometry" />
        </mxCell>
      </root>
    </mxGraphModel>
  </diagram>
  <diagram name="[9] multi-node" id="mJiM72b07D9c8oGT5v7k">
    <mxGraphModel dx="684" dy="383" grid="0" gridSize="1" guides="1" tooltips="1" connect="1" arrows="1" fold="1" page="0" pageScale="1" pageWidth="827" pageHeight="1169" background="#4D5766" math="0" shadow="0">
      <root>
        <mxCell id="P6DsuElLFwTPUxt64TZc-0" />
        <mxCell id="P6DsuElLFwTPUxt64TZc-1" parent="P6DsuElLFwTPUxt64TZc-0" />
        <mxCell id="HrWerAt_x2Q_pO3LeKzP-0" value="" style="rounded=0;whiteSpace=wrap;html=1;fontSize=12;align=center;strokeColor=none;fontFamily=Manrope;fontSource=https%3A%2F%2Ffonts.googleapis.com%2Fcss%3Ffamily%3DManrope;fontColor=#DDE9F5;allowArrows=0;editable=0;connectable=0;fillColor=#BEC8D2;" vertex="1" parent="P6DsuElLFwTPUxt64TZc-1">
          <mxGeometry x="416" y="392" width="130" height="23" as="geometry" />
        </mxCell>
        <mxCell id="HrWerAt_x2Q_pO3LeKzP-1" value="" style="rounded=0;whiteSpace=wrap;html=1;fontSize=12;align=center;strokeColor=none;fontFamily=Manrope;fontSource=https%3A%2F%2Ffonts.googleapis.com%2Fcss%3Ffamily%3DManrope;fontColor=#DDE9F5;allowArrows=0;editable=0;connectable=0;fillColor=#FFFFFF;" vertex="1" parent="P6DsuElLFwTPUxt64TZc-1">
          <mxGeometry x="416" y="415" width="130" height="103" as="geometry" />
        </mxCell>
        <mxCell id="HrWerAt_x2Q_pO3LeKzP-2" value="&lt;font style=&quot;font-size: 10px&quot;&gt;VM2 &lt;span style=&quot;font-weight: normal&quot;&gt;(10.0.0.20)&lt;/span&gt;&lt;/font&gt;" style="text;html=1;align=center;verticalAlign=middle;resizable=0;points=[];autosize=1;fontSize=10;fontFamily=Manrope;fontStyle=1;" vertex="1" parent="P6DsuElLFwTPUxt64TZc-1">
          <mxGeometry x="440" y="395.5" width="82" height="16" as="geometry" />
        </mxCell>
        <mxCell id="HrWerAt_x2Q_pO3LeKzP-3" value="" style="rounded=0;whiteSpace=wrap;html=1;fontSize=12;align=center;strokeColor=none;fontFamily=Manrope;fontSource=https%3A%2F%2Ffonts.googleapis.com%2Fcss%3Ffamily%3DManrope;fontColor=#DDE9F5;allowArrows=0;editable=0;connectable=0;fillColor=#BEC8D2;" vertex="1" parent="P6DsuElLFwTPUxt64TZc-1">
          <mxGeometry x="164" y="392" width="137" height="23" as="geometry" />
        </mxCell>
        <mxCell id="HrWerAt_x2Q_pO3LeKzP-4" value="" style="rounded=0;whiteSpace=wrap;html=1;fontSize=12;align=center;strokeColor=none;fontFamily=Manrope;fontSource=https%3A%2F%2Ffonts.googleapis.com%2Fcss%3Ffamily%3DManrope;fontColor=#DDE9F5;allowArrows=0;editable=0;connectable=0;fillColor=#FFFFFF;" vertex="1" parent="P6DsuElLFwTPUxt64TZc-1">
          <mxGeometry x="164" y="415" width="137" height="103" as="geometry" />
        </mxCell>
        <mxCell id="HrWerAt_x2Q_pO3LeKzP-5" value="" style="group" vertex="1" connectable="0" parent="P6DsuElLFwTPUxt64TZc-1">
          <mxGeometry x="194" y="435" width="55" height="55.88" as="geometry" />
        </mxCell>
        <mxCell id="HrWerAt_x2Q_pO3LeKzP-6" value="" style="group" vertex="1" connectable="0" parent="HrWerAt_x2Q_pO3LeKzP-5">
          <mxGeometry width="55.00000000000001" height="55.88" as="geometry" />
        </mxCell>
        <mxCell id="HrWerAt_x2Q_pO3LeKzP-7" value="" style="whiteSpace=wrap;html=1;aspect=fixed;fillColor=#001135;strokeColor=none;connectable=1;allowArrows=1;fontFamily=Manrope;fontSource=https%3A%2F%2Ffonts.googleapis.com%2Fcss%3Ffamily%3DManrope;" vertex="1" parent="HrWerAt_x2Q_pO3LeKzP-6">
          <mxGeometry width="53.70526815377313" height="53.70526815377313" as="geometry" />
        </mxCell>
        <mxCell id="HrWerAt_x2Q_pO3LeKzP-8" value="" style="endArrow=open;html=1;edgeStyle=orthogonalEdgeStyle;rounded=0;endFill=0;startSize=6;endSize=2;strokeColor=#FFFFFF;fontFamily=Manrope;fontSource=https%3A%2F%2Ffonts.googleapis.com%2Fcss%3Ffamily%3DManrope;" edge="1" parent="HrWerAt_x2Q_pO3LeKzP-6">
          <mxGeometry width="91.66666666666669" height="93.13333333333333" as="geometry">
            <mxPoint x="5.500000000000002" y="22.352" as="sourcePoint" />
            <mxPoint x="20.16666666666667" y="5.588" as="targetPoint" />
            <Array as="points">
              <mxPoint x="20.16666666666667" y="22.352" />
            </Array>
          </mxGeometry>
        </mxCell>
        <mxCell id="HrWerAt_x2Q_pO3LeKzP-9" value="" style="endArrow=open;html=1;edgeStyle=orthogonalEdgeStyle;rounded=0;endFill=0;startSize=6;endSize=2;strokeColor=#FFFFFF;fontFamily=Manrope;fontSource=https%3A%2F%2Ffonts.googleapis.com%2Fcss%3Ffamily%3DManrope;" edge="1" parent="HrWerAt_x2Q_pO3LeKzP-6">
          <mxGeometry width="91.66666666666669" height="93.13333333333333" as="geometry">
            <mxPoint x="20.16666666666667" y="50.292" as="sourcePoint" />
            <mxPoint x="5.500000000000002" y="35.39066666666667" as="targetPoint" />
            <Array as="points">
              <mxPoint x="20.16666666666667" y="35.39066666666667" />
            </Array>
          </mxGeometry>
        </mxCell>
        <mxCell id="HrWerAt_x2Q_pO3LeKzP-10" value="" style="endArrow=open;html=1;edgeStyle=orthogonalEdgeStyle;rounded=0;endFill=0;startSize=6;endSize=2;strokeColor=#FFFFFF;fontFamily=Manrope;fontSource=https%3A%2F%2Ffonts.googleapis.com%2Fcss%3Ffamily%3DManrope;" edge="1" parent="HrWerAt_x2Q_pO3LeKzP-6">
          <mxGeometry width="91.66666666666669" height="93.13333333333333" as="geometry">
            <mxPoint x="33.00000000000001" y="5.588" as="sourcePoint" />
            <mxPoint x="49.500000000000014" y="22.352" as="targetPoint" />
            <Array as="points">
              <mxPoint x="33.00000000000001" y="22.352" />
            </Array>
          </mxGeometry>
        </mxCell>
        <mxCell id="HrWerAt_x2Q_pO3LeKzP-11" value="" style="endArrow=open;html=1;edgeStyle=orthogonalEdgeStyle;rounded=0;endFill=0;startSize=6;endSize=2;strokeColor=#FFFFFF;fontFamily=Manrope;fontSource=https%3A%2F%2Ffonts.googleapis.com%2Fcss%3Ffamily%3DManrope;" edge="1" parent="HrWerAt_x2Q_pO3LeKzP-6">
          <mxGeometry width="91.66666666666669" height="93.13333333333333" as="geometry">
            <mxPoint x="49.500000000000014" y="35.39066666666667" as="sourcePoint" />
            <mxPoint x="33.00000000000001" y="50.292" as="targetPoint" />
            <Array as="points">
              <mxPoint x="33.00000000000001" y="35.39066666666667" />
            </Array>
          </mxGeometry>
        </mxCell>
        <mxCell id="HrWerAt_x2Q_pO3LeKzP-12" value="&lt;font style=&quot;font-size: 10px&quot;&gt;SR OS&lt;/font&gt;" style="text;html=1;align=center;verticalAlign=middle;resizable=0;points=[];autosize=1;fontSize=10;fontFamily=Manrope;fontStyle=0;fontColor=#001135;" vertex="1" parent="P6DsuElLFwTPUxt64TZc-1">
          <mxGeometry x="202" y="490.88" width="39" height="17" as="geometry" />
        </mxCell>
        <mxCell id="HrWerAt_x2Q_pO3LeKzP-14" value="1/1/1" style="rounded=0;whiteSpace=wrap;html=1;fontFamily=Manrope;fontSize=8;fontColor=#FFFFFF;align=center;strokeColor=none;rotation=0;horizontal=1;fillColor=#4D5766;" vertex="1" parent="P6DsuElLFwTPUxt64TZc-1">
          <mxGeometry x="248" y="445.62" width="23" height="10.5" as="geometry" />
        </mxCell>
        <mxCell id="HrWerAt_x2Q_pO3LeKzP-15" value="1/1/1" style="rounded=0;whiteSpace=wrap;html=1;fontFamily=Manrope;fontSize=8;fontColor=#FFFFFF;align=center;strokeColor=none;rotation=0;horizontal=1;fillColor=#4D5766;" vertex="1" parent="P6DsuElLFwTPUxt64TZc-1">
          <mxGeometry x="248" y="469.88" width="23" height="10.5" as="geometry" />
        </mxCell>
        <mxCell id="HrWerAt_x2Q_pO3LeKzP-17" value="" style="group" vertex="1" connectable="0" parent="P6DsuElLFwTPUxt64TZc-1">
          <mxGeometry x="463" y="435" width="55" height="55.88" as="geometry" />
        </mxCell>
        <mxCell id="HrWerAt_x2Q_pO3LeKzP-18" value="" style="group" vertex="1" connectable="0" parent="HrWerAt_x2Q_pO3LeKzP-17">
          <mxGeometry width="55.00000000000001" height="55.88" as="geometry" />
        </mxCell>
        <mxCell id="HrWerAt_x2Q_pO3LeKzP-19" value="" style="whiteSpace=wrap;html=1;aspect=fixed;fillColor=#001135;strokeColor=none;connectable=1;allowArrows=1;fontFamily=Manrope;fontSource=https%3A%2F%2Ffonts.googleapis.com%2Fcss%3Ffamily%3DManrope;" vertex="1" parent="HrWerAt_x2Q_pO3LeKzP-18">
          <mxGeometry width="53.70526815377313" height="53.70526815377313" as="geometry" />
        </mxCell>
        <mxCell id="HrWerAt_x2Q_pO3LeKzP-20" value="" style="endArrow=open;html=1;edgeStyle=orthogonalEdgeStyle;rounded=0;endFill=0;startSize=6;endSize=2;strokeColor=#FFFFFF;fontFamily=Manrope;fontSource=https%3A%2F%2Ffonts.googleapis.com%2Fcss%3Ffamily%3DManrope;" edge="1" parent="HrWerAt_x2Q_pO3LeKzP-18">
          <mxGeometry width="91.66666666666669" height="93.13333333333333" as="geometry">
            <mxPoint x="5.500000000000002" y="22.352" as="sourcePoint" />
            <mxPoint x="20.16666666666667" y="5.588" as="targetPoint" />
            <Array as="points">
              <mxPoint x="20.16666666666667" y="22.352" />
            </Array>
          </mxGeometry>
        </mxCell>
        <mxCell id="HrWerAt_x2Q_pO3LeKzP-21" value="" style="endArrow=open;html=1;edgeStyle=orthogonalEdgeStyle;rounded=0;endFill=0;startSize=6;endSize=2;strokeColor=#FFFFFF;fontFamily=Manrope;fontSource=https%3A%2F%2Ffonts.googleapis.com%2Fcss%3Ffamily%3DManrope;" edge="1" parent="HrWerAt_x2Q_pO3LeKzP-18">
          <mxGeometry width="91.66666666666669" height="93.13333333333333" as="geometry">
            <mxPoint x="20.16666666666667" y="50.292" as="sourcePoint" />
            <mxPoint x="5.500000000000002" y="35.39066666666667" as="targetPoint" />
            <Array as="points">
              <mxPoint x="20.16666666666667" y="35.39066666666667" />
            </Array>
          </mxGeometry>
        </mxCell>
        <mxCell id="HrWerAt_x2Q_pO3LeKzP-22" value="" style="endArrow=open;html=1;edgeStyle=orthogonalEdgeStyle;rounded=0;endFill=0;startSize=6;endSize=2;strokeColor=#FFFFFF;fontFamily=Manrope;fontSource=https%3A%2F%2Ffonts.googleapis.com%2Fcss%3Ffamily%3DManrope;" edge="1" parent="HrWerAt_x2Q_pO3LeKzP-18">
          <mxGeometry width="91.66666666666669" height="93.13333333333333" as="geometry">
            <mxPoint x="33.00000000000001" y="5.588" as="sourcePoint" />
            <mxPoint x="49.500000000000014" y="22.352" as="targetPoint" />
            <Array as="points">
              <mxPoint x="33.00000000000001" y="22.352" />
            </Array>
          </mxGeometry>
        </mxCell>
        <mxCell id="HrWerAt_x2Q_pO3LeKzP-23" value="" style="endArrow=open;html=1;edgeStyle=orthogonalEdgeStyle;rounded=0;endFill=0;startSize=6;endSize=2;strokeColor=#FFFFFF;fontFamily=Manrope;fontSource=https%3A%2F%2Ffonts.googleapis.com%2Fcss%3Ffamily%3DManrope;" edge="1" parent="HrWerAt_x2Q_pO3LeKzP-18">
          <mxGeometry width="91.66666666666669" height="93.13333333333333" as="geometry">
            <mxPoint x="49.500000000000014" y="35.39066666666667" as="sourcePoint" />
            <mxPoint x="33.00000000000001" y="50.292" as="targetPoint" />
            <Array as="points">
              <mxPoint x="33.00000000000001" y="35.39066666666667" />
            </Array>
          </mxGeometry>
        </mxCell>
        <mxCell id="HrWerAt_x2Q_pO3LeKzP-24" value="&lt;font style=&quot;font-size: 10px&quot;&gt;vMX&lt;/font&gt;" style="text;html=1;align=center;verticalAlign=middle;resizable=0;points=[];autosize=1;fontSize=10;fontFamily=Manrope;fontStyle=0;fontColor=#001135;" vertex="1" parent="P6DsuElLFwTPUxt64TZc-1">
          <mxGeometry x="476" y="491.88" width="30" height="16" as="geometry" />
        </mxCell>
        <mxCell id="HrWerAt_x2Q_pO3LeKzP-26" value="0/0/0" style="rounded=0;whiteSpace=wrap;html=1;fontFamily=Manrope;fontSize=8;fontColor=#FFFFFF;align=center;strokeColor=none;rotation=0;horizontal=1;fillColor=#4D5766;" vertex="1" parent="P6DsuElLFwTPUxt64TZc-1">
          <mxGeometry x="439.5" y="445.62" width="23" height="10.5" as="geometry" />
        </mxCell>
        <mxCell id="HrWerAt_x2Q_pO3LeKzP-27" value="0/0/1" style="rounded=0;whiteSpace=wrap;html=1;fontFamily=Manrope;fontSize=8;fontColor=#FFFFFF;align=center;strokeColor=none;rotation=0;horizontal=1;fillColor=#4D5766;" vertex="1" parent="P6DsuElLFwTPUxt64TZc-1">
          <mxGeometry x="439.5" y="469.88" width="23" height="10.5" as="geometry" />
        </mxCell>
        <mxCell id="HrWerAt_x2Q_pO3LeKzP-29" style="edgeStyle=orthogonalEdgeStyle;rounded=0;orthogonalLoop=1;jettySize=auto;html=1;fontFamily=Manrope;fontSize=12;fontColor=#FFFFFF;endArrow=oval;endFill=1;startArrow=oval;startFill=1;startSize=3;endSize=3;entryX=0;entryY=0.5;entryDx=0;entryDy=0;exitX=1;exitY=0.5;exitDx=0;exitDy=0;strokeColor=#FF3154;" edge="1" parent="P6DsuElLFwTPUxt64TZc-1" source="HrWerAt_x2Q_pO3LeKzP-35" target="HrWerAt_x2Q_pO3LeKzP-26">
          <mxGeometry relative="1" as="geometry">
            <mxPoint x="299" y="449.43" as="sourcePoint" />
            <mxPoint x="433" y="457.37000000000006" as="targetPoint" />
          </mxGeometry>
        </mxCell>
        <mxCell id="HrWerAt_x2Q_pO3LeKzP-30" value="&lt;font style=&quot;font-size: 10px&quot;&gt;VM1 &lt;span style=&quot;font-weight: normal&quot;&gt;(10.0.0.18)&lt;/span&gt;&lt;/font&gt;" style="text;html=1;align=center;verticalAlign=middle;resizable=0;points=[];autosize=1;fontSize=10;fontFamily=Manrope;fontStyle=1;" vertex="1" parent="P6DsuElLFwTPUxt64TZc-1">
          <mxGeometry x="194.5" y="396" width="77" height="16" as="geometry" />
        </mxCell>
        <mxCell id="HrWerAt_x2Q_pO3LeKzP-34" style="edgeStyle=orthogonalEdgeStyle;rounded=0;orthogonalLoop=1;jettySize=auto;html=1;fontFamily=Manrope;fontSize=12;fontColor=#FFFFFF;endArrow=oval;endFill=1;startArrow=oval;startFill=1;startSize=3;endSize=3;entryX=0;entryY=0.5;entryDx=0;entryDy=0;exitX=1;exitY=0.5;exitDx=0;exitDy=0;strokeColor=#124191;" edge="1" parent="P6DsuElLFwTPUxt64TZc-1" source="HrWerAt_x2Q_pO3LeKzP-37" target="HrWerAt_x2Q_pO3LeKzP-27">
          <mxGeometry relative="1" as="geometry">
            <mxPoint x="271" y="470.71000000000004" as="sourcePoint" />
            <mxPoint x="439.5" y="470.71000000000004" as="targetPoint" />
          </mxGeometry>
        </mxCell>
        <mxCell id="HrWerAt_x2Q_pO3LeKzP-35" value="&lt;font style=&quot;font-size: 10px&quot;&gt;VxLAN (VNI 10)&lt;/font&gt;" style="text;html=1;align=center;verticalAlign=middle;resizable=0;points=[];autosize=1;fontSize=10;fontFamily=Manrope;fontStyle=0;fontColor=#BEC8D2;" vertex="1" parent="P6DsuElLFwTPUxt64TZc-1">
          <mxGeometry x="319" y="443" width="77" height="16" as="geometry" />
        </mxCell>
        <mxCell id="HrWerAt_x2Q_pO3LeKzP-36" style="edgeStyle=orthogonalEdgeStyle;rounded=0;orthogonalLoop=1;jettySize=auto;html=1;fontFamily=Manrope;fontSize=12;fontColor=#FFFFFF;endArrow=oval;endFill=1;startArrow=oval;startFill=1;startSize=3;endSize=3;entryX=0;entryY=0.5;entryDx=0;entryDy=0;exitX=1;exitY=0.5;exitDx=0;exitDy=0;strokeColor=#FF3154;" edge="1" parent="P6DsuElLFwTPUxt64TZc-1" source="HrWerAt_x2Q_pO3LeKzP-14" target="HrWerAt_x2Q_pO3LeKzP-35">
          <mxGeometry relative="1" as="geometry">
            <mxPoint x="271" y="450.8700000000002" as="sourcePoint" />
            <mxPoint x="439.5" y="450.8700000000002" as="targetPoint" />
          </mxGeometry>
        </mxCell>
        <mxCell id="HrWerAt_x2Q_pO3LeKzP-37" value="&lt;font style=&quot;font-size: 10px&quot;&gt;VxLAN (VNI 20)&lt;/font&gt;" style="text;html=1;align=center;verticalAlign=middle;resizable=0;points=[];autosize=1;fontSize=10;fontFamily=Manrope;fontStyle=0;fontColor=#BEC8D2;" vertex="1" parent="P6DsuElLFwTPUxt64TZc-1">
          <mxGeometry x="318.59" y="467" width="79" height="16" as="geometry" />
        </mxCell>
        <mxCell id="HrWerAt_x2Q_pO3LeKzP-38" style="edgeStyle=orthogonalEdgeStyle;rounded=0;orthogonalLoop=1;jettySize=auto;html=1;fontFamily=Manrope;fontSize=12;fontColor=#FFFFFF;endArrow=oval;endFill=1;startArrow=oval;startFill=1;startSize=3;endSize=3;entryX=0;entryY=0.5;entryDx=0;entryDy=0;exitX=1;exitY=0.5;exitDx=0;exitDy=0;strokeColor=#124191;" edge="1" parent="P6DsuElLFwTPUxt64TZc-1" source="HrWerAt_x2Q_pO3LeKzP-15" target="HrWerAt_x2Q_pO3LeKzP-37">
          <mxGeometry relative="1" as="geometry">
            <mxPoint x="271" y="475.12999999999994" as="sourcePoint" />
            <mxPoint x="439.5" y="475.12999999999994" as="targetPoint" />
          </mxGeometry>
        </mxCell>
      </root>
    </mxGraphModel>
  </diagram>
  <diagram name="[10] multi-node" id="9Cz9vpeTLmu9cPrxsjm5">
    <mxGraphModel dx="1573" dy="257" grid="0" gridSize="1" guides="1" tooltips="1" connect="1" arrows="1" fold="1" page="0" pageScale="1" pageWidth="827" pageHeight="1169" background="#4D5766" math="0" shadow="0">
      <root>
        <mxCell id="ZYlagNNr1r7ZUP_o3jMB-0" />
        <mxCell id="ZYlagNNr1r7ZUP_o3jMB-1" parent="ZYlagNNr1r7ZUP_o3jMB-0" />
        <mxCell id="ZYlagNNr1r7ZUP_o3jMB-2" value="" style="rounded=0;whiteSpace=wrap;html=1;fontSize=12;align=center;strokeColor=none;fontFamily=Manrope;fontSource=https%3A%2F%2Ffonts.googleapis.com%2Fcss%3Ffamily%3DManrope;fontColor=#DDE9F5;allowArrows=0;editable=0;connectable=0;fillColor=#FFFFFF;" vertex="1" parent="ZYlagNNr1r7ZUP_o3jMB-1">
          <mxGeometry x="472" y="631" width="461" height="178" as="geometry" />
        </mxCell>
        <mxCell id="ZYlagNNr1r7ZUP_o3jMB-3" value="" style="rounded=0;whiteSpace=wrap;html=1;fontSize=12;align=center;strokeColor=none;fontFamily=Manrope;fontSource=https%3A%2F%2Ffonts.googleapis.com%2Fcss%3Ffamily%3DManrope;fontColor=#DDE9F5;allowArrows=0;editable=0;connectable=0;fillColor=#FFFFFF;" vertex="1" parent="ZYlagNNr1r7ZUP_o3jMB-1">
          <mxGeometry x="-89" y="631" width="474" height="178" as="geometry" />
        </mxCell>
        <mxCell id="ZYlagNNr1r7ZUP_o3jMB-4" value="" style="rounded=0;whiteSpace=wrap;html=1;fontSize=12;align=center;strokeColor=none;fontFamily=Manrope;fontSource=https%3A%2F%2Ffonts.googleapis.com%2Fcss%3Ffamily%3DManrope;fontColor=#DDE9F5;fillColor=#BEC8D2;allowArrows=0;editable=0;connectable=0;" vertex="1" parent="ZYlagNNr1r7ZUP_o3jMB-1">
          <mxGeometry x="-53.5" y="660" width="212.5" height="138" as="geometry" />
        </mxCell>
        <mxCell id="ZYlagNNr1r7ZUP_o3jMB-5" value="&lt;font color=&quot;#dde9f5&quot;&gt;netns:&lt;/font&gt;&amp;nbsp;container" style="rounded=0;whiteSpace=wrap;html=1;fontSize=12;align=center;fontFamily=Manrope;fontSource=https%3A%2F%2Ffonts.googleapis.com%2Fcss%3Ffamily%3DManrope;fontColor=#FFFFFF;fillColor=#98A2AE;rotation=0;strokeColor=none;horizontal=0;verticalAlign=middle;allowArrows=0;editable=0;" vertex="1" parent="ZYlagNNr1r7ZUP_o3jMB-1">
          <mxGeometry x="-80" y="660" width="26.5" height="138" as="geometry" />
        </mxCell>
        <mxCell id="ZYlagNNr1r7ZUP_o3jMB-6" value="" style="rounded=0;whiteSpace=wrap;html=1;fontSize=12;align=center;strokeColor=none;fontFamily=Manrope;fontSource=https%3A%2F%2Ffonts.googleapis.com%2Fcss%3Ffamily%3DManrope;fontColor=#DDE9F5;fillColor=#BEC8D2;" vertex="1" parent="ZYlagNNr1r7ZUP_o3jMB-1">
          <mxGeometry x="-39.49000000000001" y="668" width="117.51" height="115" as="geometry" />
        </mxCell>
        <mxCell id="ZYlagNNr1r7ZUP_o3jMB-7" value="" style="rounded=0;whiteSpace=wrap;html=1;fontSize=12;align=center;strokeColor=none;fontFamily=Manrope;fontSource=https%3A%2F%2Ffonts.googleapis.com%2Fcss%3Ffamily%3DManrope;fontColor=#FFFFFF;fillColor=#FFFFFF;" vertex="1" parent="ZYlagNNr1r7ZUP_o3jMB-1">
          <mxGeometry x="-25.49000000000001" y="698" width="87.5" height="74" as="geometry" />
        </mxCell>
        <mxCell id="ZYlagNNr1r7ZUP_o3jMB-8" value="mgmt" style="rounded=0;whiteSpace=wrap;html=1;fontFamily=Manrope;fontSize=12;fontColor=#FFFFFF;align=center;fillColor=#4BDD33;strokeColor=none;" vertex="1" parent="ZYlagNNr1r7ZUP_o3jMB-1">
          <mxGeometry x="-4.490000000000009" y="678" width="43.5" height="20" as="geometry" />
        </mxCell>
        <mxCell id="ZYlagNNr1r7ZUP_o3jMB-9" value="" style="shape=image;verticalLabelPosition=bottom;labelBackgroundColor=#ffffff;verticalAlign=top;aspect=fixed;imageAspect=0;image=data:image/svg+xml,PHN2ZyB4bWxucz0iaHR0cDovL3d3dy53My5vcmcvMjAwMC9zdmciIHhtbG5zOnhsaW5rPSJodHRwOi8vd3d3LnczLm9yZy8xOTk5L3hsaW5rIiB2aWV3Qm94PSIwLjUgMC41IDg0Ljc5Njg3NSAzNC4wMTU2MjUiIGZpbGw9IiNmZmYiIGZpbGwtcnVsZT0iZXZlbm9kZCIgc3Ryb2tlPSIjMDAwIiBzdHJva2UtbGluZWNhcD0icm91bmQiIHN0cm9rZS1saW5lam9pbj0icm91bmQiIGZvbnQtZmFtaWx5PSJSb2JvdG8iIGZvbnQtc2l6ZT0iMTQiIHRleHQtYW5jaG9yPSJtaWRkbGUiIHdpZHRoPSI4NC43OTY4NzUiIGhlaWdodD0iMzQuMDE1NjI1Ij48dXNlIHhsaW5rOmhyZWY9IiNDIiB4PSIuNSIgeT0iLjUiLz48ZGVmcz48c3R5bGU+QGZvbnQtZmFjZXtmb250LWZhbWlseToiUm9ib3RvIjtzcmM6dXJsKGRhdGE6YXBwbGljYXRpb24vZm9udC13b2ZmO2NoYXJzZXQ9dXRmLTg7YmFzZTY0LGQwOUdSZ0FCQUFBQUFBZ2dBQThBQUFBQUM0UUFBaU1TQUFBQUFBQUFBQUFBQUFBQUFBQUFBQUFBQUFCSFVFOVRBQUFCV0FBQUFHTUFBQUNFQmUzdHNrOVRMeklBQUFHOEFBQUFUd0FBQUdCMW14SFFZMjFoY0FBQUFnd0FBQUJUQUFBQldnRGlBeXBqZG5RZ0FBQUNZQUFBQUVnQUFBQklLMzRFdFdad1oyMEFBQUtvQUFBQk9nQUFBYnhmOGhxcloyRnpjQUFBQStRQUFBQU1BQUFBREFBSUFCTm5iSGxtQUFBRDhBQUFBVG9BQUFIRXdkc3BzV2hsWVdRQUFBVXNBQUFBTmdBQUFEWUFFdEd3YUdobFlRQUFCV1FBQUFBYUFBQUFKQWR1QlJSb2JYUjRBQUFGZ0FBQUFCUUFBQUFVRmxBQjNHeHZZMkVBQUFXVUFBQUFEQUFBQUF3QXJnRTZiV0Y0Y0FBQUJhQUFBQUFlQUFBQUlBSVZBYzV1WVcxbEFBQUZ3QUFBQVhRQUFBS0xrSTVOQW5CdmMzUUFBQWMwQUFBQUZBQUFBQ0QvYlFCcGNISmxjQUFBQjBnQUFBRFlBQUFCS1NwMk5qQjRuR05nWkdCZzRHSXdZTEJqWUhGeDh3bGhrRXF1TE1waGtFb3ZTczFta01wSkxNbGprR0pnQWFwaCtQK2ZBYVNXTVR1MUtJK0JBOFFDWXhZR0pqRE5BYVJsd0NyVkdJd1ltTUdpQ01BSUZtRUd5ak9DYVpCZUpyQnVSZ1pHQUd1ekM0c0FlSnhqWUdFcFk5ckR3TXJBd0RxTDFaaUJnVkVlUWpOZlpFaGpZbUJnQUdFSWFHQmdVQmVBTUJWQWhMdS92enVRcGNBUXlzYndqNEVoalgwV0U1RERPQjhreDJMRnVnRXN4d3dBQ0kwSzZRQjRuR05nWUdCbWdHQVpCa1lHRUFnQjhoakJmQllHQ3lETnhjREJ3QVNFQ2d5dURMNE1vZi8vQThYZzdQOFAvKy85diszL2VxaGVLR0JrWXlBSUdBa3JZUURhQ2dITVVKcUZHRTJEQXdBQXNPTU9CUUFBS2dEcEFLUUEvZ0JPQUdBQk1RQ3NBTVVBMUFCOEFDMEFBQUFVL21BQUZBS2JBQ0FESVFBTEJEb0FGQVNOQUJBRnNBQVVCaGdBRlFHbUFCRUd3QUFPQnQ4QUFnQUFBQUI0bkYyUXkwb0RNUmlGRTJlc3JSZHdLUVFoYWFoQ1NYRHZhaGFaZ25Rek9sMGtMcnhnQzdZclgwQ1lqVEJrNGJPYzJjM3Mramg5Q2RGMHFrWGQ1T1NjbjN5Y1B5QnFqRjVtSzByZlhVMC8zMkJPcTE1MGY2ZEJGZWZwM0lBK2FPd28wS0hRaUJRZklScU1icXgwM0hOL05mVjh4SjhmcDRnSHJZYkJ6THNMRHBMYmVUZ25WaUJ4Ykh1ZE9YZXBFYTh4Y1l2eExnQVczNEJGQ3dqdlB6UjIxWmdqT3N2c3RVVmhHQkxqbUJBOHhUS3pXQm9tbk5Qb2JEc0dmWjJmYk5ydUtYU0dHdDBOSWJkSUdJanpmdU9rUU9FOTgyR0RINy84NjJ0Sy9nZko3eUQ4UUZyVEltc25oUlJzSFVnaFJXam9qRVpQalhPYmhvb2lWTnhYNktjYUJ3b3l5S0dxem1uSmZXNmJoTVRrcWU2U2NtSWIwbzlXTDQ1QkJqZ3Y2Mk95emRaYkhpa2taYzNKcmEwa01hd2hNbG9acDc4QVV5eUl0UUFBQUFFQUFnQUlBQUwvL3dBUGVKeGpZTUFCR0JtYUdCaFlnbGczTUhBelJEQnNZSENOMk1DbUw3MlJUY0l1RXN4aEFYSlllT3dpTjNHenNBa0tXVzdnMXQ5aXhlM0Z6UlM3a1lGeEE1ZDJoT0lONlMrUkcxZ0VOakloY2RrRU5uSWd1QWFHaklxQ2lxSlF6UHp1N3dHbUpYOE1tTS85aldOeVlDci9WL1dSZGNQbmYwdGhibUdyQTdxRmp5RVM0aFlHb1BVTU1MY3dBVGxNNkE0RGN6aUFIQTRZaHdmSTRRRTVtWkdCQmVqa1Rld1FpZ3RNR1JoeU1nRmRJU2pNcU13b0RLU1p1QmpMR0VzWXUvNWRsdnRYZnU1ZmhkeS9LNndiZmo5Z1VmZ1Z3TmpIdFA3M1lSYWJ2MEgvaW9CdUFybXY1UDhibGd0QXRnQ0Q3U2FnYVVEenNEZ1Q3QmgwWjI3a1JRa1FRUkVHUlNVR2RhQURSTVNNallRRldTNzh1L3J2Ny85L1Y1Z1pkVG9yLzdLd2J2amorUDdmSzBhK044eW4vdGozTnpOeU1aOEVBRlJIZ1JnQUFBQUJBQUFBQWlNU2N3RHh3VjhQUFBVQUdRZ0FBQUFBQU1Ud0VTNEFBQUFBMVFGUzFnQjAvK3dHZmdXd0FBRUFDUUFDQUFBQUFBQUFlSnhqWUdSZ1lNLzV4d01rbVJnZ2dKRUJGYkFDQUM1WkFZNEFBQU9NQUdRQi9nQUFCSUFBZ2djQ0FJSUZSQUIwQUFBQUJnQU1BRklBb2dEaWVKeGpZR1JnWUdCbEVHUUEwUXhRa28rQmdZbUJjUStJQ1FBRzh3RG5BQUI0bklXU3kwckRRQlNHLzdFWExFb1JCTGZPeW9XUVNTK1VZcnRxYXltRlVpR1ZiZ1NobDZFSnhFNU5Ra3VmeERmeWpkejdKeG1LdWpIRHpIem5QM051RUFCWCtJUkEvcm5jT1F1VWFlVjhoaUphbGd1NHdJUGxJdm5SY2duWGVMSmNwcjYwWE1VOTNoZ2xpaFZhci9pd0xIQ0pMOHRuT0JmQ2NnRTNvbUs1U0w2MVhNS2RhRmt1VTMreFhNV3plQitZM1RFS05uNGlHN1Y2WFk2TTJZUmFqcmNySlh0aEtMM1VGVXRQeHpyYTY3WHl6TklrcG0vQ2RVN3lEODUxRkFkbUt4dXEzbXgzMDV6dDNPdWtYajlKZGgzWFBSd09hckZickh5dFRMUnh3MkNsdDdHTzNjbDRNSnpPaGs1RDFUQ0F3UTVIUkFpd2dZOEVFZzNVVU9lU0dORnJxSWZRdE1iWVlnVkY2bEVKZVh1bnFEaXpORy9OWEh1ZWE3NzBHTDNrVHJqNzNDSFZuNXI4UjUxbjJXSldNYXlkZHFiWVZ4TnRkRTk5dG4vRk9xZll0S3VFczNYNGs3ZzRaRXRoUVdYQktYeG1Wbndac1grWDd3TnFtalhpYkFZWEUwNDd3QkJUekhnNldlWGFOMDVMYnlWNG5HTmdaZ0NELzFrTUtReVlnQlVBS2lRQjFuaWNQYzFQRHNGQUhJYmhHZitwVU5MSWtOQ0dTRVNibEUwWDNUUVJWaGJzU2RoYUVaU1ZjQU54QXpmUXpNWXB4RkVjd0lMZmg5ZzhlVHVkTHhPa3pZQ1pUSElsWkxJcmJ6ZjBRb1lsekd1bzYxcEdIaFgrbjBWTzI3RmJRMFUzMDc1VFJzWHF1c2dwcUhqSGFWWStpNFJyVjBVV2xYU3NYNlZHZmJkWlJDblAyM25abzJJeXJjVHBkYU8zbTRtdWJHWDRTZ1lxTVZUNVdoN0FRdVcrOURRNm00QTlzRFg2TVFCemNBUVg4QUs2OWwzNFdQaFkrRElyYURZWCtFUTlnQzdvOGdRY3dSMjhnSWQ3ZGdrTFlCdUVSN3dCNERKUnlBPT0pIGZvcm1hdCgid29mZiIpOyBmb250LXdlaWdodDpib2xkO2ZvbnQtc3R5bGU6bm9ybWFsO308L3N0eWxlPjxyYWRpYWxHcmFkaWVudCBpZD0iQSIgY3g9IjQ0JSIgY3k9IjM4JSIgZng9IjQ0JSIgZnk9IjM4JSIgcj0iODIlIj48c3RvcCBvZmZzZXQ9IjAlIi8+PHN0b3Agb2Zmc2V0PSIxMDAlIiBzdG9wLW9wYWNpdHk9Ii44OTciLz48L3JhZGlhbEdyYWRpZW50PjxsaW5lYXJHcmFkaWVudCBpZD0iQiIgeDE9IjUwLjQ1JSIgeTE9Ii0wLjI1JSIgeDI9IjUwLjQ1JSIgeTI9Ijk1Ljg5JSI+PHN0b3Agb2Zmc2V0PSIwJSIgc3RvcC1jb2xvcj0iI2ZmZiIvPjxzdG9wIG9mZnNldD0iMTAwJSIgc3RvcC1jb2xvcj0iI2ZmZiIgc3RvcC1vcGFjaXR5PSIwIi8+PC9saW5lYXJHcmFkaWVudD48L2RlZnM+PHN5bWJvbCBpZD0iQyIgb3ZlcmZsb3c9InZpc2libGUiPjxnIHN0cm9rZT0ibm9uZSIgZmlsbC1ydWxlPSJub256ZXJvIj48cGF0aCBkPSJNMTQuMTU5IDBDNi4zNDEgMCAwIDYuMzAyIDAgMTQuMDhzNi4zNDEgMTQuMDggMTQuMTU5IDE0LjA4YTE0LjEzIDE0LjEzIDAgMCAwIDcuMDI0LTEuODUzbC43MzYgMS44NTNoNS43MDlsLTIuMjMzLTUuNTE5YTEzLjk3IDEzLjk3IDAgMCAwIDIuOTE0LTguNTZjMC03Ljc3Ny02LjMzMy0xNC4wOC0xNC4xNTEtMTQuMDh6IiBmaWxsPSJ1cmwoI0EpIi8+PHBhdGggZD0iTTQuNTk4IDguNTI2YzAtNC40NyA0LjE4Mi04LjA2OCA5LjM3Ni04LjA2OHM5LjM3NiAzLjU5OCA5LjM3NiA4LjA2OC00LjE4MiA4LjA2OC05LjM3NiA4LjA2OC05LjM3Ni0zLjU5OC05LjM3Ni04LjA2OHoiIGZpbGw9InVybCgjQikiLz48ZyBmaWxsPSIjMDAwIj48cGF0aCBkPSJNMTMuNzkyIDUuODFhMS42NiAxLjY2IDAgMSAxIDMuMzI4IDAgMS42NiAxLjY2IDAgMSAxLTMuMzI4IDB6Ii8+PHBhdGggZD0iTTEyLjQyIDYuNjA1bDkuNDQxIDEuMzYyLS4yNjUgMS4zNjgtOS40NDEtMS4zNjJ6Ii8+PHBhdGggZD0iTTIwLjkyNyA4LjQwMmgxLjY2NHYuNzM2aC0xLjY2NHoiLz48L2c+PHBhdGggZD0iTTEwLjQwMiAyLjMxNmMtLjAxNC41NTQtLjk4LjA3Mi0xLjAyMS43MDQtMS4wNy0uNDc2LjA4NC43MjgtLjAyNC44NGgtLjAwOGwtLjA3OS0uMDA4Yy0uMDUyLS4wMTgtLjEyNy0uMDUxLS4yMzctLjExOS0uNzQ4LjU5NS0uNzY2IDEuODMzLTEuNTM2IDIuNTE4LS41MDYgMS4wOTEtLjYyOCAyLjI3Ni0uOTk4IDMuNDEzLS4xODIgMS4wOS0uMzQyIDIuMTc5LS4wNzEgMy4yNy4wODEuODg3LS4xNzcgMi4wOTMuNjMzIDIuNzE3IDEuMTk4Ljk4NCAyLjE5MyAyLjIyOSAzLjE5OSAzLjQxM2E0NS4wMyA0NS4wMyAwIDAgMSA0LjIwNSA2LjE5M2MuMDgyLS41MzcuMjc5IDEuMDgxLjY0MSAxLjE4OGwtLjM2NC0zLjA4OGMtLjQtMi42MS0xLjY4Ni00Ljk3OS0yLjE3LTcuNTYzbC0uMDQ3LS4zMzN2LS4zMjRoLS4wNGMtLjE1OS0xLjI3OC0uMjE1LTIuNjUyLjcxMy0zLjY1MS45NDgtLjk1NiAyLjM1OC0xLjE5NyAzLjUtMS44NjEuMjU0LS4xNTIuNTE5LS4yNzIuNzkyLS4zNTYuNzk3LS4yNDQgMS42NDItLjIzNiAyLjQ2My0uMTAzbC4wNC4wMDguMjI5LjA0Yy42MDEuMDUxIDEuODExLjI4OCAyLjAyNy0uMTI3LS44MjktLjcwNi0yLjAyMy0uNjU3LTMuMDMzLS45MzRsLS41NTQtLjA3OS0uOTktLjIyMi0uMjQ2LS4wNjN2LjAwOGwtMy41NC0uNjg5Yy0uMDU1LS4wNTEtLjExMy0uMDk5LS4xNzQtLjE0MmwzLjQ1My40Mjh2LS4wMTZsLjM2NC4wNjN2LjAwN2wyLjQzOS40NTFjLjQyMS4xNTcuODcuMjc1IDEuMjkxLjMwMS42OTUuMTAxIDEuNTc3IDEuMTQgMS44MDYgMS4xODgtLjExMS0xLjA5MS0xLjIwMi0xLjU4LTIuMTA2LTEuOTAxLTEuMDU3LS41MTQtMi42MzYtLjQ5NS0yLjgwMy0xLjkxNmwtLjE0Mi0uMjkzLS40MTItLjU0Ni4wMTYtLjAwOGMtLjU2Mi0uNjYzLTEuMzUzLTEuMTQ2LTIuMTkzLTEuMzMtLjgzNi0uMjg4LTEuNzcxLS41NzQtMi42NTMtLjY4OS0uMjk5Ljg4MS0uNjM0LS42OTgtMS4zNTQtLjIzLS42MzMuMDc1LS41NDQuMjQxLTEuMDE0LS4xNTh6bTQuNTM4IDIuNTc0Yy4yMjktLjAwNi40OS4wMzYuNzUzLjEyNy43LjI0MiAxLjE1Ni43NTEgMS4wMjEgMS4xNHMtLjgxMi41MDMtMS41MTMuMjYxLTEuMTU1LS43NDQtMS4wMjEtMS4xMzNjLjA4NC0uMjQzLjM3OS0uMzg2Ljc2LS4zOTZ6IiBmaWxsPSIjZjYwIi8+PC9nPjx0ZXh0IGZpbGw9IiMwMDAiIGZvbnQtc2l6ZT0iMjQuMjEiIGZvbnQtd2VpZ2h0PSJib2xkIiBzdHJva2U9Im5vbmUiPjx0c3BhbiB4PSI1Ni41NTUiIHk9IjI4LjAwNSI+RU1VPC90c3Bhbj48L3RleHQ+PC9zeW1ib2w+PC9zdmc+;rotation=-90;" vertex="1" parent="ZYlagNNr1r7ZUP_o3jMB-1">
          <mxGeometry x="-33.49000000000001" y="724.5" width="42.5" height="17" as="geometry" />
        </mxCell>
        <mxCell id="ZYlagNNr1r7ZUP_o3jMB-10" value="" style="group" vertex="1" connectable="0" parent="ZYlagNNr1r7ZUP_o3jMB-1">
          <mxGeometry x="2.019999999999982" y="709" width="43" height="42" as="geometry" />
        </mxCell>
        <mxCell id="ZYlagNNr1r7ZUP_o3jMB-11" value="" style="group" vertex="1" connectable="0" parent="ZYlagNNr1r7ZUP_o3jMB-10">
          <mxGeometry width="43" height="42" as="geometry" />
        </mxCell>
        <mxCell id="ZYlagNNr1r7ZUP_o3jMB-12" value="" style="whiteSpace=wrap;html=1;aspect=fixed;fillColor=#001135;strokeColor=none;connectable=1;allowArrows=1;fontFamily=Manrope;fontSource=https%3A%2F%2Ffonts.googleapis.com%2Fcss%3Ffamily%3DManrope;" vertex="1" parent="ZYlagNNr1r7ZUP_o3jMB-11">
          <mxGeometry width="42" height="42" as="geometry" />
        </mxCell>
        <mxCell id="ZYlagNNr1r7ZUP_o3jMB-13" value="" style="endArrow=open;html=1;edgeStyle=orthogonalEdgeStyle;rounded=0;endFill=0;startSize=6;endSize=2;strokeColor=#FFFFFF;fontFamily=Manrope;fontSource=https%3A%2F%2Ffonts.googleapis.com%2Fcss%3Ffamily%3DManrope;" edge="1" parent="ZYlagNNr1r7ZUP_o3jMB-11">
          <mxGeometry width="71.66666666666667" height="70" as="geometry">
            <mxPoint x="4.3" y="16.8" as="sourcePoint" />
            <mxPoint x="15.76666666666667" y="4.2" as="targetPoint" />
            <Array as="points">
              <mxPoint x="15.76666666666667" y="16.8" />
            </Array>
          </mxGeometry>
        </mxCell>
        <mxCell id="ZYlagNNr1r7ZUP_o3jMB-14" value="" style="endArrow=open;html=1;edgeStyle=orthogonalEdgeStyle;rounded=0;endFill=0;startSize=6;endSize=2;strokeColor=#FFFFFF;fontFamily=Manrope;fontSource=https%3A%2F%2Ffonts.googleapis.com%2Fcss%3Ffamily%3DManrope;" edge="1" parent="ZYlagNNr1r7ZUP_o3jMB-11">
          <mxGeometry width="71.66666666666667" height="70" as="geometry">
            <mxPoint x="15.76666666666667" y="37.8" as="sourcePoint" />
            <mxPoint x="4.3" y="26.6" as="targetPoint" />
            <Array as="points">
              <mxPoint x="15.76666666666667" y="26.6" />
            </Array>
          </mxGeometry>
        </mxCell>
        <mxCell id="ZYlagNNr1r7ZUP_o3jMB-15" value="" style="endArrow=open;html=1;edgeStyle=orthogonalEdgeStyle;rounded=0;endFill=0;startSize=6;endSize=2;strokeColor=#FFFFFF;fontFamily=Manrope;fontSource=https%3A%2F%2Ffonts.googleapis.com%2Fcss%3Ffamily%3DManrope;" edge="1" parent="ZYlagNNr1r7ZUP_o3jMB-11">
          <mxGeometry width="71.66666666666667" height="70" as="geometry">
            <mxPoint x="25.8" y="4.2" as="sourcePoint" />
            <mxPoint x="38.7" y="16.8" as="targetPoint" />
            <Array as="points">
              <mxPoint x="25.8" y="16.8" />
            </Array>
          </mxGeometry>
        </mxCell>
        <mxCell id="ZYlagNNr1r7ZUP_o3jMB-16" value="" style="endArrow=open;html=1;edgeStyle=orthogonalEdgeStyle;rounded=0;endFill=0;startSize=6;endSize=2;strokeColor=#FFFFFF;fontFamily=Manrope;fontSource=https%3A%2F%2Ffonts.googleapis.com%2Fcss%3Ffamily%3DManrope;" edge="1" parent="ZYlagNNr1r7ZUP_o3jMB-11">
          <mxGeometry width="71.66666666666667" height="70" as="geometry">
            <mxPoint x="38.7" y="26.6" as="sourcePoint" />
            <mxPoint x="25.8" y="37.8" as="targetPoint" />
            <Array as="points">
              <mxPoint x="25.8" y="26.6" />
            </Array>
          </mxGeometry>
        </mxCell>
        <mxCell id="ZYlagNNr1r7ZUP_o3jMB-17" value="&lt;font style=&quot;font-size: 10px&quot;&gt;SR OS&lt;/font&gt;" style="text;html=1;align=center;verticalAlign=middle;resizable=0;points=[];autosize=1;fontSize=10;fontFamily=Manrope;fontStyle=0;fontColor=#BEC8D2;" vertex="1" parent="ZYlagNNr1r7ZUP_o3jMB-1">
          <mxGeometry x="3.009999999999991" y="749" width="39" height="17" as="geometry" />
        </mxCell>
        <mxCell id="ZYlagNNr1r7ZUP_o3jMB-18" value="1/1/1" style="rounded=0;whiteSpace=wrap;html=1;fontFamily=Manrope;fontSize=12;fontColor=#FFFFFF;align=center;strokeColor=none;rotation=0;horizontal=1;fillColor=#001135;" vertex="1" parent="ZYlagNNr1r7ZUP_o3jMB-1">
          <mxGeometry x="62.00999999999999" y="710.25" width="30" height="16.25" as="geometry" />
        </mxCell>
        <mxCell id="ZYlagNNr1r7ZUP_o3jMB-19" value="" style="shape=image;verticalLabelPosition=bottom;labelBackgroundColor=#ffffff;verticalAlign=top;aspect=fixed;imageAspect=0;image=data:image/svg+xml,PHN2ZyB4bWxucz0iaHR0cDovL3d3dy53My5vcmcvMjAwMC9zdmciIHhtbG5zOnhsaW5rPSJodHRwOi8vd3d3LnczLm9yZy8xOTk5L3hsaW5rIiB2aWV3Qm94PSIwLjUgMC41IDQ3LjA5NzAwMDEyMjA3MDMxIDI2Ljc0Mzk5OTQ4MTIwMTE3MiIgZmlsbD0iI2ZmZiIgZmlsbC1ydWxlPSJldmVub2RkIiBzdHJva2U9IiMwMDAiIHN0cm9rZS1saW5lY2FwPSJyb3VuZCIgc3Ryb2tlLWxpbmVqb2luPSJyb3VuZCIgd2lkdGg9IjQ3LjA5NzAwMDEyMjA3MDMxIiBoZWlnaHQ9IjI2Ljc0Mzk5OTQ4MTIwMTE3MiI+PHN0eWxlPi5Ce2ZpbGwtcnVsZTpub256ZXJvfS5De2ZpbGw6IzAwMH0uRHtzdHJva2U6bm9uZX0uRXtzdHJva2U6IzM5NGQ1NH0uRntzdHJva2UtbGluZWpvaW46bWl0ZXJ9Lkd7c3Ryb2tlLWxpbmVjYXA6YnV0dH0uSHtzdHJva2Utd2lkdGg6LjI4OH0uSXtmaWxsOiMwMGFjZDN9Lkp7ZmlsbDojMjBjMmVmfTwvc3R5bGU+PHVzZSB4bGluazpocmVmPSIjQSIgeD0iLjUiIHk9Ii41Ii8+PHN5bWJvbCBpZD0iQSIgb3ZlcmZsb3c9InZpc2libGUiPjxnIGNsYXNzPSJEIj48cGF0aCBkPSJNMjcuMjM1IDguNDQ1aDQuMjIydjQuMzE2aDIuMTM1Yy45ODYgMCAyLS4xNzUgMi45MzQtLjQ5Mi40NTktLjE1NS45NzQtLjM3MiAxLjQyNi0uNjQ2LS41OTYtLjc3OC0uOS0xLjc2MS0uOTktMi43MjktLjEyMi0xLjMxNy4xNDQtMy4wMzIgMS4wMzQtNC4wNjNsLjQ0NC0uNTEzLjUyOS40MjVjMS4zMyAxLjA3IDIuNDUyIDIuNTY3IDIuNjQ5IDQuMjY5IDEuNjAzLS40NzIgMy40ODYtLjM2IDQuODk5LjQ1NmwuNTguMzM1LS4zMDUuNTk2Yy0xLjE5NCAyLjMzNS0zLjY5MyAzLjA1Ny02LjEzNiAyLjkyOS0zLjY1NiA5LjEwNC0xMS42MTQgMTMuNDE2LTIxLjI2NSAxMy40MTYtNC45ODYgMC05LjU2LTEuODY0LTEyLjE2NS02LjI4Ny0uMTUzLS4yNzUtLjI4My0uNTYyLS40MjItLjg0NC0uODgtMS45NDctMS4xNzMtNC4wOC0uOTc1LTYuMjExbC4wNTktLjYzOGgzLjYxMVY4LjQ0NWg0LjIyMlY0LjIyMmg4LjQ0NVYwaDUuMDY3djguNDQ1IiBmaWxsPSIjMzk0ZDU0IiBjbGFzcz0iQiIvPjxwYXRoIGZpbGw9IiMxN2I1ZWIiIGQ9Ik00Ni4xNjcgMTAuMDY5Yy0xLjA5MiAyLjEzMy0zLjQ4MyAyLjc3Mi01Ljk3NSAyLjUxNy0zLjUxMyA5LjMwOC0xMS40NSAxMy40NTEtMjAuODAzIDEzLjQ1MS00LjIyMyAwLTcuODgxLTEuMzMtMTAuMzM1LTQuMDg1LS4xNDUtLjIwNC0uMjI4LS4zNzQtLjQ1Ni0uNjgxLS4yMTgtLjI5My0uNDI5LS41OTItLjYwOC0uOTFsLS4zMzktLjYwOGMtLjkyOC0xLjgyNS0xLjMzMi0zLjk1OS0xLjExOC02LjI4OGgyNy4wNThjMi4yMjMgMCA0LjM5NC0uODI5IDUuNDI1LTEuNzQ1LTEuODQ2LTEuNTAxLTEuNjYzLTUuMDY3LS40ODctNi40MjcgMS4wMjEuODIgMi42NjggMi41NDkgMi4zODMgNC43NSAxLjI4Ni0uNjQ4IDMuNTE2LS45NjkgNS4yNTQuMDI2eiIvPjxwYXRoIGQ9Ik0yMi44NzIuNzA0aDMuNjZ2My42NmgtMy42NnoiIGNsYXNzPSJCIEoiLz48L2c+PHVzZSB4bGluazpocmVmPSIjQyIgY2xhc3M9IkIgQyBFIEYgRyBIIi8+PHBhdGggZD0iTTEwLjIwNSAxMi44MWgzLjY2VjkuMTUxaC0zLjY2eiIgY2xhc3M9IkIgRCBJIi8+PHVzZSB4bGluazpocmVmPSIjRCIgY2xhc3M9IkIgQyBFIEYgRyBIIi8+PGcgY2xhc3M9IkQiPjxwYXRoIGQ9Ik0xNC40MjcgNC45MjRoMy42NnYzLjY1OWgtMy42NnoiIGNsYXNzPSJCIEkiLz48cGF0aCBkPSJNMTQuNDI3IDkuMTQ4aDMuNjZ2My42NmgtMy42NnoiIGNsYXNzPSJCIEoiLz48L2c+PGcgY2xhc3M9IkMgRSBGIEcgSCI+PHVzZSB4bGluazpocmVmPSIjQyIgeD0iLTguNDQ1IiB5PSI0LjIyMyIgY2xhc3M9IkIiLz48dXNlIHhsaW5rOmhyZWY9IiNDIiB4PSItOC40NDUiIHk9IjguNDQ1IiBjbGFzcz0iQiIvPjwvZz48ZyBjbGFzcz0iRCI+PHBhdGggZD0iTTE4LjY0OSAxMi44MWgzLjY2VjkuMTUxaC0zLjY2eiIgY2xhc3M9IkIgSSIvPjxwYXRoIGQ9Ik0xOC42NDkgOC41ODZoMy42NnYtMy42NmgtMy42NnoiIGNsYXNzPSJCIEoiLz48L2c+PGcgY2xhc3M9IkMgRSBGIEcgSCI+PHVzZSB4bGluazpocmVmPSIjRCIgeD0iOC40NDUiIGNsYXNzPSJCIi8+PHVzZSB4bGluazpocmVmPSIjRCIgeD0iOC40NDUiIHk9Ii00LjIyMiIgY2xhc3M9IkIiLz48L2c+PGcgY2xhc3M9IkQiPjxwYXRoIGQ9Ik0yMi44NzIgNC45MjRoMy42NnYzLjY1OWgtMy42NnoiIGNsYXNzPSJCIEkiLz48cGF0aCBkPSJNMjIuODcyIDkuMTQ4aDMuNjZ2My42NmgtMy42NnoiIGNsYXNzPSJCIEoiLz48L2c+PGcgY2xhc3M9IkMgRSBGIEcgSCI+PHVzZSB4bGluazpocmVmPSIjQyIgeT0iNC4yMjMiIGNsYXNzPSJCIi8+PHVzZSB4bGluazpocmVmPSIjQyIgeT0iOC40NDUiIGNsYXNzPSJCIi8+PC9nPjxwYXRoIGQ9Ik0yNy4wOTQgMTIuODFoMy42NlY5LjE1MWgtMy42NnoiIGNsYXNzPSJCIEQgSSIvPjx1c2UgeGxpbms6aHJlZj0iI0QiIHg9IjE2Ljg4OSIgY2xhc3M9IkIgQyBFIEYgRyBIIi8+PGcgY2xhc3M9IkQiPjxwYXRoIGQ9Ik0xOC44NjYgMTkuNzUxYTEuMDEgMS4wMSAwIDAgMS0xLjAxIDEuMDEgMS4wMSAxLjAxIDAgMCAxLTEuMDEtMS4wMSAxLjAxIDEuMDEgMCAwIDEgMS4wMS0xLjAxIDEuMDEgMS4wMSAwIDAgMSAxLjAxIDEuMDF6IiBmaWxsPSIjZDRlZGYxIiBjbGFzcz0iQiIvPjxwYXRoIGQ9Ik0xOC4xMTkgMTkuMDc3Yy0uMTE1LjA2Ny0uMTcxLjIwMy0uMTM2LjMzMXMuMTUxLjIxOC4yODQuMjE5Yy4xMTIgMCAuMjA5LS4wNjIuMjU5LS4xNTRhLjcyLjcyIDAgMCAxIC4wNTUuMjc3YzAgLjM5OS0uMzI0LjcyMy0uNzIzLjcyM3MtLjcyMy0uMzI0LS43MjMtLjcyMy4zMjQtLjcyMy43MjMtLjcyM2EuNzIuNzIgMCAwIDEgLjI2Mi4wNDl6TTAgMTYuNjQ5aDQ2Ljk2NGMtMS4wMjMtLjI1OS0zLjIzNS0uNjEtMi44NzEtMS45NS0xLjg2IDIuMTUyLTYuMzQ0IDEuNTA5LTcuNDc1LjQ0OS0xLjI2IDEuODI4LTguNTk3IDEuMTMzLTkuMTA4LS4yOTEtMS41OCAxLjg1NC02LjQ3NSAxLjg1NC04LjA1NSAwLS41MTIgMS40MjItNy44NDggMi4xMTktOS4xMDkuMjkxLTEuMTMyIDEuMDYxLTUuNjE0IDEuNzAzLTcuNDc1LS40NDkuMzY1IDEuMzQtMS44NDggMS42OTEtMi44NzEgMS45NSIgZmlsbD0iIzM5NGQ1NCIgY2xhc3M9IkIiLz48cGF0aCBkPSJNNy45OSAyMC4zNjFsLS4zMzktLjYwOGMtLjUxOC0xLjAxNy0uODcyLTIuMTMxLTEuMDQ4LTMuMzE4aDMxLjcxNWMtNC4wNTcgNi42MS0xMC45ODMgOS42MDItMTguOTMgOS42MDItNC4yMjMgMC03Ljg4MS0xLjMzLTEwLjMzNS00LjA4NS0uMTQ1LS4yMDQtLjIyOC0uMzc0LS40NTYtLjY4MS0uMjE4LS4yOTMtLjQyOS0uNTkyLS42MDgtLjkxeiIgZmlsbC1vcGFjaXR5PSIuMTciIGNsYXNzPSJDIi8+PHBhdGggZmlsbD0iI2Q0ZWRmMSIgZD0iTTIwLjU0MSAyNi4wMThjLTIuNS0xLjE4Ny0zLjg3My0yLjgtNC42MzYtNC41NmwtNi45NzYuMzA0LjEyNS4xODljMi40NTQgMi43NTYgNi4xMTIgNC4wODUgMTAuMzM1IDQuMDg1YTMwLjkyIDMwLjkyIDAgMCAwIDEuMTQ2LS4wMjFsLjA0My0uMDAyIi8+PHBhdGggZD0iTTQxLjA4NyA5Ljk1OWMxLjMwNS0uNTg5IDMuNDE4LS44NDEgNS4wNzguMTE3LTEuMDg5IDIuMTI3LTMuNDggMi43NjYtNS45NzMgMi41MS0zLjUxMyA5LjMwOC0xMS40NSAxMy40NTEtMjAuODAzIDEzLjQ1MS00LjIyMyAwLTcuODgxLTEuMzMtMTAuMzM1LTQuMDg1LS4xNDUtLjIwNC0uMjI4LS4zNzQtLjQ1Ni0uNjgxLS4yMTgtLjI5My0uNDI5LS41OTItLjYwOC0uOTFsLS4zMzktLjYwOGMtLjkyOC0xLjgyNS0xLjMzMi0zLjk1OS0xLjExOC02LjI5aDEuNjAzYy0uMTEgMy41NTQgMS4yMDQgNi4yNTIgMy41MzcgNy44ODNsMS4wMTYuNjEyYzMuMTgzIDEuNjMyIDcuNzk2IDEuNjIzIDEzLjA4OC0uNDEgNS45MzItMi4yNzkgMTEuNDU3LTYuNjE0IDE1LjMxNi0xMS41OTJsLS4wMDcuMDEiIGZpbGwtb3BhY2l0eT0iLjE0IiBjbGFzcz0iQyIvPjwvZz48cGF0aCBkPSJNOC40MjUgMjEuNjExYzIuNjE2LjE0MyA1LjQwNy4xNjkgNy44NDItLjU5NSIgZmlsbD0ibm9uZSIgc3Ryb2tlLXdpZHRoPSIuNjI4IiBjbGFzcz0iRSBGIi8+PC9zeW1ib2w+PGRlZnM+PHBhdGggaWQ9IkMiIGQ9Ik0yMy4zMjEgNC4wNTh2LTMuMDVtLjU0OSAzLjA1di0zLjA1bS41NTQgMy4wNXYtMy4wNW0uNTU1IDMuMDV2LTMuMDVtLjU1NSAzLjA1di0zLjA1bS41NDggMy4wNXYtMy4wNSIvPjxwYXRoIGlkPSJEIiBkPSJNMTAuNjU0IDkuNDUzdjMuMDVtLjU0OS0zLjA1djMuMDVtLjU1NC0zLjA1djMuMDVtLjU1NS0zLjA1djMuMDVtLjU1NS0zLjA1djMuMDVtLjU0OC0zLjA1djMuMDUiLz48L2RlZnM+PC9zdmc+;" vertex="1" parent="ZYlagNNr1r7ZUP_o3jMB-1">
          <mxGeometry x="-51.00000000000003" y="663" width="29.59" height="17" as="geometry" />
        </mxCell>
        <mxCell id="ZYlagNNr1r7ZUP_o3jMB-20" value="1/1/2" style="rounded=0;whiteSpace=wrap;html=1;fontFamily=Manrope;fontSize=12;fontColor=#FFFFFF;align=center;strokeColor=none;rotation=0;horizontal=1;fillColor=#001135;" vertex="1" parent="ZYlagNNr1r7ZUP_o3jMB-1">
          <mxGeometry x="63.00999999999999" y="742" width="30" height="16.25" as="geometry" />
        </mxCell>
        <mxCell id="ZYlagNNr1r7ZUP_o3jMB-21" value="eth1" style="rounded=0;whiteSpace=wrap;html=1;fontFamily=Manrope;fontSize=12;fontColor=#FFFFFF;align=center;strokeColor=none;rotation=0;horizontal=1;fillColor=#00C9FF;" vertex="1" parent="ZYlagNNr1r7ZUP_o3jMB-1">
          <mxGeometry x="129" y="695" width="30" height="16.25" as="geometry" />
        </mxCell>
        <mxCell id="ZYlagNNr1r7ZUP_o3jMB-22" value="eth2" style="rounded=0;whiteSpace=wrap;html=1;fontFamily=Manrope;fontSize=12;fontColor=#FFFFFF;align=center;strokeColor=none;rotation=0;horizontal=1;fillColor=#00C9FF;" vertex="1" parent="ZYlagNNr1r7ZUP_o3jMB-1">
          <mxGeometry x="129" y="753" width="30" height="16.25" as="geometry" />
        </mxCell>
        <mxCell id="ZYlagNNr1r7ZUP_o3jMB-23" style="rounded=0;orthogonalLoop=1;jettySize=auto;html=1;fontFamily=Manrope;fontSize=12;fontColor=#FFFFFF;endArrow=oval;endFill=1;startArrow=oval;startFill=1;strokeColor=#00C9FF;endSize=4;startSize=4;exitX=1;exitY=0.5;exitDx=0;exitDy=0;entryX=0;entryY=0.5;entryDx=0;entryDy=0;dashed=1;dashPattern=1 1;" edge="1" parent="ZYlagNNr1r7ZUP_o3jMB-1" source="ZYlagNNr1r7ZUP_o3jMB-18" target="ZYlagNNr1r7ZUP_o3jMB-21">
          <mxGeometry relative="1" as="geometry">
            <mxPoint x="128.49999999999977" y="703" as="sourcePoint" />
            <mxPoint x="203" y="685" as="targetPoint" />
          </mxGeometry>
        </mxCell>
        <mxCell id="ZYlagNNr1r7ZUP_o3jMB-24" value="" style="rounded=0;whiteSpace=wrap;html=1;fontSize=12;align=center;strokeColor=none;fontFamily=Manrope;fontSource=https%3A%2F%2Ffonts.googleapis.com%2Fcss%3Ffamily%3DManrope;fontColor=#DDE9F5;fillColor=#BEC8D2;" vertex="1" parent="ZYlagNNr1r7ZUP_o3jMB-1">
          <mxGeometry x="720" y="658" width="176" height="139" as="geometry" />
        </mxCell>
        <mxCell id="ZYlagNNr1r7ZUP_o3jMB-25" value="" style="rounded=0;whiteSpace=wrap;html=1;fontSize=12;align=center;strokeColor=none;fontFamily=Manrope;fontSource=https%3A%2F%2Ffonts.googleapis.com%2Fcss%3Ffamily%3DManrope;fontColor=#FFFFFF;fillColor=#FFFFFF;" vertex="1" parent="ZYlagNNr1r7ZUP_o3jMB-1">
          <mxGeometry x="795" y="697" width="88" height="74" as="geometry" />
        </mxCell>
        <mxCell id="ZYlagNNr1r7ZUP_o3jMB-26" value="mgmt" style="rounded=0;whiteSpace=wrap;html=1;fontFamily=Manrope;fontSize=12;fontColor=#FFFFFF;align=center;fillColor=#4BDD33;strokeColor=none;" vertex="1" parent="ZYlagNNr1r7ZUP_o3jMB-1">
          <mxGeometry x="817" y="677" width="43.5" height="20" as="geometry" />
        </mxCell>
        <mxCell id="ZYlagNNr1r7ZUP_o3jMB-27" value="" style="shape=image;verticalLabelPosition=bottom;labelBackgroundColor=#ffffff;verticalAlign=top;aspect=fixed;imageAspect=0;image=data:image/svg+xml,PHN2ZyB4bWxucz0iaHR0cDovL3d3dy53My5vcmcvMjAwMC9zdmciIHhtbG5zOnhsaW5rPSJodHRwOi8vd3d3LnczLm9yZy8xOTk5L3hsaW5rIiB2aWV3Qm94PSIwLjUgMC41IDQ3LjA5NzAwMDEyMjA3MDMxIDI2Ljc0Mzk5OTQ4MTIwMTE3MiIgZmlsbD0iI2ZmZiIgZmlsbC1ydWxlPSJldmVub2RkIiBzdHJva2U9IiMwMDAiIHN0cm9rZS1saW5lY2FwPSJyb3VuZCIgc3Ryb2tlLWxpbmVqb2luPSJyb3VuZCIgd2lkdGg9IjQ3LjA5NzAwMDEyMjA3MDMxIiBoZWlnaHQ9IjI2Ljc0Mzk5OTQ4MTIwMTE3MiI+PHN0eWxlPi5Ce2ZpbGwtcnVsZTpub256ZXJvfS5De2ZpbGw6IzAwMH0uRHtzdHJva2U6bm9uZX0uRXtzdHJva2U6IzM5NGQ1NH0uRntzdHJva2UtbGluZWpvaW46bWl0ZXJ9Lkd7c3Ryb2tlLWxpbmVjYXA6YnV0dH0uSHtzdHJva2Utd2lkdGg6LjI4OH0uSXtmaWxsOiMwMGFjZDN9Lkp7ZmlsbDojMjBjMmVmfTwvc3R5bGU+PHVzZSB4bGluazpocmVmPSIjQSIgeD0iLjUiIHk9Ii41Ii8+PHN5bWJvbCBpZD0iQSIgb3ZlcmZsb3c9InZpc2libGUiPjxnIGNsYXNzPSJEIj48cGF0aCBkPSJNMjcuMjM1IDguNDQ1aDQuMjIydjQuMzE2aDIuMTM1Yy45ODYgMCAyLS4xNzUgMi45MzQtLjQ5Mi40NTktLjE1NS45NzQtLjM3MiAxLjQyNi0uNjQ2LS41OTYtLjc3OC0uOS0xLjc2MS0uOTktMi43MjktLjEyMi0xLjMxNy4xNDQtMy4wMzIgMS4wMzQtNC4wNjNsLjQ0NC0uNTEzLjUyOS40MjVjMS4zMyAxLjA3IDIuNDUyIDIuNTY3IDIuNjQ5IDQuMjY5IDEuNjAzLS40NzIgMy40ODYtLjM2IDQuODk5LjQ1NmwuNTguMzM1LS4zMDUuNTk2Yy0xLjE5NCAyLjMzNS0zLjY5MyAzLjA1Ny02LjEzNiAyLjkyOS0zLjY1NiA5LjEwNC0xMS42MTQgMTMuNDE2LTIxLjI2NSAxMy40MTYtNC45ODYgMC05LjU2LTEuODY0LTEyLjE2NS02LjI4Ny0uMTUzLS4yNzUtLjI4My0uNTYyLS40MjItLjg0NC0uODgtMS45NDctMS4xNzMtNC4wOC0uOTc1LTYuMjExbC4wNTktLjYzOGgzLjYxMVY4LjQ0NWg0LjIyMlY0LjIyMmg4LjQ0NVYwaDUuMDY3djguNDQ1IiBmaWxsPSIjMzk0ZDU0IiBjbGFzcz0iQiIvPjxwYXRoIGZpbGw9IiMxN2I1ZWIiIGQ9Ik00Ni4xNjcgMTAuMDY5Yy0xLjA5MiAyLjEzMy0zLjQ4MyAyLjc3Mi01Ljk3NSAyLjUxNy0zLjUxMyA5LjMwOC0xMS40NSAxMy40NTEtMjAuODAzIDEzLjQ1MS00LjIyMyAwLTcuODgxLTEuMzMtMTAuMzM1LTQuMDg1LS4xNDUtLjIwNC0uMjI4LS4zNzQtLjQ1Ni0uNjgxLS4yMTgtLjI5My0uNDI5LS41OTItLjYwOC0uOTFsLS4zMzktLjYwOGMtLjkyOC0xLjgyNS0xLjMzMi0zLjk1OS0xLjExOC02LjI4OGgyNy4wNThjMi4yMjMgMCA0LjM5NC0uODI5IDUuNDI1LTEuNzQ1LTEuODQ2LTEuNTAxLTEuNjYzLTUuMDY3LS40ODctNi40MjcgMS4wMjEuODIgMi42NjggMi41NDkgMi4zODMgNC43NSAxLjI4Ni0uNjQ4IDMuNTE2LS45NjkgNS4yNTQuMDI2eiIvPjxwYXRoIGQ9Ik0yMi44NzIuNzA0aDMuNjZ2My42NmgtMy42NnoiIGNsYXNzPSJCIEoiLz48L2c+PHVzZSB4bGluazpocmVmPSIjQyIgY2xhc3M9IkIgQyBFIEYgRyBIIi8+PHBhdGggZD0iTTEwLjIwNSAxMi44MWgzLjY2VjkuMTUxaC0zLjY2eiIgY2xhc3M9IkIgRCBJIi8+PHVzZSB4bGluazpocmVmPSIjRCIgY2xhc3M9IkIgQyBFIEYgRyBIIi8+PGcgY2xhc3M9IkQiPjxwYXRoIGQ9Ik0xNC40MjcgNC45MjRoMy42NnYzLjY1OWgtMy42NnoiIGNsYXNzPSJCIEkiLz48cGF0aCBkPSJNMTQuNDI3IDkuMTQ4aDMuNjZ2My42NmgtMy42NnoiIGNsYXNzPSJCIEoiLz48L2c+PGcgY2xhc3M9IkMgRSBGIEcgSCI+PHVzZSB4bGluazpocmVmPSIjQyIgeD0iLTguNDQ1IiB5PSI0LjIyMyIgY2xhc3M9IkIiLz48dXNlIHhsaW5rOmhyZWY9IiNDIiB4PSItOC40NDUiIHk9IjguNDQ1IiBjbGFzcz0iQiIvPjwvZz48ZyBjbGFzcz0iRCI+PHBhdGggZD0iTTE4LjY0OSAxMi44MWgzLjY2VjkuMTUxaC0zLjY2eiIgY2xhc3M9IkIgSSIvPjxwYXRoIGQ9Ik0xOC42NDkgOC41ODZoMy42NnYtMy42NmgtMy42NnoiIGNsYXNzPSJCIEoiLz48L2c+PGcgY2xhc3M9IkMgRSBGIEcgSCI+PHVzZSB4bGluazpocmVmPSIjRCIgeD0iOC40NDUiIGNsYXNzPSJCIi8+PHVzZSB4bGluazpocmVmPSIjRCIgeD0iOC40NDUiIHk9Ii00LjIyMiIgY2xhc3M9IkIiLz48L2c+PGcgY2xhc3M9IkQiPjxwYXRoIGQ9Ik0yMi44NzIgNC45MjRoMy42NnYzLjY1OWgtMy42NnoiIGNsYXNzPSJCIEkiLz48cGF0aCBkPSJNMjIuODcyIDkuMTQ4aDMuNjZ2My42NmgtMy42NnoiIGNsYXNzPSJCIEoiLz48L2c+PGcgY2xhc3M9IkMgRSBGIEcgSCI+PHVzZSB4bGluazpocmVmPSIjQyIgeT0iNC4yMjMiIGNsYXNzPSJCIi8+PHVzZSB4bGluazpocmVmPSIjQyIgeT0iOC40NDUiIGNsYXNzPSJCIi8+PC9nPjxwYXRoIGQ9Ik0yNy4wOTQgMTIuODFoMy42NlY5LjE1MWgtMy42NnoiIGNsYXNzPSJCIEQgSSIvPjx1c2UgeGxpbms6aHJlZj0iI0QiIHg9IjE2Ljg4OSIgY2xhc3M9IkIgQyBFIEYgRyBIIi8+PGcgY2xhc3M9IkQiPjxwYXRoIGQ9Ik0xOC44NjYgMTkuNzUxYTEuMDEgMS4wMSAwIDAgMS0xLjAxIDEuMDEgMS4wMSAxLjAxIDAgMCAxLTEuMDEtMS4wMSAxLjAxIDEuMDEgMCAwIDEgMS4wMS0xLjAxIDEuMDEgMS4wMSAwIDAgMSAxLjAxIDEuMDF6IiBmaWxsPSIjZDRlZGYxIiBjbGFzcz0iQiIvPjxwYXRoIGQ9Ik0xOC4xMTkgMTkuMDc3Yy0uMTE1LjA2Ny0uMTcxLjIwMy0uMTM2LjMzMXMuMTUxLjIxOC4yODQuMjE5Yy4xMTIgMCAuMjA5LS4wNjIuMjU5LS4xNTRhLjcyLjcyIDAgMCAxIC4wNTUuMjc3YzAgLjM5OS0uMzI0LjcyMy0uNzIzLjcyM3MtLjcyMy0uMzI0LS43MjMtLjcyMy4zMjQtLjcyMy43MjMtLjcyM2EuNzIuNzIgMCAwIDEgLjI2Mi4wNDl6TTAgMTYuNjQ5aDQ2Ljk2NGMtMS4wMjMtLjI1OS0zLjIzNS0uNjEtMi44NzEtMS45NS0xLjg2IDIuMTUyLTYuMzQ0IDEuNTA5LTcuNDc1LjQ0OS0xLjI2IDEuODI4LTguNTk3IDEuMTMzLTkuMTA4LS4yOTEtMS41OCAxLjg1NC02LjQ3NSAxLjg1NC04LjA1NSAwLS41MTIgMS40MjItNy44NDggMi4xMTktOS4xMDkuMjkxLTEuMTMyIDEuMDYxLTUuNjE0IDEuNzAzLTcuNDc1LS40NDkuMzY1IDEuMzQtMS44NDggMS42OTEtMi44NzEgMS45NSIgZmlsbD0iIzM5NGQ1NCIgY2xhc3M9IkIiLz48cGF0aCBkPSJNNy45OSAyMC4zNjFsLS4zMzktLjYwOGMtLjUxOC0xLjAxNy0uODcyLTIuMTMxLTEuMDQ4LTMuMzE4aDMxLjcxNWMtNC4wNTcgNi42MS0xMC45ODMgOS42MDItMTguOTMgOS42MDItNC4yMjMgMC03Ljg4MS0xLjMzLTEwLjMzNS00LjA4NS0uMTQ1LS4yMDQtLjIyOC0uMzc0LS40NTYtLjY4MS0uMjE4LS4yOTMtLjQyOS0uNTkyLS42MDgtLjkxeiIgZmlsbC1vcGFjaXR5PSIuMTciIGNsYXNzPSJDIi8+PHBhdGggZmlsbD0iI2Q0ZWRmMSIgZD0iTTIwLjU0MSAyNi4wMThjLTIuNS0xLjE4Ny0zLjg3My0yLjgtNC42MzYtNC41NmwtNi45NzYuMzA0LjEyNS4xODljMi40NTQgMi43NTYgNi4xMTIgNC4wODUgMTAuMzM1IDQuMDg1YTMwLjkyIDMwLjkyIDAgMCAwIDEuMTQ2LS4wMjFsLjA0My0uMDAyIi8+PHBhdGggZD0iTTQxLjA4NyA5Ljk1OWMxLjMwNS0uNTg5IDMuNDE4LS44NDEgNS4wNzguMTE3LTEuMDg5IDIuMTI3LTMuNDggMi43NjYtNS45NzMgMi41MS0zLjUxMyA5LjMwOC0xMS40NSAxMy40NTEtMjAuODAzIDEzLjQ1MS00LjIyMyAwLTcuODgxLTEuMzMtMTAuMzM1LTQuMDg1LS4xNDUtLjIwNC0uMjI4LS4zNzQtLjQ1Ni0uNjgxLS4yMTgtLjI5My0uNDI5LS41OTItLjYwOC0uOTFsLS4zMzktLjYwOGMtLjkyOC0xLjgyNS0xLjMzMi0zLjk1OS0xLjExOC02LjI5aDEuNjAzYy0uMTEgMy41NTQgMS4yMDQgNi4yNTIgMy41MzcgNy44ODNsMS4wMTYuNjEyYzMuMTgzIDEuNjMyIDcuNzk2IDEuNjIzIDEzLjA4OC0uNDEgNS45MzItMi4yNzkgMTEuNDU3LTYuNjE0IDE1LjMxNi0xMS41OTJsLS4wMDcuMDEiIGZpbGwtb3BhY2l0eT0iLjE0IiBjbGFzcz0iQyIvPjwvZz48cGF0aCBkPSJNOC40MjUgMjEuNjExYzIuNjE2LjE0MyA1LjQwNy4xNjkgNy44NDItLjU5NSIgZmlsbD0ibm9uZSIgc3Ryb2tlLXdpZHRoPSIuNjI4IiBjbGFzcz0iRSBGIi8+PC9zeW1ib2w+PGRlZnM+PHBhdGggaWQ9IkMiIGQ9Ik0yMy4zMjEgNC4wNTh2LTMuMDVtLjU0OSAzLjA1di0zLjA1bS41NTQgMy4wNXYtMy4wNW0uNTU1IDMuMDV2LTMuMDVtLjU1NSAzLjA1di0zLjA1bS41NDggMy4wNXYtMy4wNSIvPjxwYXRoIGlkPSJEIiBkPSJNMTAuNjU0IDkuNDUzdjMuMDVtLjU0OS0zLjA1djMuMDVtLjU1NC0zLjA1djMuMDVtLjU1NS0zLjA1djMuMDVtLjU1NS0zLjA1djMuMDVtLjU0OC0zLjA1djMuMDUiLz48L2RlZnM+PC9zdmc+;" vertex="1" parent="ZYlagNNr1r7ZUP_o3jMB-1">
          <mxGeometry x="863" y="661" width="29.59" height="17" as="geometry" />
        </mxCell>
        <mxCell id="ZYlagNNr1r7ZUP_o3jMB-28" value="" style="shape=image;verticalLabelPosition=bottom;labelBackgroundColor=#ffffff;verticalAlign=top;aspect=fixed;imageAspect=0;image=data:image/svg+xml,PHN2ZyB4bWxucz0iaHR0cDovL3d3dy53My5vcmcvMjAwMC9zdmciIHhtbG5zOnhsaW5rPSJodHRwOi8vd3d3LnczLm9yZy8xOTk5L3hsaW5rIiB2aWV3Qm94PSIwLjUgMC41IDg0Ljc5Njg3NSAzNC4wMTU2MjUiIGZpbGw9IiNmZmYiIGZpbGwtcnVsZT0iZXZlbm9kZCIgc3Ryb2tlPSIjMDAwIiBzdHJva2UtbGluZWNhcD0icm91bmQiIHN0cm9rZS1saW5lam9pbj0icm91bmQiIGZvbnQtZmFtaWx5PSJSb2JvdG8iIGZvbnQtc2l6ZT0iMTQiIHRleHQtYW5jaG9yPSJtaWRkbGUiIHdpZHRoPSI4NC43OTY4NzUiIGhlaWdodD0iMzQuMDE1NjI1Ij48dXNlIHhsaW5rOmhyZWY9IiNDIiB4PSIuNSIgeT0iLjUiLz48ZGVmcz48c3R5bGU+QGZvbnQtZmFjZXtmb250LWZhbWlseToiUm9ib3RvIjtzcmM6dXJsKGRhdGE6YXBwbGljYXRpb24vZm9udC13b2ZmO2NoYXJzZXQ9dXRmLTg7YmFzZTY0LGQwOUdSZ0FCQUFBQUFBZ2dBQThBQUFBQUM0UUFBaU1TQUFBQUFBQUFBQUFBQUFBQUFBQUFBQUFBQUFCSFVFOVRBQUFCV0FBQUFHTUFBQUNFQmUzdHNrOVRMeklBQUFHOEFBQUFUd0FBQUdCMW14SFFZMjFoY0FBQUFnd0FBQUJUQUFBQldnRGlBeXBqZG5RZ0FBQUNZQUFBQUVnQUFBQklLMzRFdFdad1oyMEFBQUtvQUFBQk9nQUFBYnhmOGhxcloyRnpjQUFBQStRQUFBQU1BQUFBREFBSUFCTm5iSGxtQUFBRDhBQUFBVG9BQUFIRXdkc3BzV2hsWVdRQUFBVXNBQUFBTmdBQUFEWUFFdEd3YUdobFlRQUFCV1FBQUFBYUFBQUFKQWR1QlJSb2JYUjRBQUFGZ0FBQUFCUUFBQUFVRmxBQjNHeHZZMkVBQUFXVUFBQUFEQUFBQUF3QXJnRTZiV0Y0Y0FBQUJhQUFBQUFlQUFBQUlBSVZBYzV1WVcxbEFBQUZ3QUFBQVhRQUFBS0xrSTVOQW5CdmMzUUFBQWMwQUFBQUZBQUFBQ0QvYlFCcGNISmxjQUFBQjBnQUFBRFlBQUFCS1NwMk5qQjRuR05nWkdCZzRHSXdZTEJqWUhGeDh3bGhrRXF1TE1waGtFb3ZTczFta01wSkxNbGprR0pnQWFwaCtQK2ZBYVNXTVR1MUtJK0JBOFFDWXhZR0pqRE5BYVJsd0NyVkdJd1ltTUdpQ01BSUZtRUd5ak9DYVpCZUpyQnVSZ1pHQUd1ekM0c0FlSnhqWUdFcFk5ckR3TXJBd0RxTDFaaUJnVkVlUWpOZlpFaGpZbUJnQUdFSWFHQmdVQmVBTUJWQWhMdS92enVRcGNBUXlzYndqNEVoalgwV0U1RERPQjhreDJMRnVnRXN4d3dBQ0kwSzZRQjRuR05nWUdCbWdHQVpCa1lHRUFnQjhoakJmQllHQ3lETnhjREJ3QVNFQ2d5dURMNE1vZi8vQThYZzdQOFAvKy85diszL2VxaGVLR0JrWXlBSUdBa3JZUURhQ2dITVVKcUZHRTJEQXdBQXNPTU9CUUFBS2dEcEFLUUEvZ0JPQUdBQk1RQ3NBTVVBMUFCOEFDMEFBQUFVL21BQUZBS2JBQ0FESVFBTEJEb0FGQVNOQUJBRnNBQVVCaGdBRlFHbUFCRUd3QUFPQnQ4QUFnQUFBQUI0bkYyUXkwb0RNUmlGRTJlc3JSZHdLUVFoYWFoQ1NYRHZhaGFaZ25Rek9sMGtMcnhnQzdZclgwQ1lqVEJrNGJPYzJjM3Mramg5Q2RGMHFrWGQ1T1NjbjN5Y1B5QnFqRjVtSzByZlhVMC8zMkJPcTE1MGY2ZEJGZWZwM0lBK2FPd28wS0hRaUJRZklScU1icXgwM0hOL05mVjh4SjhmcDRnSHJZYkJ6THNMRHBMYmVUZ25WaUJ4Ykh1ZE9YZXBFYTh4Y1l2eExnQVczNEJGQ3dqdlB6UjIxWmdqT3N2c3RVVmhHQkxqbUJBOHhUS3pXQm9tbk5Qb2JEc0dmWjJmYk5ydUtYU0dHdDBOSWJkSUdJanpmdU9rUU9FOTgyR0RINy84NjJ0Sy9nZko3eUQ4UUZyVEltc25oUlJzSFVnaFJXam9qRVpQalhPYmhvb2lWTnhYNktjYUJ3b3l5S0dxem1uSmZXNmJoTVRrcWU2U2NtSWIwbzlXTDQ1QkJqZ3Y2Mk95emRaYkhpa2taYzNKcmEwa01hd2hNbG9acDc4QVV5eUl0UUFBQUFFQUFnQUlBQUwvL3dBUGVKeGpZTUFCR0JtYUdCaFlnbGczTUhBelJEQnNZSENOMk1DbUw3MlJUY0l1RXN4aEFYSlllT3dpTjNHenNBa0tXVzdnMXQ5aXhlM0Z6UlM3a1lGeEE1ZDJoT0lONlMrUkcxZ0VOakloY2RrRU5uSWd1QWFHaklxQ2lxSlF6UHp1N3dHbUpYOE1tTS85aldOeVlDci9WL1dSZGNQbmYwdGhibUdyQTdxRmp5RVM0aFlHb1BVTU1MY3dBVGxNNkE0RGN6aUFIQTRZaHdmSTRRRTVtWkdCQmVqa1Rld1FpZ3RNR1JoeU1nRmRJU2pNcU13b0RLU1p1QmpMR0VzWXUvNWRsdnRYZnU1ZmhkeS9LNndiZmo5Z1VmZ1Z3TmpIdFA3M1lSYWJ2MEgvaW9CdUFybXY1UDhibGd0QXRnQ0Q3U2FnYVVEenNEZ1Q3QmgwWjI3a1JRa1FRUkVHUlNVR2RhQURSTVNNallRRldTNzh1L3J2Ny85L1Y1Z1pkVG9yLzdLd2J2amorUDdmSzBhK044eW4vdGozTnpOeU1aOEVBRlJIZ1JnQUFBQUJBQUFBQWlNU2N3RHh3VjhQUFBVQUdRZ0FBQUFBQU1Ud0VTNEFBQUFBMVFGUzFnQjAvK3dHZmdXd0FBRUFDUUFDQUFBQUFBQUFlSnhqWUdSZ1lNLzV4d01rbVJnZ2dKRUJGYkFDQUM1WkFZNEFBQU9NQUdRQi9nQUFCSUFBZ2djQ0FJSUZSQUIwQUFBQUJnQU1BRklBb2dEaWVKeGpZR1JnWUdCbEVHUUEwUXhRa28rQmdZbUJjUStJQ1FBRzh3RG5BQUI0bklXU3kwckRRQlNHLzdFWExFb1JCTGZPeW9XUVNTK1VZcnRxYXltRlVpR1ZiZ1NobDZFSnhFNU5Ra3VmeERmeWpkejdKeG1LdWpIRHpIem5QM051RUFCWCtJUkEvcm5jT1F1VWFlVjhoaUphbGd1NHdJUGxJdm5SY2duWGVMSmNwcjYwWE1VOTNoZ2xpaFZhci9pd0xIQ0pMOHRuT0JmQ2NnRTNvbUs1U0w2MVhNS2RhRmt1VTMreFhNV3plQitZM1RFS05uNGlHN1Y2WFk2TTJZUmFqcmNySlh0aEtMM1VGVXRQeHpyYTY3WHl6TklrcG0vQ2RVN3lEODUxRkFkbUt4dXEzbXgzMDV6dDNPdWtYajlKZGgzWFBSd09hckZickh5dFRMUnh3MkNsdDdHTzNjbDRNSnpPaGs1RDFUQ0F3UTVIUkFpd2dZOEVFZzNVVU9lU0dORnJxSWZRdE1iWVlnVkY2bEVKZVh1bnFEaXpORy9OWEh1ZWE3NzBHTDNrVHJqNzNDSFZuNXI4UjUxbjJXSldNYXlkZHFiWVZ4TnRkRTk5dG4vRk9xZll0S3VFczNYNGs3ZzRaRXRoUVdYQktYeG1Wbndac1grWDd3TnFtalhpYkFZWEUwNDd3QkJUekhnNldlWGFOMDVMYnlWNG5HTmdaZ0NELzFrTUtReVlnQlVBS2lRQjFuaWNQYzFQRHNGQUhJYmhHZitwVU5MSWtOQ0dTRVNibEUwWDNUUVJWaGJzU2RoYUVaU1ZjQU54QXpmUXpNWXB4RkVjd0lMZmg5ZzhlVHVkTHhPa3pZQ1pUSElsWkxJcmJ6ZjBRb1lsekd1bzYxcEdIaFgrbjBWTzI3RmJRMFUzMDc1VFJzWHF1c2dwcUhqSGFWWStpNFJyVjBVV2xYU3NYNlZHZmJkWlJDblAyM25abzJJeXJjVHBkYU8zbTRtdWJHWDRTZ1lxTVZUNVdoN0FRdVcrOURRNm00QTlzRFg2TVFCemNBUVg4QUs2OWwzNFdQaFkrRElyYURZWCtFUTlnQzdvOGdRY3dSMjhnSWQ3ZGdrTFlCdUVSN3dCNERKUnlBPT0pIGZvcm1hdCgid29mZiIpOyBmb250LXdlaWdodDpib2xkO2ZvbnQtc3R5bGU6bm9ybWFsO308L3N0eWxlPjxyYWRpYWxHcmFkaWVudCBpZD0iQSIgY3g9IjQ0JSIgY3k9IjM4JSIgZng9IjQ0JSIgZnk9IjM4JSIgcj0iODIlIj48c3RvcCBvZmZzZXQ9IjAlIi8+PHN0b3Agb2Zmc2V0PSIxMDAlIiBzdG9wLW9wYWNpdHk9Ii44OTciLz48L3JhZGlhbEdyYWRpZW50PjxsaW5lYXJHcmFkaWVudCBpZD0iQiIgeDE9IjUwLjQ1JSIgeTE9Ii0wLjI1JSIgeDI9IjUwLjQ1JSIgeTI9Ijk1Ljg5JSI+PHN0b3Agb2Zmc2V0PSIwJSIgc3RvcC1jb2xvcj0iI2ZmZiIvPjxzdG9wIG9mZnNldD0iMTAwJSIgc3RvcC1jb2xvcj0iI2ZmZiIgc3RvcC1vcGFjaXR5PSIwIi8+PC9saW5lYXJHcmFkaWVudD48L2RlZnM+PHN5bWJvbCBpZD0iQyIgb3ZlcmZsb3c9InZpc2libGUiPjxnIHN0cm9rZT0ibm9uZSIgZmlsbC1ydWxlPSJub256ZXJvIj48cGF0aCBkPSJNMTQuMTU5IDBDNi4zNDEgMCAwIDYuMzAyIDAgMTQuMDhzNi4zNDEgMTQuMDggMTQuMTU5IDE0LjA4YTE0LjEzIDE0LjEzIDAgMCAwIDcuMDI0LTEuODUzbC43MzYgMS44NTNoNS43MDlsLTIuMjMzLTUuNTE5YTEzLjk3IDEzLjk3IDAgMCAwIDIuOTE0LTguNTZjMC03Ljc3Ny02LjMzMy0xNC4wOC0xNC4xNTEtMTQuMDh6IiBmaWxsPSJ1cmwoI0EpIi8+PHBhdGggZD0iTTQuNTk4IDguNTI2YzAtNC40NyA0LjE4Mi04LjA2OCA5LjM3Ni04LjA2OHM5LjM3NiAzLjU5OCA5LjM3NiA4LjA2OC00LjE4MiA4LjA2OC05LjM3NiA4LjA2OC05LjM3Ni0zLjU5OC05LjM3Ni04LjA2OHoiIGZpbGw9InVybCgjQikiLz48ZyBmaWxsPSIjMDAwIj48cGF0aCBkPSJNMTMuNzkyIDUuODFhMS42NiAxLjY2IDAgMSAxIDMuMzI4IDAgMS42NiAxLjY2IDAgMSAxLTMuMzI4IDB6Ii8+PHBhdGggZD0iTTEyLjQyIDYuNjA1bDkuNDQxIDEuMzYyLS4yNjUgMS4zNjgtOS40NDEtMS4zNjJ6Ii8+PHBhdGggZD0iTTIwLjkyNyA4LjQwMmgxLjY2NHYuNzM2aC0xLjY2NHoiLz48L2c+PHBhdGggZD0iTTEwLjQwMiAyLjMxNmMtLjAxNC41NTQtLjk4LjA3Mi0xLjAyMS43MDQtMS4wNy0uNDc2LjA4NC43MjgtLjAyNC44NGgtLjAwOGwtLjA3OS0uMDA4Yy0uMDUyLS4wMTgtLjEyNy0uMDUxLS4yMzctLjExOS0uNzQ4LjU5NS0uNzY2IDEuODMzLTEuNTM2IDIuNTE4LS41MDYgMS4wOTEtLjYyOCAyLjI3Ni0uOTk4IDMuNDEzLS4xODIgMS4wOS0uMzQyIDIuMTc5LS4wNzEgMy4yNy4wODEuODg3LS4xNzcgMi4wOTMuNjMzIDIuNzE3IDEuMTk4Ljk4NCAyLjE5MyAyLjIyOSAzLjE5OSAzLjQxM2E0NS4wMyA0NS4wMyAwIDAgMSA0LjIwNSA2LjE5M2MuMDgyLS41MzcuMjc5IDEuMDgxLjY0MSAxLjE4OGwtLjM2NC0zLjA4OGMtLjQtMi42MS0xLjY4Ni00Ljk3OS0yLjE3LTcuNTYzbC0uMDQ3LS4zMzN2LS4zMjRoLS4wNGMtLjE1OS0xLjI3OC0uMjE1LTIuNjUyLjcxMy0zLjY1MS45NDgtLjk1NiAyLjM1OC0xLjE5NyAzLjUtMS44NjEuMjU0LS4xNTIuNTE5LS4yNzIuNzkyLS4zNTYuNzk3LS4yNDQgMS42NDItLjIzNiAyLjQ2My0uMTAzbC4wNC4wMDguMjI5LjA0Yy42MDEuMDUxIDEuODExLjI4OCAyLjAyNy0uMTI3LS44MjktLjcwNi0yLjAyMy0uNjU3LTMuMDMzLS45MzRsLS41NTQtLjA3OS0uOTktLjIyMi0uMjQ2LS4wNjN2LjAwOGwtMy41NC0uNjg5Yy0uMDU1LS4wNTEtLjExMy0uMDk5LS4xNzQtLjE0MmwzLjQ1My40Mjh2LS4wMTZsLjM2NC4wNjN2LjAwN2wyLjQzOS40NTFjLjQyMS4xNTcuODcuMjc1IDEuMjkxLjMwMS42OTUuMTAxIDEuNTc3IDEuMTQgMS44MDYgMS4xODgtLjExMS0xLjA5MS0xLjIwMi0xLjU4LTIuMTA2LTEuOTAxLTEuMDU3LS41MTQtMi42MzYtLjQ5NS0yLjgwMy0xLjkxNmwtLjE0Mi0uMjkzLS40MTItLjU0Ni4wMTYtLjAwOGMtLjU2Mi0uNjYzLTEuMzUzLTEuMTQ2LTIuMTkzLTEuMzMtLjgzNi0uMjg4LTEuNzcxLS41NzQtMi42NTMtLjY4OS0uMjk5Ljg4MS0uNjM0LS42OTgtMS4zNTQtLjIzLS42MzMuMDc1LS41NDQuMjQxLTEuMDE0LS4xNTh6bTQuNTM4IDIuNTc0Yy4yMjktLjAwNi40OS4wMzYuNzUzLjEyNy43LjI0MiAxLjE1Ni43NTEgMS4wMjEgMS4xNHMtLjgxMi41MDMtMS41MTMuMjYxLTEuMTU1LS43NDQtMS4wMjEtMS4xMzNjLjA4NC0uMjQzLjM3OS0uMzg2Ljc2LS4zOTZ6IiBmaWxsPSIjZjYwIi8+PC9nPjx0ZXh0IGZpbGw9IiMwMDAiIGZvbnQtc2l6ZT0iMjQuMjEiIGZvbnQtd2VpZ2h0PSJib2xkIiBzdHJva2U9Im5vbmUiPjx0c3BhbiB4PSI1Ni41NTUiIHk9IjI4LjAwNSI+RU1VPC90c3Bhbj48L3RleHQ+PC9zeW1ib2w+PC9zdmc+;rotation=-90;" vertex="1" parent="ZYlagNNr1r7ZUP_o3jMB-1">
          <mxGeometry x="842" y="723" width="42.5" height="17" as="geometry" />
        </mxCell>
        <mxCell id="ZYlagNNr1r7ZUP_o3jMB-29" value="" style="group" vertex="1" connectable="0" parent="ZYlagNNr1r7ZUP_o3jMB-1">
          <mxGeometry x="806.01" y="708" width="43" height="42" as="geometry" />
        </mxCell>
        <mxCell id="ZYlagNNr1r7ZUP_o3jMB-30" value="" style="group" vertex="1" connectable="0" parent="ZYlagNNr1r7ZUP_o3jMB-29">
          <mxGeometry width="43" height="42" as="geometry" />
        </mxCell>
        <mxCell id="ZYlagNNr1r7ZUP_o3jMB-31" value="" style="whiteSpace=wrap;html=1;aspect=fixed;fillColor=#001135;strokeColor=none;connectable=1;allowArrows=1;fontFamily=Manrope;fontSource=https%3A%2F%2Ffonts.googleapis.com%2Fcss%3Ffamily%3DManrope;" vertex="1" parent="ZYlagNNr1r7ZUP_o3jMB-30">
          <mxGeometry width="42" height="42" as="geometry" />
        </mxCell>
        <mxCell id="ZYlagNNr1r7ZUP_o3jMB-32" value="" style="endArrow=open;html=1;edgeStyle=orthogonalEdgeStyle;rounded=0;endFill=0;startSize=6;endSize=2;strokeColor=#FFFFFF;fontFamily=Manrope;fontSource=https%3A%2F%2Ffonts.googleapis.com%2Fcss%3Ffamily%3DManrope;" edge="1" parent="ZYlagNNr1r7ZUP_o3jMB-30">
          <mxGeometry width="71.66666666666667" height="70" as="geometry">
            <mxPoint x="4.3" y="16.8" as="sourcePoint" />
            <mxPoint x="15.76666666666667" y="4.2" as="targetPoint" />
            <Array as="points">
              <mxPoint x="15.76666666666667" y="16.8" />
            </Array>
          </mxGeometry>
        </mxCell>
        <mxCell id="ZYlagNNr1r7ZUP_o3jMB-33" value="" style="endArrow=open;html=1;edgeStyle=orthogonalEdgeStyle;rounded=0;endFill=0;startSize=6;endSize=2;strokeColor=#FFFFFF;fontFamily=Manrope;fontSource=https%3A%2F%2Ffonts.googleapis.com%2Fcss%3Ffamily%3DManrope;" edge="1" parent="ZYlagNNr1r7ZUP_o3jMB-30">
          <mxGeometry width="71.66666666666667" height="70" as="geometry">
            <mxPoint x="15.76666666666667" y="37.8" as="sourcePoint" />
            <mxPoint x="4.3" y="26.6" as="targetPoint" />
            <Array as="points">
              <mxPoint x="15.76666666666667" y="26.6" />
            </Array>
          </mxGeometry>
        </mxCell>
        <mxCell id="ZYlagNNr1r7ZUP_o3jMB-34" value="" style="endArrow=open;html=1;edgeStyle=orthogonalEdgeStyle;rounded=0;endFill=0;startSize=6;endSize=2;strokeColor=#FFFFFF;fontFamily=Manrope;fontSource=https%3A%2F%2Ffonts.googleapis.com%2Fcss%3Ffamily%3DManrope;" edge="1" parent="ZYlagNNr1r7ZUP_o3jMB-30">
          <mxGeometry width="71.66666666666667" height="70" as="geometry">
            <mxPoint x="25.8" y="4.2" as="sourcePoint" />
            <mxPoint x="38.7" y="16.8" as="targetPoint" />
            <Array as="points">
              <mxPoint x="25.8" y="16.8" />
            </Array>
          </mxGeometry>
        </mxCell>
        <mxCell id="ZYlagNNr1r7ZUP_o3jMB-35" value="" style="endArrow=open;html=1;edgeStyle=orthogonalEdgeStyle;rounded=0;endFill=0;startSize=6;endSize=2;strokeColor=#FFFFFF;fontFamily=Manrope;fontSource=https%3A%2F%2Ffonts.googleapis.com%2Fcss%3Ffamily%3DManrope;" edge="1" parent="ZYlagNNr1r7ZUP_o3jMB-30">
          <mxGeometry width="71.66666666666667" height="70" as="geometry">
            <mxPoint x="38.7" y="26.6" as="sourcePoint" />
            <mxPoint x="25.8" y="37.8" as="targetPoint" />
            <Array as="points">
              <mxPoint x="25.8" y="26.6" />
            </Array>
          </mxGeometry>
        </mxCell>
        <mxCell id="ZYlagNNr1r7ZUP_o3jMB-36" value="&lt;font color=&quot;#dde9f5&quot;&gt;netns:&lt;/font&gt;&amp;nbsp;container" style="rounded=0;whiteSpace=wrap;html=1;fontSize=12;align=center;fontFamily=Manrope;fontSource=https%3A%2F%2Ffonts.googleapis.com%2Fcss%3Ffamily%3DManrope;fontColor=#FFFFFF;fillColor=#98A2AE;rotation=0;strokeColor=none;horizontal=0;verticalAlign=middle;" vertex="1" parent="ZYlagNNr1r7ZUP_o3jMB-1">
          <mxGeometry x="896" y="658" width="26.5" height="139" as="geometry" />
        </mxCell>
        <mxCell id="ZYlagNNr1r7ZUP_o3jMB-37" value="&lt;font style=&quot;font-size: 10px&quot;&gt;vMX&lt;/font&gt;" style="text;html=1;align=center;verticalAlign=middle;resizable=0;points=[];autosize=1;fontSize=10;fontFamily=Manrope;fontStyle=0;fontColor=#BEC8D2;" vertex="1" parent="ZYlagNNr1r7ZUP_o3jMB-1">
          <mxGeometry x="812" y="749" width="30" height="16" as="geometry" />
        </mxCell>
        <mxCell id="ZYlagNNr1r7ZUP_o3jMB-38" value="0/0/0" style="rounded=0;whiteSpace=wrap;html=1;fontFamily=Manrope;fontSize=12;fontColor=#FFFFFF;align=center;strokeColor=none;rotation=0;horizontal=1;fillColor=#001135;" vertex="1" parent="ZYlagNNr1r7ZUP_o3jMB-1">
          <mxGeometry x="765" y="712.0000000000001" width="30" height="16.25" as="geometry" />
        </mxCell>
        <mxCell id="ZYlagNNr1r7ZUP_o3jMB-39" value="0/0/1" style="rounded=0;whiteSpace=wrap;html=1;fontFamily=Manrope;fontSize=12;fontColor=#FFFFFF;align=center;strokeColor=none;rotation=0;horizontal=1;fillColor=#001135;" vertex="1" parent="ZYlagNNr1r7ZUP_o3jMB-1">
          <mxGeometry x="765" y="735.6300000000001" width="30" height="16.25" as="geometry" />
        </mxCell>
        <mxCell id="ZYlagNNr1r7ZUP_o3jMB-40" value="eth1" style="rounded=0;whiteSpace=wrap;html=1;fontFamily=Manrope;fontSize=12;fontColor=#FFFFFF;align=center;strokeColor=none;rotation=0;horizontal=1;fillColor=#00C9FF;" vertex="1" parent="ZYlagNNr1r7ZUP_o3jMB-1">
          <mxGeometry x="720" y="694" width="30" height="16.25" as="geometry" />
        </mxCell>
        <mxCell id="ZYlagNNr1r7ZUP_o3jMB-41" value="eth2" style="rounded=0;whiteSpace=wrap;html=1;fontFamily=Manrope;fontSize=12;fontColor=#FFFFFF;align=center;strokeColor=none;rotation=0;horizontal=1;fillColor=#00C9FF;" vertex="1" parent="ZYlagNNr1r7ZUP_o3jMB-1">
          <mxGeometry x="720" y="752.37" width="30" height="16.25" as="geometry" />
        </mxCell>
        <mxCell id="ZYlagNNr1r7ZUP_o3jMB-42" style="rounded=0;orthogonalLoop=1;jettySize=auto;html=1;fontFamily=Manrope;fontSize=12;fontColor=#FFFFFF;endArrow=oval;endFill=1;startArrow=oval;startFill=1;entryX=1;entryY=0.5;entryDx=0;entryDy=0;strokeColor=#00C9FF;exitX=0;exitY=0.5;exitDx=0;exitDy=0;endSize=4;startSize=4;dashed=1;dashPattern=1 1;" edge="1" parent="ZYlagNNr1r7ZUP_o3jMB-1" source="ZYlagNNr1r7ZUP_o3jMB-38" target="ZYlagNNr1r7ZUP_o3jMB-40">
          <mxGeometry relative="1" as="geometry">
            <mxPoint x="416.4999999999998" y="704" as="sourcePoint" />
            <mxPoint x="539.5" y="704.125" as="targetPoint" />
          </mxGeometry>
        </mxCell>
        <mxCell id="ZYlagNNr1r7ZUP_o3jMB-43" style="rounded=0;orthogonalLoop=1;jettySize=auto;html=1;fontFamily=Manrope;fontSize=12;fontColor=#FFFFFF;endArrow=oval;endFill=1;startArrow=oval;startFill=1;entryX=1;entryY=0.5;entryDx=0;entryDy=0;strokeColor=#00C9FF;exitX=0;exitY=0.5;exitDx=0;exitDy=0;endSize=4;startSize=4;dashed=1;dashPattern=1 1;" edge="1" parent="ZYlagNNr1r7ZUP_o3jMB-1" source="ZYlagNNr1r7ZUP_o3jMB-39" target="ZYlagNNr1r7ZUP_o3jMB-41">
          <mxGeometry relative="1" as="geometry">
            <mxPoint x="766" y="721.125" as="sourcePoint" />
            <mxPoint x="732.5" y="703.125" as="targetPoint" />
          </mxGeometry>
        </mxCell>
        <mxCell id="ZYlagNNr1r7ZUP_o3jMB-44" style="rounded=0;orthogonalLoop=1;jettySize=auto;html=1;fontFamily=Manrope;fontSize=12;fontColor=#FFFFFF;endArrow=oval;endFill=1;startArrow=oval;startFill=1;endSize=4;startSize=4;exitX=1;exitY=0.5;exitDx=0;exitDy=0;entryX=0;entryY=0.5;entryDx=0;entryDy=0;dashed=1;dashPattern=1 1;strokeColor=#00C9FF;" edge="1" parent="ZYlagNNr1r7ZUP_o3jMB-1" source="ZYlagNNr1r7ZUP_o3jMB-20" target="ZYlagNNr1r7ZUP_o3jMB-22">
          <mxGeometry relative="1" as="geometry">
            <mxPoint x="93.00999999999999" y="714.125" as="sourcePoint" />
            <mxPoint x="252.5" y="704.125" as="targetPoint" />
          </mxGeometry>
        </mxCell>
        <mxCell id="ZYlagNNr1r7ZUP_o3jMB-45" value="sr-eth1" style="rounded=0;whiteSpace=wrap;html=1;fontFamily=Manrope;fontSize=12;fontColor=#FFFFFF;align=center;strokeColor=none;rotation=0;horizontal=1;fillColor=#001135;" vertex="1" parent="ZYlagNNr1r7ZUP_o3jMB-1">
          <mxGeometry x="187" y="694" width="44" height="16.25" as="geometry" />
        </mxCell>
        <mxCell id="ZYlagNNr1r7ZUP_o3jMB-46" value="sr-eth2" style="rounded=0;whiteSpace=wrap;html=1;fontFamily=Manrope;fontSize=12;fontColor=#FFFFFF;align=center;strokeColor=none;rotation=0;horizontal=1;fillColor=#001135;" vertex="1" parent="ZYlagNNr1r7ZUP_o3jMB-1">
          <mxGeometry x="188" y="753" width="44" height="16.25" as="geometry" />
        </mxCell>
        <mxCell id="ZYlagNNr1r7ZUP_o3jMB-47" value="&lt;font style=&quot;font-size: 14px;&quot;&gt;VM1&lt;/font&gt;" style="text;html=1;align=center;verticalAlign=middle;resizable=0;points=[];autosize=1;fontSize=14;fontFamily=Manrope;fontStyle=1;" vertex="1" parent="ZYlagNNr1r7ZUP_o3jMB-1">
          <mxGeometry x="-86" y="633" width="36" height="21" as="geometry" />
        </mxCell>
        <mxCell id="ZYlagNNr1r7ZUP_o3jMB-48" value="vx-sr-eth1" style="rounded=0;whiteSpace=wrap;html=1;fontFamily=Manrope;fontSize=12;fontColor=#FFFFFF;align=center;strokeColor=none;rotation=0;horizontal=1;fillColor=#4D5766;dashed=1;" vertex="1" parent="ZYlagNNr1r7ZUP_o3jMB-1">
          <mxGeometry x="262" y="694" width="59" height="16.25" as="geometry" />
        </mxCell>
        <mxCell id="ZYlagNNr1r7ZUP_o3jMB-49" style="rounded=0;orthogonalLoop=1;jettySize=auto;html=1;fontFamily=Manrope;fontSize=12;fontColor=#FFFFFF;endArrow=oval;endFill=1;startArrow=oval;startFill=1;strokeColor=#00C9FF;endSize=4;startSize=4;exitX=1;exitY=0.5;exitDx=0;exitDy=0;entryX=0;entryY=0.5;entryDx=0;entryDy=0;dashed=1;dashPattern=1 1;" edge="1" parent="ZYlagNNr1r7ZUP_o3jMB-1" source="ZYlagNNr1r7ZUP_o3jMB-45" target="ZYlagNNr1r7ZUP_o3jMB-48">
          <mxGeometry relative="1" as="geometry">
            <mxPoint x="93.00999999999999" y="719.375" as="sourcePoint" />
            <mxPoint x="130" y="704.125" as="targetPoint" />
          </mxGeometry>
        </mxCell>
        <mxCell id="ZYlagNNr1r7ZUP_o3jMB-50" value="vx-sr-eth1" style="rounded=0;whiteSpace=wrap;html=1;fontFamily=Manrope;fontSize=12;fontColor=#FFFFFF;align=center;strokeColor=none;rotation=0;horizontal=1;fillColor=#4D5766;dashed=1;" vertex="1" parent="ZYlagNNr1r7ZUP_o3jMB-1">
          <mxGeometry x="263" y="753" width="59" height="16.25" as="geometry" />
        </mxCell>
        <mxCell id="ZYlagNNr1r7ZUP_o3jMB-51" style="rounded=0;orthogonalLoop=1;jettySize=auto;html=1;fontFamily=Manrope;fontSize=12;fontColor=#FFFFFF;endArrow=oval;endFill=1;startArrow=oval;startFill=1;strokeColor=#00C9FF;endSize=4;startSize=4;exitX=1;exitY=0.5;exitDx=0;exitDy=0;entryX=0;entryY=0.5;entryDx=0;entryDy=0;dashed=1;dashPattern=1 1;" edge="1" parent="ZYlagNNr1r7ZUP_o3jMB-1" target="ZYlagNNr1r7ZUP_o3jMB-50">
          <mxGeometry relative="1" as="geometry">
            <mxPoint x="232" y="761.125" as="sourcePoint" />
            <mxPoint x="131" y="763.125" as="targetPoint" />
          </mxGeometry>
        </mxCell>
        <mxCell id="ZYlagNNr1r7ZUP_o3jMB-52" value="eth0" style="rounded=0;whiteSpace=wrap;html=1;fontFamily=Manrope;fontSize=12;fontColor=#FFFFFF;align=center;strokeColor=none;rotation=0;horizontal=1;fillColor=#000000;" vertex="1" parent="ZYlagNNr1r7ZUP_o3jMB-1">
          <mxGeometry x="335" y="712.62" width="42" height="32.75" as="geometry" />
        </mxCell>
        <mxCell id="ZYlagNNr1r7ZUP_o3jMB-53" style="edgeStyle=orthogonalEdgeStyle;rounded=0;orthogonalLoop=1;jettySize=auto;html=1;fontFamily=Manrope;fontSize=12;fontColor=#FFFFFF;endArrow=oval;endFill=1;startArrow=oval;startFill=1;dashed=1;dashPattern=1 1;strokeColor=#BEC8D2;endSize=4;startSize=4;exitX=1;exitY=0.5;exitDx=0;exitDy=0;entryX=0;entryY=0.5;entryDx=0;entryDy=0;" edge="1" parent="ZYlagNNr1r7ZUP_o3jMB-1" source="ZYlagNNr1r7ZUP_o3jMB-21" target="ZYlagNNr1r7ZUP_o3jMB-45">
          <mxGeometry relative="1" as="geometry">
            <mxPoint x="162" y="701.97" as="sourcePoint" />
            <mxPoint x="183" y="703" as="targetPoint" />
          </mxGeometry>
        </mxCell>
        <mxCell id="ZYlagNNr1r7ZUP_o3jMB-54" style="edgeStyle=orthogonalEdgeStyle;rounded=0;orthogonalLoop=1;jettySize=auto;html=1;fontFamily=Manrope;fontSize=12;fontColor=#FFFFFF;endArrow=oval;endFill=1;startArrow=oval;startFill=1;dashed=1;dashPattern=1 1;strokeColor=#BEC8D2;endSize=4;startSize=4;exitX=1;exitY=0.5;exitDx=0;exitDy=0;entryX=0;entryY=0.5;entryDx=0;entryDy=0;" edge="1" parent="ZYlagNNr1r7ZUP_o3jMB-1" target="ZYlagNNr1r7ZUP_o3jMB-46">
          <mxGeometry relative="1" as="geometry">
            <mxPoint x="159" y="761.125" as="sourcePoint" />
            <mxPoint x="183" y="761" as="targetPoint" />
          </mxGeometry>
        </mxCell>
        <mxCell id="ZYlagNNr1r7ZUP_o3jMB-55" style="edgeStyle=orthogonalEdgeStyle;rounded=0;orthogonalLoop=1;jettySize=auto;html=1;fontFamily=Manrope;fontSize=12;fontColor=#FFFFFF;endArrow=oval;endFill=1;startArrow=oval;startFill=1;dashed=1;dashPattern=1 1;endSize=4;startSize=4;exitX=0.5;exitY=1;exitDx=0;exitDy=0;entryX=0;entryY=0.25;entryDx=0;entryDy=0;strokeColor=#FF3154;" edge="1" parent="ZYlagNNr1r7ZUP_o3jMB-1" source="ZYlagNNr1r7ZUP_o3jMB-48" target="ZYlagNNr1r7ZUP_o3jMB-52">
          <mxGeometry relative="1" as="geometry">
            <mxPoint x="289" y="729.495" as="sourcePoint" />
            <mxPoint x="317" y="729" as="targetPoint" />
            <Array as="points">
              <mxPoint x="291" y="721" />
              <mxPoint x="323" y="721" />
            </Array>
          </mxGeometry>
        </mxCell>
        <mxCell id="ZYlagNNr1r7ZUP_o3jMB-56" style="edgeStyle=orthogonalEdgeStyle;rounded=0;orthogonalLoop=1;jettySize=auto;html=1;fontFamily=Manrope;fontSize=12;fontColor=#FFFFFF;endArrow=oval;endFill=1;startArrow=oval;startFill=1;dashed=1;dashPattern=1 1;endSize=4;startSize=4;entryX=0;entryY=0.75;entryDx=0;entryDy=0;strokeColor=#124191;" edge="1" parent="ZYlagNNr1r7ZUP_o3jMB-1" source="ZYlagNNr1r7ZUP_o3jMB-50" target="ZYlagNNr1r7ZUP_o3jMB-52">
          <mxGeometry relative="1" as="geometry">
            <mxPoint x="292.4999999999999" y="711.25" as="sourcePoint" />
            <mxPoint x="336" y="721.8074999999999" as="targetPoint" />
            <Array as="points">
              <mxPoint x="293" y="737" />
              <mxPoint x="324" y="737" />
            </Array>
          </mxGeometry>
        </mxCell>
        <mxCell id="ZYlagNNr1r7ZUP_o3jMB-57" value="&lt;font style=&quot;font-size: 10px&quot;&gt;VxLAN (10)&lt;br&gt;&lt;/font&gt;" style="text;html=1;align=center;verticalAlign=middle;resizable=0;points=[];autosize=1;fontSize=10;fontFamily=Manrope;fontStyle=0;fontColor=#BEC8D2;" vertex="1" parent="ZYlagNNr1r7ZUP_o3jMB-1">
          <mxGeometry x="397.59000000000003" y="712.62" width="60" height="16" as="geometry" />
        </mxCell>
        <mxCell id="ZYlagNNr1r7ZUP_o3jMB-58" style="edgeStyle=orthogonalEdgeStyle;rounded=0;orthogonalLoop=1;jettySize=auto;html=1;fontFamily=Manrope;fontSize=12;fontColor=#FFFFFF;endArrow=none;endFill=0;startArrow=oval;startFill=1;entryX=0.004;entryY=0.544;entryDx=0;entryDy=0;dashed=1;dashPattern=1 1;entryPerimeter=0;endSize=4;startSize=4;strokeColor=#FF3154;exitX=1;exitY=0.25;exitDx=0;exitDy=0;" edge="1" parent="ZYlagNNr1r7ZUP_o3jMB-1" source="ZYlagNNr1r7ZUP_o3jMB-52" target="ZYlagNNr1r7ZUP_o3jMB-57">
          <mxGeometry relative="1" as="geometry">
            <mxPoint x="376" y="721" as="sourcePoint" />
            <mxPoint x="497.5" y="720.495" as="targetPoint" />
          </mxGeometry>
        </mxCell>
        <mxCell id="ZYlagNNr1r7ZUP_o3jMB-59" value="&lt;font style=&quot;font-size: 10px&quot;&gt;VxLAN (20)&lt;br&gt;&lt;/font&gt;" style="text;html=1;align=center;verticalAlign=middle;resizable=0;points=[];autosize=1;fontSize=10;fontFamily=Manrope;fontStyle=0;fontColor=#BEC8D2;" vertex="1" parent="ZYlagNNr1r7ZUP_o3jMB-1">
          <mxGeometry x="396.59000000000003" y="731" width="62" height="16" as="geometry" />
        </mxCell>
        <mxCell id="ZYlagNNr1r7ZUP_o3jMB-60" style="edgeStyle=orthogonalEdgeStyle;rounded=0;orthogonalLoop=1;jettySize=auto;html=1;fontFamily=Manrope;fontSize=12;fontColor=#FFFFFF;endArrow=none;endFill=0;startArrow=oval;startFill=1;entryX=0.004;entryY=0.544;entryDx=0;entryDy=0;dashed=1;dashPattern=1 1;entryPerimeter=0;endSize=4;startSize=4;strokeColor=#124191;exitX=1.006;exitY=0.834;exitDx=0;exitDy=0;exitPerimeter=0;" edge="1" parent="ZYlagNNr1r7ZUP_o3jMB-1" source="ZYlagNNr1r7ZUP_o3jMB-52" target="ZYlagNNr1r7ZUP_o3jMB-59">
          <mxGeometry relative="1" as="geometry">
            <mxPoint x="364" y="739.7499999999999" as="sourcePoint" />
            <mxPoint x="497.5" y="738.875" as="targetPoint" />
          </mxGeometry>
        </mxCell>
        <mxCell id="ZYlagNNr1r7ZUP_o3jMB-61" value="eth0" style="rounded=0;whiteSpace=wrap;html=1;fontFamily=Manrope;fontSize=12;fontColor=#FFFFFF;align=center;strokeColor=none;rotation=0;horizontal=1;fillColor=#000000;" vertex="1" parent="ZYlagNNr1r7ZUP_o3jMB-1">
          <mxGeometry x="481" y="712.62" width="42" height="32.75" as="geometry" />
        </mxCell>
        <mxCell id="ZYlagNNr1r7ZUP_o3jMB-62" style="edgeStyle=orthogonalEdgeStyle;rounded=0;orthogonalLoop=1;jettySize=auto;html=1;fontFamily=Manrope;fontSize=12;fontColor=#FFFFFF;endArrow=oval;endFill=1;startArrow=none;startFill=0;entryX=0;entryY=0.25;entryDx=0;entryDy=0;dashed=1;dashPattern=1 1;endSize=4;startSize=4;strokeColor=#FF3154;" edge="1" parent="ZYlagNNr1r7ZUP_o3jMB-1" source="ZYlagNNr1r7ZUP_o3jMB-57" target="ZYlagNNr1r7ZUP_o3jMB-61">
          <mxGeometry relative="1" as="geometry">
            <mxPoint x="473" y="721" as="sourcePoint" />
            <mxPoint x="497.5" y="720.495" as="targetPoint" />
          </mxGeometry>
        </mxCell>
        <mxCell id="ZYlagNNr1r7ZUP_o3jMB-63" style="edgeStyle=orthogonalEdgeStyle;rounded=0;orthogonalLoop=1;jettySize=auto;html=1;fontFamily=Manrope;fontSize=12;fontColor=#FFFFFF;endArrow=oval;endFill=1;startArrow=none;startFill=0;entryX=0.004;entryY=0.81;entryDx=0;entryDy=0;dashed=1;dashPattern=1 1;endSize=4;startSize=4;strokeColor=#124191;entryPerimeter=0;" edge="1" parent="ZYlagNNr1r7ZUP_o3jMB-1" source="ZYlagNNr1r7ZUP_o3jMB-59" target="ZYlagNNr1r7ZUP_o3jMB-61">
          <mxGeometry relative="1" as="geometry">
            <mxPoint x="364" y="739.75" as="sourcePoint" />
            <mxPoint x="497.5" y="738.8749999999999" as="targetPoint" />
          </mxGeometry>
        </mxCell>
        <mxCell id="ZYlagNNr1r7ZUP_o3jMB-64" value="vx-vmx-eth1" style="rounded=0;whiteSpace=wrap;html=1;fontFamily=Manrope;fontSize=12;fontColor=#FFFFFF;align=center;strokeColor=none;rotation=0;horizontal=1;fillColor=#4D5766;dashed=1;" vertex="1" parent="ZYlagNNr1r7ZUP_o3jMB-1">
          <mxGeometry x="525" y="694" width="73" height="16.25" as="geometry" />
        </mxCell>
        <mxCell id="ZYlagNNr1r7ZUP_o3jMB-65" value="vx-vmx-eth1" style="rounded=0;whiteSpace=wrap;html=1;fontFamily=Manrope;fontSize=12;fontColor=#FFFFFF;align=center;strokeColor=none;rotation=0;horizontal=1;fillColor=#4D5766;dashed=1;" vertex="1" parent="ZYlagNNr1r7ZUP_o3jMB-1">
          <mxGeometry x="526" y="753" width="73" height="16.25" as="geometry" />
        </mxCell>
        <mxCell id="ZYlagNNr1r7ZUP_o3jMB-66" style="edgeStyle=orthogonalEdgeStyle;rounded=0;orthogonalLoop=1;jettySize=auto;html=1;fontFamily=Manrope;fontSize=12;fontColor=#FFFFFF;endArrow=oval;endFill=1;startArrow=oval;startFill=1;dashed=1;dashPattern=1 1;endSize=4;startSize=4;exitX=0.5;exitY=1;exitDx=0;exitDy=0;entryX=1;entryY=0.25;entryDx=0;entryDy=0;strokeColor=#FF3154;" edge="1" parent="ZYlagNNr1r7ZUP_o3jMB-1" source="ZYlagNNr1r7ZUP_o3jMB-64" target="ZYlagNNr1r7ZUP_o3jMB-61">
          <mxGeometry relative="1" as="geometry">
            <mxPoint x="588" y="729.495" as="sourcePoint" />
            <mxPoint x="634" y="720.8075000000001" as="targetPoint" />
            <Array as="points">
              <mxPoint x="562" y="721" />
              <mxPoint x="558" y="721" />
            </Array>
          </mxGeometry>
        </mxCell>
        <mxCell id="ZYlagNNr1r7ZUP_o3jMB-67" style="edgeStyle=orthogonalEdgeStyle;rounded=0;orthogonalLoop=1;jettySize=auto;html=1;fontFamily=Manrope;fontSize=12;fontColor=#FFFFFF;endArrow=oval;endFill=1;startArrow=oval;startFill=1;dashed=1;dashPattern=1 1;endSize=4;startSize=4;entryX=1;entryY=0.75;entryDx=0;entryDy=0;strokeColor=#124191;exitX=0.5;exitY=0;exitDx=0;exitDy=0;" edge="1" parent="ZYlagNNr1r7ZUP_o3jMB-1" source="ZYlagNNr1r7ZUP_o3jMB-65" target="ZYlagNNr1r7ZUP_o3jMB-61">
          <mxGeometry relative="1" as="geometry">
            <mxPoint x="591.4999999999999" y="711.25" as="sourcePoint" />
            <mxPoint x="634" y="737.1825000000001" as="targetPoint" />
            <Array as="points">
              <mxPoint x="562" y="737" />
              <mxPoint x="554" y="737" />
            </Array>
          </mxGeometry>
        </mxCell>
        <mxCell id="ZYlagNNr1r7ZUP_o3jMB-68" value="vmx-eth1" style="rounded=0;whiteSpace=wrap;html=1;fontFamily=Manrope;fontSize=12;fontColor=#FFFFFF;align=center;strokeColor=none;rotation=0;horizontal=1;fillColor=#001135;" vertex="1" parent="ZYlagNNr1r7ZUP_o3jMB-1">
          <mxGeometry x="630" y="694.37" width="55" height="16.25" as="geometry" />
        </mxCell>
        <mxCell id="ZYlagNNr1r7ZUP_o3jMB-69" value="vmx-eth2" style="rounded=0;whiteSpace=wrap;html=1;fontFamily=Manrope;fontSize=12;fontColor=#FFFFFF;align=center;strokeColor=none;rotation=0;horizontal=1;fillColor=#001135;" vertex="1" parent="ZYlagNNr1r7ZUP_o3jMB-1">
          <mxGeometry x="631" y="752.37" width="56" height="16.25" as="geometry" />
        </mxCell>
        <mxCell id="ZYlagNNr1r7ZUP_o3jMB-70" style="rounded=0;orthogonalLoop=1;jettySize=auto;html=1;fontFamily=Manrope;fontSize=12;fontColor=#FFFFFF;endArrow=oval;endFill=1;startArrow=oval;startFill=1;strokeColor=#00C9FF;endSize=4;startSize=4;exitX=1;exitY=0.5;exitDx=0;exitDy=0;entryX=0;entryY=0.5;entryDx=0;entryDy=0;dashed=1;dashPattern=1 1;" edge="1" parent="ZYlagNNr1r7ZUP_o3jMB-1">
          <mxGeometry relative="1" as="geometry">
            <mxPoint x="598" y="702.1249999999999" as="sourcePoint" />
            <mxPoint x="629" y="702.125" as="targetPoint" />
          </mxGeometry>
        </mxCell>
        <mxCell id="ZYlagNNr1r7ZUP_o3jMB-71" style="rounded=0;orthogonalLoop=1;jettySize=auto;html=1;fontFamily=Manrope;fontSize=12;fontColor=#FFFFFF;endArrow=oval;endFill=1;startArrow=oval;startFill=1;strokeColor=#00C9FF;endSize=4;startSize=4;exitX=1;exitY=0.5;exitDx=0;exitDy=0;entryX=0;entryY=0.5;entryDx=0;entryDy=0;dashed=1;dashPattern=1 1;" edge="1" parent="ZYlagNNr1r7ZUP_o3jMB-1">
          <mxGeometry relative="1" as="geometry">
            <mxPoint x="599" y="761.245" as="sourcePoint" />
            <mxPoint x="630" y="761.245" as="targetPoint" />
          </mxGeometry>
        </mxCell>
        <mxCell id="ZYlagNNr1r7ZUP_o3jMB-72" style="rounded=0;orthogonalLoop=1;jettySize=auto;html=1;fontFamily=Manrope;fontSize=12;fontColor=#FFFFFF;endArrow=oval;endFill=1;startArrow=oval;startFill=1;dashed=1;dashPattern=1 1;strokeColor=#BEC8D2;endSize=4;startSize=4;exitX=0;exitY=0.5;exitDx=0;exitDy=0;entryX=1;entryY=0.5;entryDx=0;entryDy=0;" edge="1" parent="ZYlagNNr1r7ZUP_o3jMB-1" source="ZYlagNNr1r7ZUP_o3jMB-40" target="ZYlagNNr1r7ZUP_o3jMB-68">
          <mxGeometry relative="1" as="geometry">
            <mxPoint x="715" y="702.495" as="sourcePoint" />
            <mxPoint x="626" y="702.37" as="targetPoint" />
          </mxGeometry>
        </mxCell>
        <mxCell id="ZYlagNNr1r7ZUP_o3jMB-73" style="rounded=0;orthogonalLoop=1;jettySize=auto;html=1;fontFamily=Manrope;fontSize=12;fontColor=#FFFFFF;endArrow=oval;endFill=1;startArrow=oval;startFill=1;dashed=1;dashPattern=1 1;strokeColor=#BEC8D2;endSize=4;startSize=4;exitX=0;exitY=0.5;exitDx=0;exitDy=0;entryX=1;entryY=0.5;entryDx=0;entryDy=0;" edge="1" parent="ZYlagNNr1r7ZUP_o3jMB-1" source="ZYlagNNr1r7ZUP_o3jMB-41" target="ZYlagNNr1r7ZUP_o3jMB-69">
          <mxGeometry relative="1" as="geometry">
            <mxPoint x="715" y="760.4950000000001" as="sourcePoint" />
            <mxPoint x="686" y="759.5" as="targetPoint" />
          </mxGeometry>
        </mxCell>
        <mxCell id="ZYlagNNr1r7ZUP_o3jMB-74" value="&lt;font style=&quot;font-size: 14px;&quot;&gt;&lt;b style=&quot;font-size: 14px;&quot;&gt;VM2&lt;/b&gt;&lt;/font&gt;" style="text;html=1;align=center;verticalAlign=middle;resizable=0;points=[];autosize=1;fontSize=14;fontFamily=Manrope;fontStyle=0;" vertex="1" parent="ZYlagNNr1r7ZUP_o3jMB-1">
          <mxGeometry x="890.25" y="633" width="38" height="21" as="geometry" />
        </mxCell>
        <mxCell id="ZYlagNNr1r7ZUP_o3jMB-75" style="rounded=0;orthogonalLoop=1;jettySize=auto;html=1;fontFamily=Manrope;fontSize=12;fontColor=#FFFFFF;endArrow=oval;endFill=1;startArrow=oval;startFill=1;strokeColor=#00C9FF;endSize=4;startSize=4;exitX=1;exitY=0.5;exitDx=0;exitDy=0;dashed=1;dashPattern=1 1;" edge="1" parent="ZYlagNNr1r7ZUP_o3jMB-1">
          <mxGeometry relative="1" as="geometry">
            <mxPoint x="-41.48000000000002" y="846.255" as="sourcePoint" />
            <mxPoint x="-4" y="846" as="targetPoint" />
          </mxGeometry>
        </mxCell>
        <mxCell id="ZYlagNNr1r7ZUP_o3jMB-76" style="rounded=0;orthogonalLoop=1;jettySize=auto;html=1;fontFamily=Manrope;fontSize=12;fontColor=#FFFFFF;endArrow=oval;endFill=1;startArrow=oval;startFill=1;endSize=4;startSize=4;dashed=1;dashPattern=1 1;strokeColor=#BEC8D2;" edge="1" parent="ZYlagNNr1r7ZUP_o3jMB-1">
          <mxGeometry relative="1" as="geometry">
            <mxPoint x="-42" y="869" as="sourcePoint" />
            <mxPoint x="-4.49" y="869" as="targetPoint" />
          </mxGeometry>
        </mxCell>
        <mxCell id="ZYlagNNr1r7ZUP_o3jMB-77" value="&lt;font style=&quot;font-size: 12px;&quot;&gt;tc-based redirection&lt;/font&gt;" style="text;html=1;align=left;verticalAlign=middle;resizable=0;points=[];autosize=1;fontSize=12;fontFamily=Manrope;fontStyle=0;fontColor=#BEC8D2;" vertex="1" parent="ZYlagNNr1r7ZUP_o3jMB-1">
          <mxGeometry x="4.999999999999986" y="837" width="124" height="18" as="geometry" />
        </mxCell>
        <mxCell id="ZYlagNNr1r7ZUP_o3jMB-78" value="&lt;font style=&quot;font-size: 12px;&quot;&gt;veth link&lt;/font&gt;" style="text;html=1;align=left;verticalAlign=middle;resizable=0;points=[];autosize=1;fontSize=12;fontFamily=Manrope;fontStyle=0;fontColor=#BEC8D2;" vertex="1" parent="ZYlagNNr1r7ZUP_o3jMB-1">
          <mxGeometry x="3.0099999999999856" y="859" width="56" height="18" as="geometry" />
        </mxCell>
      </root>
    </mxGraphModel>
  </diagram>
</mxfile>
